G04 EAGLE Gerber RS-274X export*
G75*
%MOMM*%
%FSLAX34Y34*%
%LPD*%
%INComponent side*%
%IPPOS*%
%AMOC8*
5,1,8,0,0,1.08239X$1,22.5*%
G01*
%ADD10C,0.040000*%
%ADD11R,1.600000X1.300000*%
%ADD12R,1.300000X1.500000*%
%ADD13R,1.005000X0.397100*%
%ADD14R,0.800000X0.800000*%
%ADD15C,0.052500*%
%ADD16C,0.050000*%
%ADD17C,1.524000*%
%ADD18C,0.304800*%
%ADD19C,0.650000*%
%ADD20C,0.200000*%
%ADD21C,0.406400*%
%ADD22C,0.800000*%
%ADD23C,0.508000*%
%ADD24C,0.812800*%
%ADD25C,0.609600*%

G36*
X300946Y41307D02*
X300946Y41307D01*
X300987Y41305D01*
X303001Y41481D01*
X303096Y41503D01*
X303173Y41511D01*
X305126Y42034D01*
X305215Y42072D01*
X305290Y42094D01*
X307122Y42948D01*
X307203Y43001D01*
X307273Y43036D01*
X308930Y44195D01*
X309000Y44262D01*
X309063Y44307D01*
X310493Y45737D01*
X310551Y45814D01*
X310605Y45871D01*
X311764Y47527D01*
X311808Y47613D01*
X311852Y47678D01*
X311942Y47871D01*
X311942Y47872D01*
X312408Y48871D01*
X312706Y49510D01*
X312734Y49603D01*
X312766Y49674D01*
X313289Y51627D01*
X313301Y51723D01*
X313319Y51799D01*
X313495Y53813D01*
X313493Y53859D01*
X313499Y53900D01*
X313499Y294900D01*
X313493Y294946D01*
X313495Y294987D01*
X313316Y297036D01*
X313294Y297130D01*
X313286Y297208D01*
X312754Y299194D01*
X312716Y299283D01*
X312694Y299358D01*
X311825Y301222D01*
X311772Y301303D01*
X311738Y301373D01*
X310558Y303058D01*
X310492Y303129D01*
X310446Y303191D01*
X308991Y304646D01*
X308914Y304704D01*
X308858Y304758D01*
X307173Y305938D01*
X307087Y305981D01*
X307022Y306025D01*
X305158Y306894D01*
X305066Y306922D01*
X304994Y306954D01*
X303008Y307486D01*
X302912Y307498D01*
X302836Y307516D01*
X300787Y307695D01*
X300741Y307693D01*
X300700Y307699D01*
X121000Y307699D01*
X120936Y307690D01*
X120872Y307691D01*
X120797Y307670D01*
X120721Y307659D01*
X120662Y307633D01*
X120600Y307616D01*
X120534Y307575D01*
X120464Y307543D01*
X120415Y307501D01*
X120360Y307468D01*
X120308Y307410D01*
X120250Y307360D01*
X120214Y307306D01*
X120171Y307258D01*
X120138Y307189D01*
X120095Y307124D01*
X120076Y307062D01*
X120048Y307005D01*
X120037Y306935D01*
X120013Y306854D01*
X120012Y306769D01*
X120001Y306700D01*
X120001Y214094D01*
X119847Y212340D01*
X119403Y210682D01*
X119364Y210598D01*
X118898Y209599D01*
X118898Y209598D01*
X118678Y209127D01*
X117693Y207720D01*
X116480Y206507D01*
X115073Y205522D01*
X113518Y204797D01*
X111860Y204353D01*
X110106Y204199D01*
X38300Y204199D01*
X38236Y204190D01*
X38172Y204191D01*
X38097Y204170D01*
X38021Y204159D01*
X37962Y204133D01*
X37900Y204116D01*
X37834Y204075D01*
X37764Y204043D01*
X37715Y204001D01*
X37660Y203968D01*
X37608Y203910D01*
X37550Y203860D01*
X37514Y203806D01*
X37471Y203758D01*
X37438Y203689D01*
X37395Y203624D01*
X37376Y203562D01*
X37348Y203505D01*
X37337Y203435D01*
X37313Y203354D01*
X37312Y203269D01*
X37301Y203200D01*
X37301Y51600D01*
X37308Y51548D01*
X37306Y51502D01*
X37484Y49688D01*
X37511Y49580D01*
X37522Y49496D01*
X38052Y47751D01*
X38099Y47650D01*
X38127Y47570D01*
X38986Y45962D01*
X39052Y45873D01*
X39095Y45799D01*
X40251Y44390D01*
X40333Y44315D01*
X40390Y44251D01*
X41799Y43095D01*
X41894Y43037D01*
X41962Y42986D01*
X43570Y42127D01*
X43674Y42089D01*
X43751Y42052D01*
X45496Y41522D01*
X45605Y41506D01*
X45688Y41484D01*
X47502Y41306D01*
X47555Y41308D01*
X47600Y41301D01*
X300900Y41301D01*
X300946Y41307D01*
G37*
%LPC*%
G36*
X197731Y44755D02*
X197731Y44755D01*
X191572Y47307D01*
X190641Y48237D01*
X189231Y49647D01*
X189231Y49648D01*
X189215Y49664D01*
X187788Y51090D01*
X186812Y52066D01*
X185347Y55602D01*
X185342Y55611D01*
X185340Y55620D01*
X185271Y55732D01*
X185204Y55845D01*
X185197Y55852D01*
X185192Y55860D01*
X185094Y55948D01*
X184998Y56038D01*
X184989Y56042D01*
X184982Y56049D01*
X184864Y56106D01*
X184746Y56166D01*
X184737Y56168D01*
X184729Y56172D01*
X184653Y56184D01*
X184469Y56218D01*
X184445Y56216D01*
X184424Y56219D01*
X183389Y56219D01*
X181522Y56993D01*
X180093Y58422D01*
X179319Y60289D01*
X179319Y77311D01*
X179840Y78568D01*
X179864Y78661D01*
X179896Y78751D01*
X179899Y78797D01*
X179910Y78841D01*
X179907Y78937D01*
X179913Y79033D01*
X179903Y79074D01*
X179901Y79123D01*
X179861Y79244D01*
X179840Y79332D01*
X179319Y80589D01*
X179319Y94820D01*
X179310Y94884D01*
X179311Y94948D01*
X179290Y95023D01*
X179279Y95099D01*
X179253Y95158D01*
X179236Y95220D01*
X179195Y95286D01*
X179163Y95356D01*
X179121Y95405D01*
X179088Y95460D01*
X179030Y95512D01*
X178980Y95570D01*
X178926Y95606D01*
X178878Y95649D01*
X178809Y95682D01*
X178744Y95725D01*
X178682Y95744D01*
X178625Y95772D01*
X178555Y95783D01*
X178474Y95807D01*
X178389Y95808D01*
X178320Y95819D01*
X177650Y95819D01*
X177382Y95930D01*
X177289Y95954D01*
X177199Y95986D01*
X177153Y95989D01*
X177109Y96000D01*
X177013Y95997D01*
X176917Y96003D01*
X176876Y95993D01*
X176827Y95991D01*
X176706Y95951D01*
X176618Y95930D01*
X176350Y95819D01*
X166650Y95819D01*
X166382Y95930D01*
X166289Y95954D01*
X166199Y95986D01*
X166153Y95989D01*
X166109Y96000D01*
X166013Y95997D01*
X165917Y96003D01*
X165876Y95993D01*
X165827Y95991D01*
X165706Y95951D01*
X165618Y95930D01*
X165350Y95819D01*
X155650Y95819D01*
X155382Y95930D01*
X155289Y95954D01*
X155199Y95986D01*
X155153Y95989D01*
X155109Y96000D01*
X155013Y95997D01*
X154917Y96003D01*
X154876Y95993D01*
X154827Y95991D01*
X154706Y95951D01*
X154618Y95930D01*
X154350Y95819D01*
X144650Y95819D01*
X144382Y95930D01*
X144289Y95954D01*
X144199Y95986D01*
X144153Y95989D01*
X144109Y96000D01*
X144013Y95997D01*
X143917Y96003D01*
X143876Y95993D01*
X143827Y95991D01*
X143706Y95951D01*
X143618Y95930D01*
X143350Y95819D01*
X133650Y95819D01*
X131709Y96623D01*
X130223Y98109D01*
X129419Y100050D01*
X129419Y117750D01*
X130223Y119691D01*
X131709Y121177D01*
X133650Y121981D01*
X143350Y121981D01*
X143618Y121870D01*
X143711Y121846D01*
X143801Y121814D01*
X143847Y121811D01*
X143891Y121800D01*
X143987Y121803D01*
X144083Y121797D01*
X144124Y121807D01*
X144173Y121809D01*
X144294Y121849D01*
X144382Y121870D01*
X144650Y121981D01*
X151750Y121981D01*
X151814Y121990D01*
X151878Y121989D01*
X151953Y122010D01*
X152029Y122021D01*
X152088Y122047D01*
X152150Y122064D01*
X152216Y122105D01*
X152286Y122137D01*
X152335Y122179D01*
X152390Y122212D01*
X152442Y122270D01*
X152500Y122320D01*
X152536Y122374D01*
X152579Y122422D01*
X152612Y122491D01*
X152655Y122556D01*
X152674Y122618D01*
X152702Y122675D01*
X152713Y122745D01*
X152737Y122826D01*
X152738Y122911D01*
X152749Y122980D01*
X152749Y134375D01*
X155453Y142696D01*
X160596Y149774D01*
X167674Y154917D01*
X175995Y157621D01*
X239625Y157621D01*
X239720Y157634D01*
X239816Y157639D01*
X239860Y157654D01*
X239905Y157661D01*
X239992Y157700D01*
X240083Y157732D01*
X240117Y157757D01*
X240161Y157777D01*
X240259Y157860D01*
X240332Y157913D01*
X243186Y160767D01*
X247854Y162701D01*
X268146Y162701D01*
X268204Y162677D01*
X268244Y162666D01*
X268282Y162648D01*
X268367Y162635D01*
X268477Y162607D01*
X268536Y162609D01*
X268587Y162601D01*
X277688Y162601D01*
X277752Y162610D01*
X277816Y162609D01*
X277891Y162630D01*
X277967Y162641D01*
X278026Y162667D01*
X278088Y162684D01*
X278154Y162725D01*
X278224Y162757D01*
X278273Y162799D01*
X278328Y162832D01*
X278380Y162890D01*
X278438Y162940D01*
X278474Y162994D01*
X278517Y163042D01*
X278550Y163111D01*
X278593Y163176D01*
X278612Y163238D01*
X278640Y163295D01*
X278651Y163365D01*
X278675Y163446D01*
X278676Y163531D01*
X278687Y163600D01*
X278687Y192492D01*
X278682Y192527D01*
X278685Y192558D01*
X278583Y194117D01*
X278560Y194226D01*
X278551Y194310D01*
X277744Y197322D01*
X277673Y197488D01*
X277644Y197563D01*
X276085Y200263D01*
X276016Y200351D01*
X275971Y200423D01*
X274941Y201597D01*
X274914Y201620D01*
X274896Y201645D01*
X274414Y202127D01*
X274338Y202184D01*
X274266Y202249D01*
X274225Y202269D01*
X274189Y202296D01*
X274099Y202330D01*
X274012Y202372D01*
X273970Y202378D01*
X273925Y202395D01*
X273797Y202405D01*
X273708Y202419D01*
X262489Y202419D01*
X260622Y203193D01*
X259257Y204558D01*
X259205Y204597D01*
X259160Y204643D01*
X259093Y204681D01*
X259031Y204727D01*
X258971Y204750D01*
X258915Y204782D01*
X258840Y204800D01*
X258767Y204827D01*
X258703Y204832D01*
X258640Y204847D01*
X258563Y204843D01*
X258486Y204849D01*
X258423Y204836D01*
X258359Y204832D01*
X258286Y204807D01*
X258210Y204791D01*
X258153Y204761D01*
X258092Y204740D01*
X258036Y204699D01*
X257961Y204659D01*
X257900Y204600D01*
X257843Y204558D01*
X256278Y202993D01*
X254411Y202219D01*
X236389Y202219D01*
X234522Y202993D01*
X233093Y204422D01*
X232319Y206289D01*
X232319Y221311D01*
X232985Y222918D01*
X233009Y223011D01*
X233041Y223101D01*
X233044Y223147D01*
X233055Y223191D01*
X233052Y223287D01*
X233058Y223383D01*
X233048Y223424D01*
X233046Y223473D01*
X233006Y223594D01*
X232985Y223682D01*
X232319Y225289D01*
X232319Y239366D01*
X232306Y239461D01*
X232301Y239558D01*
X232299Y239562D01*
X232299Y246520D01*
X232290Y246584D01*
X232291Y246648D01*
X232270Y246723D01*
X232259Y246799D01*
X232233Y246858D01*
X232216Y246920D01*
X232175Y246986D01*
X232143Y247056D01*
X232101Y247105D01*
X232068Y247160D01*
X232010Y247212D01*
X231960Y247270D01*
X231906Y247306D01*
X231858Y247349D01*
X231789Y247382D01*
X231724Y247425D01*
X231662Y247444D01*
X231605Y247472D01*
X231535Y247483D01*
X231454Y247507D01*
X231369Y247508D01*
X231300Y247519D01*
X228289Y247519D01*
X226422Y248293D01*
X224993Y249722D01*
X224219Y251589D01*
X224219Y256688D01*
X224210Y256752D01*
X224211Y256816D01*
X224190Y256891D01*
X224179Y256967D01*
X224153Y257026D01*
X224136Y257088D01*
X224095Y257154D01*
X224063Y257224D01*
X224021Y257273D01*
X223988Y257328D01*
X223930Y257380D01*
X223880Y257438D01*
X223826Y257474D01*
X223778Y257517D01*
X223709Y257550D01*
X223644Y257593D01*
X223582Y257612D01*
X223525Y257640D01*
X223455Y257651D01*
X223374Y257675D01*
X223289Y257676D01*
X223220Y257687D01*
X202306Y257687D01*
X202272Y257682D01*
X202241Y257685D01*
X200466Y257569D01*
X200357Y257546D01*
X200273Y257537D01*
X196845Y256618D01*
X196679Y256548D01*
X196604Y256519D01*
X193531Y254744D01*
X193443Y254676D01*
X193372Y254630D01*
X192035Y253458D01*
X192009Y253428D01*
X191979Y253404D01*
X191963Y253383D01*
X191942Y253365D01*
X191329Y252666D01*
X191269Y252573D01*
X191215Y252507D01*
X190288Y250900D01*
X190220Y250733D01*
X190188Y250659D01*
X189708Y248867D01*
X189694Y248757D01*
X189676Y248674D01*
X189615Y247746D01*
X189618Y247712D01*
X189613Y247681D01*
X189613Y244980D01*
X189622Y244916D01*
X189621Y244852D01*
X189642Y244777D01*
X189653Y244701D01*
X189679Y244642D01*
X189696Y244580D01*
X189737Y244514D01*
X189769Y244444D01*
X189811Y244395D01*
X189844Y244340D01*
X189902Y244288D01*
X189952Y244230D01*
X190006Y244194D01*
X190054Y244151D01*
X190123Y244118D01*
X190188Y244075D01*
X190250Y244056D01*
X190307Y244028D01*
X190377Y244017D01*
X190458Y243993D01*
X190543Y243992D01*
X190612Y243981D01*
X198350Y243981D01*
X198618Y243870D01*
X198711Y243846D01*
X198801Y243814D01*
X198847Y243811D01*
X198891Y243800D01*
X198987Y243803D01*
X199083Y243797D01*
X199124Y243807D01*
X199173Y243809D01*
X199294Y243849D01*
X199382Y243870D01*
X199650Y243981D01*
X209350Y243981D01*
X211291Y243177D01*
X212777Y241691D01*
X213581Y239750D01*
X213581Y222050D01*
X212777Y220109D01*
X211291Y218623D01*
X209350Y217819D01*
X199650Y217819D01*
X199382Y217930D01*
X199289Y217954D01*
X199199Y217986D01*
X199153Y217989D01*
X199109Y218000D01*
X199013Y217997D01*
X198917Y218003D01*
X198876Y217993D01*
X198827Y217991D01*
X198706Y217951D01*
X198618Y217930D01*
X198350Y217819D01*
X188650Y217819D01*
X188382Y217930D01*
X188289Y217954D01*
X188199Y217986D01*
X188153Y217989D01*
X188109Y218000D01*
X188013Y217997D01*
X187917Y218003D01*
X187876Y217993D01*
X187827Y217991D01*
X187706Y217951D01*
X187618Y217930D01*
X187350Y217819D01*
X177650Y217819D01*
X175709Y218623D01*
X174265Y220067D01*
X174189Y220124D01*
X174117Y220189D01*
X174076Y220209D01*
X174040Y220236D01*
X173950Y220270D01*
X173863Y220312D01*
X173821Y220318D01*
X173776Y220335D01*
X173648Y220345D01*
X173559Y220359D01*
X173499Y220359D01*
X173499Y221658D01*
X173493Y221699D01*
X173496Y221741D01*
X173475Y221825D01*
X173459Y221937D01*
X173435Y221991D01*
X173423Y222040D01*
X173419Y222050D01*
X173419Y229900D01*
X173410Y229964D01*
X173411Y230028D01*
X173390Y230102D01*
X173379Y230179D01*
X173353Y230238D01*
X173336Y230300D01*
X173295Y230366D01*
X173263Y230436D01*
X173221Y230485D01*
X173188Y230540D01*
X173130Y230591D01*
X173080Y230650D01*
X173026Y230686D01*
X172978Y230729D01*
X172909Y230762D01*
X172844Y230805D01*
X172782Y230824D01*
X172725Y230852D01*
X172655Y230862D01*
X172574Y230887D01*
X172489Y230888D01*
X172420Y230899D01*
X171499Y230899D01*
X171499Y230901D01*
X172420Y230901D01*
X172484Y230910D01*
X172548Y230909D01*
X172623Y230930D01*
X172699Y230941D01*
X172758Y230967D01*
X172820Y230984D01*
X172886Y231025D01*
X172956Y231057D01*
X173005Y231099D01*
X173060Y231132D01*
X173112Y231190D01*
X173170Y231240D01*
X173206Y231294D01*
X173249Y231342D01*
X173282Y231411D01*
X173325Y231476D01*
X173344Y231538D01*
X173372Y231596D01*
X173383Y231665D01*
X173407Y231746D01*
X173408Y231831D01*
X173419Y231900D01*
X173419Y239750D01*
X173423Y239760D01*
X173433Y239800D01*
X173452Y239837D01*
X173465Y239923D01*
X173468Y239933D01*
X173487Y239997D01*
X173487Y240010D01*
X173493Y240033D01*
X173491Y240092D01*
X173499Y240142D01*
X173499Y241441D01*
X173559Y241441D01*
X173654Y241454D01*
X173750Y241459D01*
X173793Y241474D01*
X173838Y241481D01*
X173925Y241520D01*
X174016Y241552D01*
X174051Y241577D01*
X174095Y241597D01*
X174192Y241680D01*
X174265Y241733D01*
X175095Y242563D01*
X175152Y242640D01*
X175217Y242711D01*
X175237Y242752D01*
X175264Y242788D01*
X175298Y242878D01*
X175340Y242965D01*
X175346Y243007D01*
X175363Y243052D01*
X175373Y243180D01*
X175387Y243269D01*
X175387Y250621D01*
X176909Y256301D01*
X179849Y261393D01*
X181928Y263472D01*
X182055Y263599D01*
X184611Y266155D01*
X191182Y269949D01*
X198512Y271913D01*
X223220Y271913D01*
X223284Y271922D01*
X223348Y271921D01*
X223423Y271942D01*
X223499Y271953D01*
X223558Y271979D01*
X223620Y271996D01*
X223686Y272037D01*
X223756Y272069D01*
X223805Y272111D01*
X223860Y272144D01*
X223912Y272202D01*
X223970Y272252D01*
X224006Y272306D01*
X224049Y272354D01*
X224082Y272423D01*
X224125Y272488D01*
X224144Y272550D01*
X224172Y272607D01*
X224183Y272677D01*
X224207Y272758D01*
X224208Y272843D01*
X224219Y272912D01*
X224219Y278111D01*
X224993Y279978D01*
X226422Y281407D01*
X228289Y282181D01*
X232391Y282181D01*
X232486Y282194D01*
X232582Y282199D01*
X232625Y282214D01*
X232670Y282221D01*
X232758Y282260D01*
X232849Y282292D01*
X232883Y282317D01*
X232927Y282337D01*
X233024Y282420D01*
X233098Y282473D01*
X235173Y284549D01*
X236147Y285523D01*
X241675Y287813D01*
X279273Y287813D01*
X286022Y285018D01*
X288604Y282435D01*
X288664Y282375D01*
X290673Y280366D01*
X292913Y274959D01*
X292913Y249937D01*
X292913Y247759D01*
X292907Y247736D01*
X292909Y247677D01*
X292901Y247627D01*
X292901Y196246D01*
X292913Y196161D01*
X292913Y128837D01*
X292913Y126383D01*
X290807Y118526D01*
X286740Y111481D01*
X284422Y109163D01*
X278613Y103354D01*
X278556Y103278D01*
X278491Y103206D01*
X278471Y103165D01*
X278444Y103129D01*
X278410Y103039D01*
X278368Y102952D01*
X278362Y102910D01*
X278345Y102865D01*
X278335Y102737D01*
X278321Y102648D01*
X278321Y97474D01*
X276387Y92806D01*
X272814Y89233D01*
X268146Y87299D01*
X268144Y87299D01*
X268080Y87290D01*
X268016Y87291D01*
X267941Y87270D01*
X267865Y87259D01*
X267806Y87233D01*
X267744Y87216D01*
X267678Y87175D01*
X267608Y87143D01*
X267559Y87101D01*
X267504Y87068D01*
X267452Y87010D01*
X267394Y86960D01*
X267358Y86906D01*
X267315Y86858D01*
X267282Y86789D01*
X267239Y86724D01*
X267220Y86662D01*
X267192Y86605D01*
X267181Y86535D01*
X267157Y86454D01*
X267156Y86369D01*
X267145Y86300D01*
X267145Y65388D01*
X264051Y57918D01*
X262619Y56486D01*
X255514Y49381D01*
X254034Y47901D01*
X246439Y44755D01*
X197731Y44755D01*
G37*
%LPD*%
G36*
X103358Y209142D02*
X103358Y209142D01*
X103377Y209140D01*
X103479Y209162D01*
X103581Y209179D01*
X103598Y209188D01*
X103618Y209192D01*
X103707Y209245D01*
X103798Y209294D01*
X103812Y209308D01*
X103829Y209318D01*
X103896Y209397D01*
X103968Y209472D01*
X103976Y209490D01*
X103989Y209505D01*
X104028Y209601D01*
X104071Y209695D01*
X104073Y209715D01*
X104081Y209733D01*
X104099Y209900D01*
X104099Y217058D01*
X104096Y217078D01*
X104098Y217097D01*
X104076Y217199D01*
X104060Y217301D01*
X104050Y217318D01*
X104046Y217338D01*
X103993Y217427D01*
X103944Y217518D01*
X103930Y217532D01*
X103920Y217549D01*
X103841Y217616D01*
X103766Y217688D01*
X103748Y217696D01*
X103733Y217709D01*
X103637Y217748D01*
X103543Y217791D01*
X103523Y217793D01*
X103505Y217801D01*
X103338Y217819D01*
X91513Y217819D01*
X89196Y220136D01*
X89122Y220189D01*
X89052Y220249D01*
X89022Y220261D01*
X88996Y220280D01*
X88909Y220307D01*
X88824Y220341D01*
X88783Y220345D01*
X88761Y220352D01*
X88729Y220351D01*
X88657Y220359D01*
X88023Y220359D01*
X88023Y230138D01*
X88020Y230158D01*
X88022Y230177D01*
X88000Y230279D01*
X87983Y230381D01*
X87974Y230398D01*
X87970Y230418D01*
X87917Y230507D01*
X87868Y230598D01*
X87854Y230612D01*
X87844Y230629D01*
X87765Y230696D01*
X87690Y230767D01*
X87672Y230776D01*
X87657Y230789D01*
X87561Y230828D01*
X87467Y230871D01*
X87447Y230873D01*
X87429Y230881D01*
X87262Y230899D01*
X85738Y230899D01*
X85718Y230896D01*
X85699Y230898D01*
X85597Y230876D01*
X85495Y230859D01*
X85478Y230850D01*
X85458Y230846D01*
X85369Y230793D01*
X85278Y230744D01*
X85264Y230730D01*
X85247Y230720D01*
X85180Y230641D01*
X85109Y230566D01*
X85100Y230548D01*
X85087Y230533D01*
X85048Y230437D01*
X85005Y230343D01*
X85003Y230323D01*
X84995Y230305D01*
X84977Y230138D01*
X84977Y220359D01*
X82339Y220359D01*
X81545Y220572D01*
X81541Y220572D01*
X81495Y220591D01*
X81485Y220592D01*
X81480Y220594D01*
X81458Y220595D01*
X81329Y220609D01*
X69671Y220609D01*
X69558Y220591D01*
X69444Y220575D01*
X69435Y220571D01*
X69429Y220570D01*
X69411Y220560D01*
X68661Y220359D01*
X66023Y220359D01*
X66023Y230138D01*
X66020Y230158D01*
X66022Y230177D01*
X66000Y230279D01*
X65983Y230381D01*
X65974Y230398D01*
X65970Y230418D01*
X65917Y230507D01*
X65868Y230598D01*
X65854Y230612D01*
X65844Y230629D01*
X65765Y230696D01*
X65690Y230767D01*
X65672Y230776D01*
X65657Y230789D01*
X65561Y230828D01*
X65467Y230871D01*
X65447Y230873D01*
X65429Y230881D01*
X65262Y230899D01*
X64499Y230899D01*
X64499Y230901D01*
X65262Y230901D01*
X65282Y230904D01*
X65301Y230902D01*
X65403Y230924D01*
X65505Y230941D01*
X65522Y230950D01*
X65542Y230954D01*
X65631Y231007D01*
X65722Y231056D01*
X65736Y231070D01*
X65753Y231080D01*
X65820Y231159D01*
X65891Y231234D01*
X65900Y231252D01*
X65913Y231267D01*
X65952Y231363D01*
X65995Y231457D01*
X65997Y231477D01*
X66005Y231495D01*
X66023Y231662D01*
X66023Y241441D01*
X68738Y241441D01*
X68758Y241444D01*
X68777Y241442D01*
X68879Y241464D01*
X68981Y241480D01*
X68998Y241490D01*
X69018Y241494D01*
X69107Y241547D01*
X69198Y241596D01*
X69212Y241610D01*
X69229Y241620D01*
X69296Y241699D01*
X69368Y241774D01*
X69376Y241792D01*
X69389Y241807D01*
X69428Y241903D01*
X69471Y241997D01*
X69473Y242017D01*
X69481Y242035D01*
X69499Y242202D01*
X69499Y253642D01*
X69485Y253732D01*
X69477Y253823D01*
X69465Y253853D01*
X69460Y253885D01*
X69417Y253966D01*
X69381Y254050D01*
X69355Y254082D01*
X69344Y254102D01*
X69321Y254125D01*
X69276Y254181D01*
X67959Y255498D01*
X67959Y262290D01*
X67944Y262384D01*
X67935Y262479D01*
X67924Y262505D01*
X67920Y262533D01*
X67875Y262617D01*
X67837Y262704D01*
X67818Y262725D01*
X67804Y262750D01*
X67735Y262816D01*
X67671Y262886D01*
X67646Y262900D01*
X67626Y262919D01*
X67539Y262960D01*
X67456Y263006D01*
X67429Y263011D01*
X67403Y263023D01*
X67308Y263033D01*
X67214Y263051D01*
X67187Y263047D01*
X67159Y263050D01*
X67065Y263030D01*
X66971Y263016D01*
X66939Y263002D01*
X66918Y262998D01*
X66890Y262981D01*
X66821Y262951D01*
X66107Y262759D01*
X62273Y262759D01*
X62273Y274777D01*
X68541Y274777D01*
X68541Y269352D01*
X68544Y269332D01*
X68542Y269313D01*
X68564Y269211D01*
X68580Y269109D01*
X68590Y269092D01*
X68594Y269072D01*
X68647Y268983D01*
X68696Y268892D01*
X68710Y268878D01*
X68720Y268861D01*
X68799Y268794D01*
X68874Y268722D01*
X68892Y268714D01*
X68907Y268701D01*
X69003Y268662D01*
X69097Y268619D01*
X69117Y268617D01*
X69135Y268609D01*
X69302Y268591D01*
X81698Y268591D01*
X81718Y268594D01*
X81737Y268592D01*
X81839Y268614D01*
X81941Y268630D01*
X81958Y268640D01*
X81978Y268644D01*
X82067Y268697D01*
X82158Y268746D01*
X82172Y268760D01*
X82189Y268770D01*
X82256Y268849D01*
X82328Y268924D01*
X82336Y268942D01*
X82349Y268957D01*
X82388Y269053D01*
X82431Y269147D01*
X82433Y269167D01*
X82441Y269185D01*
X82459Y269352D01*
X82459Y274777D01*
X88727Y274777D01*
X88727Y262759D01*
X84893Y262759D01*
X84177Y262951D01*
X84093Y262983D01*
X84007Y263023D01*
X83979Y263026D01*
X83953Y263036D01*
X83857Y263040D01*
X83763Y263050D01*
X83735Y263044D01*
X83707Y263045D01*
X83615Y263018D01*
X83522Y262998D01*
X83498Y262983D01*
X83471Y262975D01*
X83393Y262921D01*
X83311Y262872D01*
X83293Y262850D01*
X83270Y262834D01*
X83213Y262757D01*
X83151Y262685D01*
X83141Y262659D01*
X83124Y262636D01*
X83095Y262545D01*
X83059Y262457D01*
X83055Y262421D01*
X83049Y262402D01*
X83049Y262369D01*
X83041Y262290D01*
X83041Y255498D01*
X81724Y254181D01*
X81671Y254107D01*
X81611Y254037D01*
X81599Y254007D01*
X81580Y253981D01*
X81553Y253894D01*
X81519Y253809D01*
X81515Y253768D01*
X81508Y253746D01*
X81509Y253714D01*
X81501Y253642D01*
X81501Y242202D01*
X81504Y242182D01*
X81502Y242163D01*
X81524Y242061D01*
X81540Y241959D01*
X81550Y241942D01*
X81554Y241922D01*
X81607Y241833D01*
X81656Y241742D01*
X81670Y241728D01*
X81680Y241711D01*
X81759Y241644D01*
X81834Y241572D01*
X81852Y241564D01*
X81867Y241551D01*
X81963Y241512D01*
X82057Y241469D01*
X82077Y241467D01*
X82095Y241459D01*
X82262Y241441D01*
X84977Y241441D01*
X84977Y231662D01*
X84980Y231642D01*
X84978Y231623D01*
X85000Y231521D01*
X85017Y231419D01*
X85026Y231402D01*
X85030Y231382D01*
X85083Y231293D01*
X85132Y231202D01*
X85146Y231188D01*
X85156Y231171D01*
X85235Y231104D01*
X85310Y231033D01*
X85328Y231024D01*
X85343Y231011D01*
X85439Y230972D01*
X85533Y230929D01*
X85553Y230927D01*
X85571Y230919D01*
X85738Y230901D01*
X87262Y230901D01*
X87282Y230904D01*
X87301Y230902D01*
X87403Y230924D01*
X87505Y230941D01*
X87522Y230950D01*
X87542Y230954D01*
X87631Y231007D01*
X87722Y231056D01*
X87736Y231070D01*
X87753Y231080D01*
X87820Y231159D01*
X87891Y231234D01*
X87900Y231252D01*
X87913Y231267D01*
X87952Y231363D01*
X87995Y231457D01*
X87997Y231477D01*
X88005Y231495D01*
X88023Y231662D01*
X88023Y241441D01*
X88657Y241441D01*
X88747Y241455D01*
X88838Y241463D01*
X88868Y241475D01*
X88900Y241480D01*
X88981Y241523D01*
X89065Y241559D01*
X89097Y241585D01*
X89117Y241596D01*
X89140Y241619D01*
X89196Y241664D01*
X91513Y243981D01*
X114300Y243981D01*
X114320Y243984D01*
X114339Y243982D01*
X114441Y244004D01*
X114543Y244020D01*
X114560Y244030D01*
X114580Y244034D01*
X114669Y244087D01*
X114760Y244136D01*
X114774Y244150D01*
X114791Y244160D01*
X114858Y244239D01*
X114930Y244314D01*
X114938Y244332D01*
X114951Y244347D01*
X114990Y244443D01*
X115033Y244537D01*
X115035Y244557D01*
X115043Y244575D01*
X115061Y244742D01*
X115061Y306800D01*
X115058Y306820D01*
X115060Y306839D01*
X115038Y306941D01*
X115022Y307043D01*
X115012Y307060D01*
X115008Y307080D01*
X114955Y307169D01*
X114906Y307260D01*
X114892Y307274D01*
X114882Y307291D01*
X114803Y307358D01*
X114728Y307430D01*
X114710Y307438D01*
X114695Y307451D01*
X114599Y307490D01*
X114505Y307533D01*
X114485Y307535D01*
X114467Y307543D01*
X114300Y307561D01*
X47200Y307561D01*
X47174Y307557D01*
X47125Y307558D01*
X45311Y307379D01*
X45288Y307373D01*
X45165Y307350D01*
X43420Y306821D01*
X43399Y306810D01*
X43282Y306763D01*
X41674Y305904D01*
X41655Y305889D01*
X41550Y305821D01*
X40141Y304665D01*
X40125Y304647D01*
X40035Y304559D01*
X38879Y303150D01*
X38867Y303129D01*
X38796Y303026D01*
X37937Y301418D01*
X37929Y301395D01*
X37879Y301280D01*
X37350Y299535D01*
X37347Y299512D01*
X37321Y299389D01*
X37142Y297575D01*
X37144Y297548D01*
X37139Y297500D01*
X37139Y209900D01*
X37142Y209880D01*
X37140Y209861D01*
X37162Y209759D01*
X37179Y209657D01*
X37188Y209640D01*
X37192Y209620D01*
X37245Y209531D01*
X37294Y209440D01*
X37308Y209426D01*
X37318Y209409D01*
X37397Y209342D01*
X37472Y209271D01*
X37490Y209262D01*
X37505Y209249D01*
X37601Y209210D01*
X37695Y209167D01*
X37715Y209165D01*
X37733Y209157D01*
X37900Y209139D01*
X103338Y209139D01*
X103358Y209142D01*
G37*
G36*
X242380Y63052D02*
X242380Y63052D01*
X242426Y63050D01*
X242695Y63076D01*
X242969Y63143D01*
X242974Y63146D01*
X242979Y63147D01*
X243475Y63353D01*
X243574Y63411D01*
X243638Y63440D01*
X243672Y63469D01*
X243718Y63496D01*
X243722Y63501D01*
X243727Y63503D01*
X243935Y63674D01*
X243970Y63713D01*
X244008Y63740D01*
X248260Y67992D01*
X248291Y68034D01*
X248326Y68065D01*
X248454Y68222D01*
X248600Y68463D01*
X248602Y68468D01*
X248605Y68473D01*
X248759Y68846D01*
X248829Y69119D01*
X248829Y69125D01*
X248831Y69130D01*
X248850Y69332D01*
X248848Y69385D01*
X248855Y69430D01*
X248855Y86300D01*
X248847Y86361D01*
X248847Y86395D01*
X248847Y86396D01*
X248847Y86428D01*
X248826Y86503D01*
X248815Y86579D01*
X248789Y86638D01*
X248772Y86700D01*
X248731Y86766D01*
X248699Y86836D01*
X248657Y86885D01*
X248624Y86940D01*
X248566Y86992D01*
X248516Y87050D01*
X248462Y87086D01*
X248414Y87129D01*
X248345Y87162D01*
X248280Y87205D01*
X248218Y87224D01*
X248161Y87252D01*
X248091Y87263D01*
X248010Y87287D01*
X247925Y87288D01*
X247856Y87299D01*
X247854Y87299D01*
X243186Y89233D01*
X239613Y92806D01*
X237679Y97474D01*
X237679Y102526D01*
X237761Y102724D01*
X237772Y102765D01*
X237790Y102802D01*
X237803Y102887D01*
X237831Y102997D01*
X237829Y103056D01*
X237837Y103107D01*
X237837Y116380D01*
X237828Y116444D01*
X237829Y116508D01*
X237808Y116583D01*
X237797Y116659D01*
X237771Y116718D01*
X237754Y116780D01*
X237713Y116846D01*
X237681Y116916D01*
X237639Y116965D01*
X237606Y117020D01*
X237548Y117072D01*
X237498Y117130D01*
X237444Y117166D01*
X237396Y117209D01*
X237327Y117242D01*
X237262Y117285D01*
X237200Y117304D01*
X237143Y117332D01*
X237073Y117343D01*
X236992Y117367D01*
X236907Y117368D01*
X236838Y117379D01*
X212040Y117379D01*
X211976Y117370D01*
X211912Y117371D01*
X211837Y117350D01*
X211761Y117339D01*
X211702Y117313D01*
X211640Y117296D01*
X211574Y117255D01*
X211504Y117223D01*
X211455Y117181D01*
X211400Y117148D01*
X211348Y117090D01*
X211290Y117040D01*
X211254Y116986D01*
X211211Y116938D01*
X211178Y116869D01*
X211135Y116804D01*
X211116Y116742D01*
X211088Y116685D01*
X211077Y116615D01*
X211053Y116534D01*
X211052Y116449D01*
X211041Y116380D01*
X211041Y110899D01*
X205500Y110899D01*
X205436Y110890D01*
X205372Y110891D01*
X205298Y110870D01*
X205221Y110859D01*
X205162Y110833D01*
X205100Y110816D01*
X205034Y110775D01*
X204964Y110743D01*
X204915Y110701D01*
X204860Y110668D01*
X204809Y110610D01*
X204750Y110560D01*
X204714Y110506D01*
X204671Y110458D01*
X204638Y110389D01*
X204595Y110324D01*
X204576Y110262D01*
X204548Y110205D01*
X204538Y110135D01*
X204513Y110054D01*
X204512Y109969D01*
X204501Y109900D01*
X204501Y107900D01*
X204510Y107836D01*
X204509Y107772D01*
X204530Y107697D01*
X204541Y107621D01*
X204567Y107562D01*
X204584Y107500D01*
X204625Y107434D01*
X204657Y107364D01*
X204699Y107315D01*
X204732Y107260D01*
X204790Y107208D01*
X204840Y107150D01*
X204894Y107114D01*
X204942Y107071D01*
X205011Y107038D01*
X205076Y106995D01*
X205138Y106976D01*
X205196Y106948D01*
X205265Y106938D01*
X205346Y106913D01*
X205431Y106912D01*
X205500Y106901D01*
X211041Y106901D01*
X211041Y100739D01*
X210949Y100399D01*
X210943Y100345D01*
X210927Y100294D01*
X210926Y100206D01*
X210916Y100119D01*
X210924Y100066D01*
X210924Y100012D01*
X210947Y99927D01*
X210961Y99840D01*
X210985Y99792D01*
X210999Y99740D01*
X211045Y99665D01*
X211083Y99586D01*
X211119Y99546D01*
X211147Y99500D01*
X211212Y99441D01*
X211271Y99376D01*
X211317Y99347D01*
X211356Y99311D01*
X211436Y99273D01*
X211510Y99226D01*
X211562Y99212D01*
X211610Y99188D01*
X211688Y99176D01*
X211782Y99150D01*
X211854Y99150D01*
X211915Y99141D01*
X214735Y99141D01*
X215381Y98968D01*
X215960Y98633D01*
X216433Y98160D01*
X216768Y97581D01*
X216941Y96935D01*
X216941Y91099D01*
X208900Y91099D01*
X208836Y91090D01*
X208772Y91091D01*
X208698Y91070D01*
X208621Y91059D01*
X208562Y91033D01*
X208500Y91016D01*
X208434Y90975D01*
X208364Y90943D01*
X208315Y90901D01*
X208260Y90868D01*
X208209Y90810D01*
X208150Y90760D01*
X208114Y90706D01*
X208071Y90658D01*
X208038Y90589D01*
X207995Y90524D01*
X207976Y90462D01*
X207948Y90405D01*
X207938Y90335D01*
X207913Y90254D01*
X207912Y90169D01*
X207901Y90100D01*
X207901Y89099D01*
X207899Y89099D01*
X207899Y90100D01*
X207890Y90164D01*
X207891Y90228D01*
X207870Y90303D01*
X207859Y90379D01*
X207833Y90438D01*
X207816Y90500D01*
X207775Y90566D01*
X207743Y90636D01*
X207701Y90685D01*
X207668Y90740D01*
X207610Y90792D01*
X207560Y90850D01*
X207506Y90886D01*
X207458Y90929D01*
X207389Y90962D01*
X207324Y91005D01*
X207262Y91024D01*
X207204Y91052D01*
X207135Y91062D01*
X207054Y91087D01*
X206969Y91088D01*
X206900Y91099D01*
X203644Y91099D01*
X203580Y91090D01*
X203516Y91091D01*
X203441Y91070D01*
X203365Y91059D01*
X203306Y91033D01*
X203244Y91016D01*
X203178Y90975D01*
X203108Y90943D01*
X203059Y90901D01*
X203004Y90868D01*
X202952Y90810D01*
X202894Y90760D01*
X202858Y90706D01*
X202815Y90658D01*
X202782Y90589D01*
X202739Y90524D01*
X202720Y90462D01*
X202692Y90405D01*
X202681Y90335D01*
X202657Y90254D01*
X202656Y90169D01*
X202645Y90100D01*
X202645Y88100D01*
X202654Y88036D01*
X202653Y87972D01*
X202674Y87897D01*
X202685Y87821D01*
X202711Y87762D01*
X202728Y87700D01*
X202769Y87634D01*
X202801Y87564D01*
X202843Y87515D01*
X202876Y87460D01*
X202934Y87408D01*
X202984Y87350D01*
X203038Y87314D01*
X203086Y87271D01*
X203155Y87238D01*
X203220Y87195D01*
X203282Y87176D01*
X203339Y87148D01*
X203409Y87138D01*
X203490Y87113D01*
X203575Y87112D01*
X203644Y87101D01*
X205901Y87101D01*
X205901Y69800D01*
X205910Y69736D01*
X205909Y69672D01*
X205930Y69598D01*
X205941Y69521D01*
X205967Y69462D01*
X205984Y69400D01*
X206025Y69334D01*
X206057Y69264D01*
X206099Y69215D01*
X206132Y69160D01*
X206190Y69109D01*
X206240Y69050D01*
X206294Y69014D01*
X206342Y68971D01*
X206411Y68938D01*
X206476Y68895D01*
X206538Y68876D01*
X206595Y68848D01*
X206665Y68838D01*
X206746Y68813D01*
X206831Y68812D01*
X206900Y68801D01*
X207901Y68801D01*
X207901Y67800D01*
X207910Y67736D01*
X207909Y67672D01*
X207930Y67597D01*
X207941Y67521D01*
X207967Y67462D01*
X207984Y67400D01*
X208025Y67334D01*
X208057Y67264D01*
X208099Y67215D01*
X208132Y67160D01*
X208190Y67108D01*
X208240Y67050D01*
X208294Y67014D01*
X208342Y66971D01*
X208411Y66938D01*
X208476Y66895D01*
X208538Y66876D01*
X208596Y66848D01*
X208665Y66838D01*
X208746Y66813D01*
X208831Y66812D01*
X208900Y66801D01*
X216941Y66801D01*
X216941Y64044D01*
X216950Y63980D01*
X216949Y63916D01*
X216970Y63841D01*
X216981Y63765D01*
X217007Y63706D01*
X217024Y63644D01*
X217065Y63578D01*
X217097Y63508D01*
X217138Y63459D01*
X217172Y63404D01*
X217230Y63352D01*
X217280Y63294D01*
X217334Y63258D01*
X217382Y63215D01*
X217451Y63182D01*
X217516Y63139D01*
X217578Y63120D01*
X217635Y63092D01*
X217705Y63081D01*
X217786Y63057D01*
X217871Y63056D01*
X217940Y63045D01*
X242328Y63045D01*
X242380Y63052D01*
G37*
%LPC*%
G36*
X70650Y95819D02*
X70650Y95819D01*
X68709Y96623D01*
X67265Y98067D01*
X67189Y98124D01*
X67117Y98189D01*
X67076Y98209D01*
X67040Y98236D01*
X66950Y98270D01*
X66863Y98312D01*
X66821Y98318D01*
X66776Y98335D01*
X66648Y98345D01*
X66559Y98359D01*
X66499Y98359D01*
X66499Y99658D01*
X66493Y99699D01*
X66496Y99741D01*
X66475Y99825D01*
X66459Y99937D01*
X66435Y99991D01*
X66423Y100040D01*
X66419Y100050D01*
X66419Y107900D01*
X66410Y107964D01*
X66411Y108028D01*
X66390Y108102D01*
X66379Y108179D01*
X66353Y108238D01*
X66336Y108300D01*
X66295Y108366D01*
X66263Y108436D01*
X66221Y108485D01*
X66188Y108540D01*
X66130Y108591D01*
X66080Y108650D01*
X66026Y108686D01*
X65978Y108729D01*
X65909Y108762D01*
X65844Y108805D01*
X65782Y108824D01*
X65725Y108852D01*
X65655Y108862D01*
X65574Y108887D01*
X65489Y108888D01*
X65420Y108899D01*
X64499Y108899D01*
X64499Y108901D01*
X65420Y108901D01*
X65484Y108910D01*
X65548Y108909D01*
X65623Y108930D01*
X65699Y108941D01*
X65758Y108967D01*
X65820Y108984D01*
X65886Y109025D01*
X65956Y109057D01*
X66005Y109099D01*
X66060Y109132D01*
X66112Y109190D01*
X66170Y109240D01*
X66206Y109294D01*
X66249Y109342D01*
X66282Y109411D01*
X66325Y109476D01*
X66344Y109538D01*
X66372Y109596D01*
X66383Y109665D01*
X66407Y109746D01*
X66408Y109831D01*
X66419Y109900D01*
X66419Y117750D01*
X66423Y117760D01*
X66433Y117800D01*
X66452Y117837D01*
X66465Y117923D01*
X66493Y118033D01*
X66491Y118092D01*
X66499Y118142D01*
X66499Y119441D01*
X66559Y119441D01*
X66654Y119454D01*
X66750Y119459D01*
X66793Y119474D01*
X66838Y119481D01*
X66925Y119520D01*
X67016Y119552D01*
X67051Y119577D01*
X67095Y119597D01*
X67192Y119680D01*
X67265Y119733D01*
X68709Y121177D01*
X70650Y121981D01*
X80350Y121981D01*
X82291Y121177D01*
X83735Y119733D01*
X83811Y119676D01*
X83883Y119611D01*
X83924Y119591D01*
X83960Y119564D01*
X84050Y119530D01*
X84137Y119488D01*
X84179Y119482D01*
X84224Y119465D01*
X84352Y119455D01*
X84441Y119441D01*
X84501Y119441D01*
X84501Y118142D01*
X84507Y118101D01*
X84504Y118059D01*
X84525Y117975D01*
X84541Y117863D01*
X84565Y117809D01*
X84577Y117760D01*
X84581Y117750D01*
X84581Y109900D01*
X84590Y109836D01*
X84589Y109772D01*
X84610Y109698D01*
X84621Y109621D01*
X84647Y109562D01*
X84664Y109500D01*
X84705Y109434D01*
X84737Y109364D01*
X84779Y109315D01*
X84812Y109260D01*
X84870Y109209D01*
X84920Y109150D01*
X84974Y109114D01*
X85022Y109071D01*
X85091Y109038D01*
X85156Y108995D01*
X85218Y108976D01*
X85275Y108948D01*
X85345Y108938D01*
X85426Y108913D01*
X85511Y108912D01*
X85580Y108901D01*
X87420Y108901D01*
X87484Y108910D01*
X87548Y108909D01*
X87623Y108930D01*
X87699Y108941D01*
X87758Y108967D01*
X87820Y108984D01*
X87886Y109025D01*
X87956Y109057D01*
X88005Y109099D01*
X88060Y109132D01*
X88112Y109190D01*
X88170Y109240D01*
X88206Y109294D01*
X88249Y109342D01*
X88282Y109411D01*
X88325Y109476D01*
X88344Y109538D01*
X88372Y109596D01*
X88383Y109665D01*
X88407Y109746D01*
X88408Y109831D01*
X88419Y109900D01*
X88419Y117750D01*
X88423Y117760D01*
X88433Y117800D01*
X88452Y117837D01*
X88465Y117923D01*
X88493Y118033D01*
X88491Y118092D01*
X88499Y118142D01*
X88499Y119441D01*
X88559Y119441D01*
X88654Y119454D01*
X88750Y119459D01*
X88793Y119474D01*
X88838Y119481D01*
X88925Y119520D01*
X89016Y119552D01*
X89051Y119577D01*
X89095Y119597D01*
X89192Y119680D01*
X89265Y119733D01*
X90709Y121177D01*
X92650Y121981D01*
X102350Y121981D01*
X104291Y121177D01*
X105735Y119733D01*
X105811Y119676D01*
X105883Y119611D01*
X105924Y119591D01*
X105960Y119564D01*
X106050Y119530D01*
X106137Y119488D01*
X106179Y119482D01*
X106224Y119465D01*
X106352Y119455D01*
X106441Y119441D01*
X106501Y119441D01*
X106501Y118142D01*
X106507Y118101D01*
X106504Y118059D01*
X106525Y117975D01*
X106541Y117863D01*
X106565Y117809D01*
X106577Y117760D01*
X106581Y117750D01*
X106581Y109900D01*
X106590Y109836D01*
X106589Y109772D01*
X106610Y109698D01*
X106621Y109621D01*
X106647Y109562D01*
X106664Y109500D01*
X106705Y109434D01*
X106737Y109364D01*
X106779Y109315D01*
X106812Y109260D01*
X106870Y109209D01*
X106920Y109150D01*
X106974Y109114D01*
X107022Y109071D01*
X107091Y109038D01*
X107156Y108995D01*
X107218Y108976D01*
X107275Y108948D01*
X107345Y108938D01*
X107426Y108913D01*
X107511Y108912D01*
X107580Y108901D01*
X108501Y108901D01*
X108501Y108899D01*
X107580Y108899D01*
X107516Y108890D01*
X107452Y108891D01*
X107377Y108870D01*
X107301Y108859D01*
X107242Y108833D01*
X107180Y108816D01*
X107114Y108775D01*
X107044Y108743D01*
X106995Y108701D01*
X106940Y108668D01*
X106888Y108610D01*
X106830Y108560D01*
X106794Y108506D01*
X106751Y108458D01*
X106718Y108389D01*
X106675Y108324D01*
X106656Y108262D01*
X106628Y108204D01*
X106617Y108135D01*
X106593Y108054D01*
X106592Y107969D01*
X106581Y107900D01*
X106581Y100050D01*
X106577Y100040D01*
X106566Y100000D01*
X106548Y99962D01*
X106535Y99877D01*
X106507Y99767D01*
X106509Y99708D01*
X106501Y99658D01*
X106501Y98359D01*
X106441Y98359D01*
X106346Y98346D01*
X106250Y98341D01*
X106207Y98326D01*
X106162Y98319D01*
X106075Y98280D01*
X105984Y98248D01*
X105949Y98223D01*
X105905Y98203D01*
X105808Y98120D01*
X105735Y98067D01*
X104291Y96623D01*
X102350Y95819D01*
X92650Y95819D01*
X90709Y96623D01*
X89265Y98067D01*
X89189Y98124D01*
X89117Y98189D01*
X89076Y98209D01*
X89040Y98236D01*
X88950Y98270D01*
X88863Y98312D01*
X88821Y98318D01*
X88776Y98335D01*
X88648Y98345D01*
X88559Y98359D01*
X88499Y98359D01*
X88499Y99658D01*
X88493Y99699D01*
X88496Y99741D01*
X88475Y99825D01*
X88459Y99937D01*
X88435Y99991D01*
X88423Y100040D01*
X88419Y100050D01*
X88419Y107900D01*
X88410Y107964D01*
X88411Y108028D01*
X88390Y108102D01*
X88379Y108179D01*
X88353Y108238D01*
X88336Y108300D01*
X88295Y108366D01*
X88263Y108436D01*
X88221Y108485D01*
X88188Y108540D01*
X88130Y108591D01*
X88080Y108650D01*
X88026Y108686D01*
X87978Y108729D01*
X87909Y108762D01*
X87844Y108805D01*
X87782Y108824D01*
X87725Y108852D01*
X87655Y108862D01*
X87574Y108887D01*
X87489Y108888D01*
X87420Y108899D01*
X85580Y108899D01*
X85516Y108890D01*
X85452Y108891D01*
X85377Y108870D01*
X85301Y108859D01*
X85242Y108833D01*
X85180Y108816D01*
X85114Y108775D01*
X85044Y108743D01*
X84995Y108701D01*
X84940Y108668D01*
X84888Y108610D01*
X84830Y108560D01*
X84794Y108506D01*
X84751Y108458D01*
X84718Y108389D01*
X84675Y108324D01*
X84656Y108262D01*
X84628Y108204D01*
X84617Y108135D01*
X84593Y108054D01*
X84592Y107969D01*
X84581Y107900D01*
X84581Y100050D01*
X84577Y100040D01*
X84566Y100000D01*
X84548Y99962D01*
X84535Y99877D01*
X84507Y99767D01*
X84509Y99708D01*
X84501Y99658D01*
X84501Y98359D01*
X84441Y98359D01*
X84346Y98346D01*
X84250Y98341D01*
X84207Y98326D01*
X84162Y98319D01*
X84075Y98280D01*
X83984Y98248D01*
X83949Y98223D01*
X83905Y98203D01*
X83808Y98120D01*
X83735Y98067D01*
X82291Y96623D01*
X80350Y95819D01*
X70650Y95819D01*
G37*
%LPD*%
G36*
X236902Y132630D02*
X236902Y132630D01*
X236966Y132629D01*
X237041Y132650D01*
X237117Y132661D01*
X237176Y132687D01*
X237238Y132704D01*
X237304Y132745D01*
X237374Y132777D01*
X237423Y132819D01*
X237478Y132852D01*
X237530Y132910D01*
X237588Y132960D01*
X237624Y133014D01*
X237667Y133062D01*
X237700Y133131D01*
X237743Y133196D01*
X237762Y133258D01*
X237790Y133315D01*
X237801Y133385D01*
X237825Y133466D01*
X237826Y133551D01*
X237837Y133620D01*
X237837Y141380D01*
X237828Y141444D01*
X237829Y141508D01*
X237808Y141583D01*
X237797Y141659D01*
X237771Y141718D01*
X237754Y141780D01*
X237713Y141846D01*
X237681Y141916D01*
X237639Y141965D01*
X237606Y142020D01*
X237548Y142072D01*
X237498Y142130D01*
X237444Y142166D01*
X237396Y142209D01*
X237327Y142242D01*
X237262Y142285D01*
X237200Y142304D01*
X237143Y142332D01*
X237073Y142343D01*
X236992Y142367D01*
X236907Y142368D01*
X236838Y142379D01*
X180370Y142379D01*
X180328Y142373D01*
X180292Y142376D01*
X178841Y142262D01*
X178807Y142255D01*
X178773Y142254D01*
X178687Y142228D01*
X178566Y142200D01*
X178521Y142176D01*
X178479Y142163D01*
X177117Y141494D01*
X177009Y141420D01*
X176901Y141350D01*
X176894Y141342D01*
X176884Y141335D01*
X176704Y141117D01*
X176703Y141115D01*
X176702Y141114D01*
X175469Y139075D01*
X175418Y138955D01*
X175364Y138837D01*
X175363Y138826D01*
X175358Y138815D01*
X175325Y138535D01*
X175325Y138533D01*
X175325Y138532D01*
X175387Y136149D01*
X175393Y136110D01*
X175393Y136102D01*
X175397Y136087D01*
X175408Y136022D01*
X175427Y135893D01*
X175432Y135883D01*
X175434Y135871D01*
X175556Y135617D01*
X175558Y135616D01*
X175558Y135614D01*
X176896Y133642D01*
X176924Y133611D01*
X176936Y133591D01*
X176969Y133562D01*
X176983Y133546D01*
X177069Y133448D01*
X177078Y133442D01*
X177086Y133433D01*
X177326Y133286D01*
X177328Y133285D01*
X177330Y133284D01*
X178690Y132701D01*
X178736Y132689D01*
X178779Y132668D01*
X178861Y132656D01*
X178963Y132628D01*
X179028Y132629D01*
X179084Y132621D01*
X236838Y132621D01*
X236902Y132630D01*
G37*
%LPC*%
G36*
X209899Y70799D02*
X209899Y70799D01*
X209899Y87101D01*
X216941Y87101D01*
X216941Y81265D01*
X216768Y80619D01*
X216433Y80040D01*
X216050Y79657D01*
X216011Y79605D01*
X215965Y79560D01*
X215927Y79493D01*
X215880Y79431D01*
X215858Y79371D01*
X215826Y79315D01*
X215808Y79240D01*
X215781Y79167D01*
X215776Y79103D01*
X215761Y79041D01*
X215765Y78963D01*
X215759Y78886D01*
X215772Y78823D01*
X215775Y78759D01*
X215801Y78686D01*
X215817Y78610D01*
X215847Y78553D01*
X215868Y78492D01*
X215909Y78436D01*
X215949Y78361D01*
X216008Y78300D01*
X216050Y78243D01*
X216433Y77860D01*
X216768Y77281D01*
X216941Y76635D01*
X216941Y70799D01*
X209899Y70799D01*
G37*
%LPD*%
%LPC*%
G36*
X62273Y277823D02*
X62273Y277823D01*
X62273Y289841D01*
X66107Y289841D01*
X66751Y289668D01*
X66870Y289656D01*
X66987Y289643D01*
X66992Y289644D01*
X66996Y289644D01*
X67111Y289670D01*
X67228Y289695D01*
X67231Y289698D01*
X67235Y289698D01*
X67336Y289760D01*
X67364Y289777D01*
X73977Y289777D01*
X73977Y283759D01*
X70133Y283759D01*
X69499Y283929D01*
X69380Y283941D01*
X69263Y283954D01*
X69258Y283953D01*
X69254Y283953D01*
X69139Y283927D01*
X69022Y283902D01*
X69019Y283900D01*
X69015Y283899D01*
X68914Y283837D01*
X68811Y283776D01*
X68808Y283772D01*
X68805Y283770D01*
X68729Y283679D01*
X68651Y283589D01*
X68650Y283585D01*
X68647Y283582D01*
X68604Y283471D01*
X68559Y283360D01*
X68559Y283355D01*
X68557Y283352D01*
X68557Y283339D01*
X68541Y283194D01*
X68541Y277823D01*
X62273Y277823D01*
G37*
%LPD*%
%LPC*%
G36*
X82459Y277823D02*
X82459Y277823D01*
X82459Y283194D01*
X82440Y283310D01*
X82422Y283429D01*
X82420Y283432D01*
X82420Y283436D01*
X82365Y283540D01*
X82309Y283647D01*
X82306Y283650D01*
X82304Y283654D01*
X82219Y283735D01*
X82133Y283819D01*
X82129Y283820D01*
X82126Y283823D01*
X82019Y283873D01*
X81911Y283925D01*
X81907Y283925D01*
X81903Y283927D01*
X81787Y283940D01*
X81667Y283954D01*
X81662Y283954D01*
X81659Y283954D01*
X81645Y283951D01*
X81501Y283929D01*
X80867Y283759D01*
X77023Y283759D01*
X77023Y289777D01*
X83621Y289777D01*
X83624Y289774D01*
X83731Y289724D01*
X83839Y289672D01*
X83843Y289672D01*
X83847Y289670D01*
X83963Y289657D01*
X84083Y289643D01*
X84088Y289643D01*
X84091Y289643D01*
X84105Y289646D01*
X84249Y289668D01*
X84893Y289841D01*
X88727Y289841D01*
X88727Y277823D01*
X82459Y277823D01*
G37*
%LPD*%
%LPC*%
G36*
X259999Y176999D02*
X259999Y176999D01*
X259999Y185161D01*
X266420Y185161D01*
X267999Y184911D01*
X269520Y184416D01*
X270945Y183690D01*
X272239Y182750D01*
X273370Y181619D01*
X274310Y180325D01*
X275036Y178900D01*
X275531Y177379D01*
X275591Y176999D01*
X259999Y176999D01*
G37*
%LPD*%
%LPC*%
G36*
X240409Y176999D02*
X240409Y176999D01*
X240469Y177379D01*
X240964Y178900D01*
X241690Y180325D01*
X242630Y181619D01*
X243761Y182750D01*
X245055Y183690D01*
X246480Y184416D01*
X248001Y184911D01*
X249580Y185161D01*
X256001Y185161D01*
X256001Y176999D01*
X240409Y176999D01*
G37*
%LPD*%
%LPC*%
G36*
X259999Y164839D02*
X259999Y164839D01*
X259999Y173001D01*
X275591Y173001D01*
X275531Y172621D01*
X275036Y171100D01*
X274310Y169675D01*
X273370Y168381D01*
X272239Y167250D01*
X270945Y166310D01*
X269520Y165584D01*
X267999Y165089D01*
X266420Y164839D01*
X259999Y164839D01*
G37*
%LPD*%
%LPC*%
G36*
X249580Y164839D02*
X249580Y164839D01*
X248001Y165089D01*
X246480Y165584D01*
X245055Y166310D01*
X243761Y167250D01*
X242630Y168381D01*
X241690Y169675D01*
X240964Y171100D01*
X240469Y172621D01*
X240409Y173001D01*
X256001Y173001D01*
X256001Y164839D01*
X249580Y164839D01*
G37*
%LPD*%
%LPC*%
G36*
X91773Y277823D02*
X91773Y277823D01*
X91773Y289841D01*
X95607Y289841D01*
X96320Y289650D01*
X96959Y289281D01*
X97481Y288759D01*
X97850Y288120D01*
X98041Y287407D01*
X98041Y277823D01*
X91773Y277823D01*
G37*
%LPD*%
%LPC*%
G36*
X91773Y274777D02*
X91773Y274777D01*
X98041Y274777D01*
X98041Y265193D01*
X97850Y264480D01*
X97481Y263841D01*
X96959Y263319D01*
X96320Y262950D01*
X95607Y262759D01*
X91773Y262759D01*
X91773Y274777D01*
G37*
%LPD*%
%LPC*%
G36*
X52959Y277823D02*
X52959Y277823D01*
X52959Y287407D01*
X53150Y288120D01*
X53519Y288759D01*
X54041Y289281D01*
X54680Y289650D01*
X55393Y289841D01*
X59227Y289841D01*
X59227Y277823D01*
X52959Y277823D01*
G37*
%LPD*%
%LPC*%
G36*
X55393Y262759D02*
X55393Y262759D01*
X54680Y262950D01*
X54041Y263319D01*
X53519Y263841D01*
X53150Y264480D01*
X52959Y265193D01*
X52959Y274777D01*
X59227Y274777D01*
X59227Y262759D01*
X55393Y262759D01*
G37*
%LPD*%
%LPC*%
G36*
X151499Y232899D02*
X151499Y232899D01*
X151499Y241441D01*
X153661Y241441D01*
X154358Y241254D01*
X154500Y241172D01*
X154580Y241140D01*
X154655Y241099D01*
X154710Y241087D01*
X154762Y241067D01*
X154847Y241058D01*
X154931Y241040D01*
X154987Y241044D01*
X155043Y241039D01*
X155127Y241054D01*
X155212Y241061D01*
X155261Y241079D01*
X155320Y241090D01*
X155420Y241141D01*
X155500Y241172D01*
X155642Y241254D01*
X156339Y241441D01*
X158501Y241441D01*
X158501Y232899D01*
X151499Y232899D01*
G37*
%LPD*%
%LPC*%
G36*
X162499Y232899D02*
X162499Y232899D01*
X162499Y241441D01*
X164661Y241441D01*
X165358Y241254D01*
X165500Y241172D01*
X165580Y241140D01*
X165655Y241099D01*
X165710Y241087D01*
X165762Y241067D01*
X165847Y241058D01*
X165931Y241040D01*
X165987Y241044D01*
X166043Y241039D01*
X166127Y241054D01*
X166212Y241061D01*
X166261Y241079D01*
X166320Y241090D01*
X166420Y241141D01*
X166500Y241172D01*
X166642Y241254D01*
X167339Y241441D01*
X169501Y241441D01*
X169501Y232899D01*
X162499Y232899D01*
G37*
%LPD*%
%LPC*%
G36*
X140499Y232899D02*
X140499Y232899D01*
X140499Y241441D01*
X142661Y241441D01*
X143358Y241254D01*
X143500Y241172D01*
X143580Y241140D01*
X143655Y241099D01*
X143710Y241087D01*
X143762Y241067D01*
X143847Y241058D01*
X143931Y241040D01*
X143987Y241044D01*
X144043Y241039D01*
X144127Y241054D01*
X144212Y241061D01*
X144261Y241079D01*
X144320Y241090D01*
X144420Y241141D01*
X144500Y241172D01*
X144642Y241254D01*
X145339Y241441D01*
X147501Y241441D01*
X147501Y232899D01*
X140499Y232899D01*
G37*
%LPD*%
%LPC*%
G36*
X140499Y220359D02*
X140499Y220359D01*
X140499Y228901D01*
X147501Y228901D01*
X147501Y220359D01*
X145339Y220359D01*
X144642Y220546D01*
X144500Y220628D01*
X144420Y220660D01*
X144345Y220701D01*
X144290Y220713D01*
X144238Y220733D01*
X144153Y220742D01*
X144069Y220760D01*
X144013Y220756D01*
X143957Y220761D01*
X143873Y220746D01*
X143788Y220739D01*
X143739Y220721D01*
X143680Y220710D01*
X143580Y220659D01*
X143500Y220628D01*
X143358Y220546D01*
X142661Y220359D01*
X140499Y220359D01*
G37*
%LPD*%
%LPC*%
G36*
X162499Y220359D02*
X162499Y220359D01*
X162499Y228901D01*
X169501Y228901D01*
X169501Y220359D01*
X167339Y220359D01*
X166642Y220546D01*
X166500Y220628D01*
X166420Y220660D01*
X166345Y220701D01*
X166290Y220713D01*
X166238Y220733D01*
X166153Y220742D01*
X166069Y220760D01*
X166013Y220756D01*
X165957Y220761D01*
X165873Y220746D01*
X165788Y220739D01*
X165739Y220721D01*
X165680Y220710D01*
X165580Y220659D01*
X165500Y220628D01*
X165358Y220546D01*
X164661Y220359D01*
X162499Y220359D01*
G37*
%LPD*%
%LPC*%
G36*
X151499Y220359D02*
X151499Y220359D01*
X151499Y228901D01*
X158501Y228901D01*
X158501Y220359D01*
X156339Y220359D01*
X155642Y220546D01*
X155500Y220628D01*
X155420Y220660D01*
X155345Y220701D01*
X155290Y220713D01*
X155238Y220733D01*
X155153Y220742D01*
X155069Y220760D01*
X155013Y220756D01*
X154957Y220761D01*
X154873Y220746D01*
X154788Y220739D01*
X154739Y220721D01*
X154680Y220710D01*
X154580Y220659D01*
X154500Y220628D01*
X154358Y220546D01*
X153661Y220359D01*
X151499Y220359D01*
G37*
%LPD*%
%LPC*%
G36*
X57959Y232423D02*
X57959Y232423D01*
X57959Y239061D01*
X58146Y239758D01*
X58507Y240383D01*
X59017Y240893D01*
X59642Y241254D01*
X60339Y241441D01*
X62977Y241441D01*
X62977Y232423D01*
X57959Y232423D01*
G37*
%LPD*%
%LPC*%
G36*
X60339Y220359D02*
X60339Y220359D01*
X59642Y220546D01*
X59017Y220907D01*
X58507Y221417D01*
X58146Y222042D01*
X57959Y222739D01*
X57959Y229377D01*
X62977Y229377D01*
X62977Y220359D01*
X60339Y220359D01*
G37*
%LPD*%
%LPC*%
G36*
X110499Y110899D02*
X110499Y110899D01*
X110499Y119441D01*
X112661Y119441D01*
X113358Y119254D01*
X113983Y118893D01*
X114493Y118383D01*
X114854Y117758D01*
X115041Y117061D01*
X115041Y110899D01*
X110499Y110899D01*
G37*
%LPD*%
%LPC*%
G36*
X110499Y98359D02*
X110499Y98359D01*
X110499Y106901D01*
X115041Y106901D01*
X115041Y100739D01*
X114854Y100042D01*
X114493Y99417D01*
X113983Y98907D01*
X113358Y98546D01*
X112661Y98359D01*
X110499Y98359D01*
G37*
%LPD*%
%LPC*%
G36*
X57959Y110899D02*
X57959Y110899D01*
X57959Y117061D01*
X58146Y117758D01*
X58507Y118383D01*
X59017Y118893D01*
X59642Y119254D01*
X60339Y119441D01*
X62501Y119441D01*
X62501Y110899D01*
X57959Y110899D01*
G37*
%LPD*%
%LPC*%
G36*
X131959Y232899D02*
X131959Y232899D01*
X131959Y239061D01*
X132146Y239758D01*
X132507Y240383D01*
X133017Y240893D01*
X133642Y241254D01*
X134339Y241441D01*
X136501Y241441D01*
X136501Y232899D01*
X131959Y232899D01*
G37*
%LPD*%
%LPC*%
G36*
X134339Y220359D02*
X134339Y220359D01*
X133642Y220546D01*
X133017Y220907D01*
X132507Y221417D01*
X132146Y222042D01*
X131959Y222739D01*
X131959Y228901D01*
X136501Y228901D01*
X136501Y220359D01*
X134339Y220359D01*
G37*
%LPD*%
%LPC*%
G36*
X60339Y98359D02*
X60339Y98359D01*
X59642Y98546D01*
X59017Y98907D01*
X58507Y99417D01*
X58146Y100042D01*
X57959Y100739D01*
X57959Y106901D01*
X62501Y106901D01*
X62501Y98359D01*
X60339Y98359D01*
G37*
%LPD*%
%LPC*%
G36*
X77023Y292823D02*
X77023Y292823D01*
X77023Y298841D01*
X80867Y298841D01*
X81577Y298651D01*
X82214Y298283D01*
X82733Y297764D01*
X83101Y297127D01*
X83291Y296417D01*
X83291Y292823D01*
X77023Y292823D01*
G37*
%LPD*%
%LPC*%
G36*
X67709Y292823D02*
X67709Y292823D01*
X67709Y296417D01*
X67899Y297127D01*
X68267Y297764D01*
X68786Y298283D01*
X69423Y298651D01*
X70133Y298841D01*
X73977Y298841D01*
X73977Y292823D01*
X67709Y292823D01*
G37*
%LPD*%
%LPC*%
G36*
X257999Y174999D02*
X257999Y174999D01*
X257999Y175001D01*
X258001Y175001D01*
X258001Y174999D01*
X257999Y174999D01*
G37*
%LPD*%
%LPC*%
G36*
X75499Y291299D02*
X75499Y291299D01*
X75499Y291301D01*
X75501Y291301D01*
X75501Y291299D01*
X75499Y291299D01*
G37*
%LPD*%
%LPC*%
G36*
X160499Y230899D02*
X160499Y230899D01*
X160499Y230901D01*
X160501Y230901D01*
X160501Y230899D01*
X160499Y230899D01*
G37*
%LPD*%
%LPC*%
G36*
X90249Y276299D02*
X90249Y276299D01*
X90249Y276301D01*
X90251Y276301D01*
X90251Y276299D01*
X90249Y276299D01*
G37*
%LPD*%
%LPC*%
G36*
X60749Y276299D02*
X60749Y276299D01*
X60749Y276301D01*
X60751Y276301D01*
X60751Y276299D01*
X60749Y276299D01*
G37*
%LPD*%
%LPC*%
G36*
X138499Y230899D02*
X138499Y230899D01*
X138499Y230901D01*
X138501Y230901D01*
X138501Y230899D01*
X138499Y230899D01*
G37*
%LPD*%
%LPC*%
G36*
X149499Y230899D02*
X149499Y230899D01*
X149499Y230901D01*
X149501Y230901D01*
X149501Y230899D01*
X149499Y230899D01*
G37*
%LPD*%
D10*
X208300Y116700D02*
X208300Y101100D01*
X200700Y101100D01*
X200700Y116700D01*
X208300Y116700D01*
X208300Y101480D02*
X200700Y101480D01*
X200700Y101860D02*
X208300Y101860D01*
X208300Y102240D02*
X200700Y102240D01*
X200700Y102620D02*
X208300Y102620D01*
X208300Y103000D02*
X200700Y103000D01*
X200700Y103380D02*
X208300Y103380D01*
X208300Y103760D02*
X200700Y103760D01*
X200700Y104140D02*
X208300Y104140D01*
X208300Y104520D02*
X200700Y104520D01*
X200700Y104900D02*
X208300Y104900D01*
X208300Y105280D02*
X200700Y105280D01*
X200700Y105660D02*
X208300Y105660D01*
X208300Y106040D02*
X200700Y106040D01*
X200700Y106420D02*
X208300Y106420D01*
X208300Y106800D02*
X200700Y106800D01*
X200700Y107180D02*
X208300Y107180D01*
X208300Y107560D02*
X200700Y107560D01*
X200700Y107940D02*
X208300Y107940D01*
X208300Y108320D02*
X200700Y108320D01*
X200700Y108700D02*
X208300Y108700D01*
X208300Y109080D02*
X200700Y109080D01*
X200700Y109460D02*
X208300Y109460D01*
X208300Y109840D02*
X200700Y109840D01*
X200700Y110220D02*
X208300Y110220D01*
X208300Y110600D02*
X200700Y110600D01*
X200700Y110980D02*
X208300Y110980D01*
X208300Y111360D02*
X200700Y111360D01*
X200700Y111740D02*
X208300Y111740D01*
X208300Y112120D02*
X200700Y112120D01*
X200700Y112500D02*
X208300Y112500D01*
X208300Y112880D02*
X200700Y112880D01*
X200700Y113260D02*
X208300Y113260D01*
X208300Y113640D02*
X200700Y113640D01*
X200700Y114020D02*
X208300Y114020D01*
X208300Y114400D02*
X200700Y114400D01*
X200700Y114780D02*
X208300Y114780D01*
X208300Y115160D02*
X200700Y115160D01*
X200700Y115540D02*
X208300Y115540D01*
X208300Y115920D02*
X200700Y115920D01*
X200700Y116300D02*
X208300Y116300D01*
X208300Y116680D02*
X200700Y116680D01*
X197300Y116700D02*
X197300Y101100D01*
X189700Y101100D01*
X189700Y116700D01*
X197300Y116700D01*
X197300Y101480D02*
X189700Y101480D01*
X189700Y101860D02*
X197300Y101860D01*
X197300Y102240D02*
X189700Y102240D01*
X189700Y102620D02*
X197300Y102620D01*
X197300Y103000D02*
X189700Y103000D01*
X189700Y103380D02*
X197300Y103380D01*
X197300Y103760D02*
X189700Y103760D01*
X189700Y104140D02*
X197300Y104140D01*
X197300Y104520D02*
X189700Y104520D01*
X189700Y104900D02*
X197300Y104900D01*
X197300Y105280D02*
X189700Y105280D01*
X189700Y105660D02*
X197300Y105660D01*
X197300Y106040D02*
X189700Y106040D01*
X189700Y106420D02*
X197300Y106420D01*
X197300Y106800D02*
X189700Y106800D01*
X189700Y107180D02*
X197300Y107180D01*
X197300Y107560D02*
X189700Y107560D01*
X189700Y107940D02*
X197300Y107940D01*
X197300Y108320D02*
X189700Y108320D01*
X189700Y108700D02*
X197300Y108700D01*
X197300Y109080D02*
X189700Y109080D01*
X189700Y109460D02*
X197300Y109460D01*
X197300Y109840D02*
X189700Y109840D01*
X189700Y110220D02*
X197300Y110220D01*
X197300Y110600D02*
X189700Y110600D01*
X189700Y110980D02*
X197300Y110980D01*
X197300Y111360D02*
X189700Y111360D01*
X189700Y111740D02*
X197300Y111740D01*
X197300Y112120D02*
X189700Y112120D01*
X189700Y112500D02*
X197300Y112500D01*
X197300Y112880D02*
X189700Y112880D01*
X189700Y113260D02*
X197300Y113260D01*
X197300Y113640D02*
X189700Y113640D01*
X189700Y114020D02*
X197300Y114020D01*
X197300Y114400D02*
X189700Y114400D01*
X189700Y114780D02*
X197300Y114780D01*
X197300Y115160D02*
X189700Y115160D01*
X189700Y115540D02*
X197300Y115540D01*
X197300Y115920D02*
X189700Y115920D01*
X189700Y116300D02*
X197300Y116300D01*
X197300Y116680D02*
X189700Y116680D01*
X186300Y116700D02*
X186300Y101100D01*
X178700Y101100D01*
X178700Y116700D01*
X186300Y116700D01*
X186300Y101480D02*
X178700Y101480D01*
X178700Y101860D02*
X186300Y101860D01*
X186300Y102240D02*
X178700Y102240D01*
X178700Y102620D02*
X186300Y102620D01*
X186300Y103000D02*
X178700Y103000D01*
X178700Y103380D02*
X186300Y103380D01*
X186300Y103760D02*
X178700Y103760D01*
X178700Y104140D02*
X186300Y104140D01*
X186300Y104520D02*
X178700Y104520D01*
X178700Y104900D02*
X186300Y104900D01*
X186300Y105280D02*
X178700Y105280D01*
X178700Y105660D02*
X186300Y105660D01*
X186300Y106040D02*
X178700Y106040D01*
X178700Y106420D02*
X186300Y106420D01*
X186300Y106800D02*
X178700Y106800D01*
X178700Y107180D02*
X186300Y107180D01*
X186300Y107560D02*
X178700Y107560D01*
X178700Y107940D02*
X186300Y107940D01*
X186300Y108320D02*
X178700Y108320D01*
X178700Y108700D02*
X186300Y108700D01*
X186300Y109080D02*
X178700Y109080D01*
X178700Y109460D02*
X186300Y109460D01*
X186300Y109840D02*
X178700Y109840D01*
X178700Y110220D02*
X186300Y110220D01*
X186300Y110600D02*
X178700Y110600D01*
X178700Y110980D02*
X186300Y110980D01*
X186300Y111360D02*
X178700Y111360D01*
X178700Y111740D02*
X186300Y111740D01*
X186300Y112120D02*
X178700Y112120D01*
X178700Y112500D02*
X186300Y112500D01*
X186300Y112880D02*
X178700Y112880D01*
X178700Y113260D02*
X186300Y113260D01*
X186300Y113640D02*
X178700Y113640D01*
X178700Y114020D02*
X186300Y114020D01*
X186300Y114400D02*
X178700Y114400D01*
X178700Y114780D02*
X186300Y114780D01*
X186300Y115160D02*
X178700Y115160D01*
X178700Y115540D02*
X186300Y115540D01*
X186300Y115920D02*
X178700Y115920D01*
X178700Y116300D02*
X186300Y116300D01*
X186300Y116680D02*
X178700Y116680D01*
X175300Y116700D02*
X175300Y101100D01*
X167700Y101100D01*
X167700Y116700D01*
X175300Y116700D01*
X175300Y101480D02*
X167700Y101480D01*
X167700Y101860D02*
X175300Y101860D01*
X175300Y102240D02*
X167700Y102240D01*
X167700Y102620D02*
X175300Y102620D01*
X175300Y103000D02*
X167700Y103000D01*
X167700Y103380D02*
X175300Y103380D01*
X175300Y103760D02*
X167700Y103760D01*
X167700Y104140D02*
X175300Y104140D01*
X175300Y104520D02*
X167700Y104520D01*
X167700Y104900D02*
X175300Y104900D01*
X175300Y105280D02*
X167700Y105280D01*
X167700Y105660D02*
X175300Y105660D01*
X175300Y106040D02*
X167700Y106040D01*
X167700Y106420D02*
X175300Y106420D01*
X175300Y106800D02*
X167700Y106800D01*
X167700Y107180D02*
X175300Y107180D01*
X175300Y107560D02*
X167700Y107560D01*
X167700Y107940D02*
X175300Y107940D01*
X175300Y108320D02*
X167700Y108320D01*
X167700Y108700D02*
X175300Y108700D01*
X175300Y109080D02*
X167700Y109080D01*
X167700Y109460D02*
X175300Y109460D01*
X175300Y109840D02*
X167700Y109840D01*
X167700Y110220D02*
X175300Y110220D01*
X175300Y110600D02*
X167700Y110600D01*
X167700Y110980D02*
X175300Y110980D01*
X175300Y111360D02*
X167700Y111360D01*
X167700Y111740D02*
X175300Y111740D01*
X175300Y112120D02*
X167700Y112120D01*
X167700Y112500D02*
X175300Y112500D01*
X175300Y112880D02*
X167700Y112880D01*
X167700Y113260D02*
X175300Y113260D01*
X175300Y113640D02*
X167700Y113640D01*
X167700Y114020D02*
X175300Y114020D01*
X175300Y114400D02*
X167700Y114400D01*
X167700Y114780D02*
X175300Y114780D01*
X175300Y115160D02*
X167700Y115160D01*
X167700Y115540D02*
X175300Y115540D01*
X175300Y115920D02*
X167700Y115920D01*
X167700Y116300D02*
X175300Y116300D01*
X175300Y116680D02*
X167700Y116680D01*
X164300Y116700D02*
X164300Y101100D01*
X156700Y101100D01*
X156700Y116700D01*
X164300Y116700D01*
X164300Y101480D02*
X156700Y101480D01*
X156700Y101860D02*
X164300Y101860D01*
X164300Y102240D02*
X156700Y102240D01*
X156700Y102620D02*
X164300Y102620D01*
X164300Y103000D02*
X156700Y103000D01*
X156700Y103380D02*
X164300Y103380D01*
X164300Y103760D02*
X156700Y103760D01*
X156700Y104140D02*
X164300Y104140D01*
X164300Y104520D02*
X156700Y104520D01*
X156700Y104900D02*
X164300Y104900D01*
X164300Y105280D02*
X156700Y105280D01*
X156700Y105660D02*
X164300Y105660D01*
X164300Y106040D02*
X156700Y106040D01*
X156700Y106420D02*
X164300Y106420D01*
X164300Y106800D02*
X156700Y106800D01*
X156700Y107180D02*
X164300Y107180D01*
X164300Y107560D02*
X156700Y107560D01*
X156700Y107940D02*
X164300Y107940D01*
X164300Y108320D02*
X156700Y108320D01*
X156700Y108700D02*
X164300Y108700D01*
X164300Y109080D02*
X156700Y109080D01*
X156700Y109460D02*
X164300Y109460D01*
X164300Y109840D02*
X156700Y109840D01*
X156700Y110220D02*
X164300Y110220D01*
X164300Y110600D02*
X156700Y110600D01*
X156700Y110980D02*
X164300Y110980D01*
X164300Y111360D02*
X156700Y111360D01*
X156700Y111740D02*
X164300Y111740D01*
X164300Y112120D02*
X156700Y112120D01*
X156700Y112500D02*
X164300Y112500D01*
X164300Y112880D02*
X156700Y112880D01*
X156700Y113260D02*
X164300Y113260D01*
X164300Y113640D02*
X156700Y113640D01*
X156700Y114020D02*
X164300Y114020D01*
X164300Y114400D02*
X156700Y114400D01*
X156700Y114780D02*
X164300Y114780D01*
X164300Y115160D02*
X156700Y115160D01*
X156700Y115540D02*
X164300Y115540D01*
X164300Y115920D02*
X156700Y115920D01*
X156700Y116300D02*
X164300Y116300D01*
X164300Y116680D02*
X156700Y116680D01*
X153300Y116700D02*
X153300Y101100D01*
X145700Y101100D01*
X145700Y116700D01*
X153300Y116700D01*
X153300Y101480D02*
X145700Y101480D01*
X145700Y101860D02*
X153300Y101860D01*
X153300Y102240D02*
X145700Y102240D01*
X145700Y102620D02*
X153300Y102620D01*
X153300Y103000D02*
X145700Y103000D01*
X145700Y103380D02*
X153300Y103380D01*
X153300Y103760D02*
X145700Y103760D01*
X145700Y104140D02*
X153300Y104140D01*
X153300Y104520D02*
X145700Y104520D01*
X145700Y104900D02*
X153300Y104900D01*
X153300Y105280D02*
X145700Y105280D01*
X145700Y105660D02*
X153300Y105660D01*
X153300Y106040D02*
X145700Y106040D01*
X145700Y106420D02*
X153300Y106420D01*
X153300Y106800D02*
X145700Y106800D01*
X145700Y107180D02*
X153300Y107180D01*
X153300Y107560D02*
X145700Y107560D01*
X145700Y107940D02*
X153300Y107940D01*
X153300Y108320D02*
X145700Y108320D01*
X145700Y108700D02*
X153300Y108700D01*
X153300Y109080D02*
X145700Y109080D01*
X145700Y109460D02*
X153300Y109460D01*
X153300Y109840D02*
X145700Y109840D01*
X145700Y110220D02*
X153300Y110220D01*
X153300Y110600D02*
X145700Y110600D01*
X145700Y110980D02*
X153300Y110980D01*
X153300Y111360D02*
X145700Y111360D01*
X145700Y111740D02*
X153300Y111740D01*
X153300Y112120D02*
X145700Y112120D01*
X145700Y112500D02*
X153300Y112500D01*
X153300Y112880D02*
X145700Y112880D01*
X145700Y113260D02*
X153300Y113260D01*
X153300Y113640D02*
X145700Y113640D01*
X145700Y114020D02*
X153300Y114020D01*
X153300Y114400D02*
X145700Y114400D01*
X145700Y114780D02*
X153300Y114780D01*
X153300Y115160D02*
X145700Y115160D01*
X145700Y115540D02*
X153300Y115540D01*
X153300Y115920D02*
X145700Y115920D01*
X145700Y116300D02*
X153300Y116300D01*
X153300Y116680D02*
X145700Y116680D01*
X142300Y116700D02*
X142300Y101100D01*
X134700Y101100D01*
X134700Y116700D01*
X142300Y116700D01*
X142300Y101480D02*
X134700Y101480D01*
X134700Y101860D02*
X142300Y101860D01*
X142300Y102240D02*
X134700Y102240D01*
X134700Y102620D02*
X142300Y102620D01*
X142300Y103000D02*
X134700Y103000D01*
X134700Y103380D02*
X142300Y103380D01*
X142300Y103760D02*
X134700Y103760D01*
X134700Y104140D02*
X142300Y104140D01*
X142300Y104520D02*
X134700Y104520D01*
X134700Y104900D02*
X142300Y104900D01*
X142300Y105280D02*
X134700Y105280D01*
X134700Y105660D02*
X142300Y105660D01*
X142300Y106040D02*
X134700Y106040D01*
X134700Y106420D02*
X142300Y106420D01*
X142300Y106800D02*
X134700Y106800D01*
X134700Y107180D02*
X142300Y107180D01*
X142300Y107560D02*
X134700Y107560D01*
X134700Y107940D02*
X142300Y107940D01*
X142300Y108320D02*
X134700Y108320D01*
X134700Y108700D02*
X142300Y108700D01*
X142300Y109080D02*
X134700Y109080D01*
X134700Y109460D02*
X142300Y109460D01*
X142300Y109840D02*
X134700Y109840D01*
X134700Y110220D02*
X142300Y110220D01*
X142300Y110600D02*
X134700Y110600D01*
X134700Y110980D02*
X142300Y110980D01*
X142300Y111360D02*
X134700Y111360D01*
X134700Y111740D02*
X142300Y111740D01*
X142300Y112120D02*
X134700Y112120D01*
X134700Y112500D02*
X142300Y112500D01*
X142300Y112880D02*
X134700Y112880D01*
X134700Y113260D02*
X142300Y113260D01*
X142300Y113640D02*
X134700Y113640D01*
X134700Y114020D02*
X142300Y114020D01*
X142300Y114400D02*
X134700Y114400D01*
X134700Y114780D02*
X142300Y114780D01*
X142300Y115160D02*
X134700Y115160D01*
X134700Y115540D02*
X142300Y115540D01*
X142300Y115920D02*
X134700Y115920D01*
X134700Y116300D02*
X142300Y116300D01*
X142300Y116680D02*
X134700Y116680D01*
X112300Y116700D02*
X112300Y101100D01*
X104700Y101100D01*
X104700Y116700D01*
X112300Y116700D01*
X112300Y101480D02*
X104700Y101480D01*
X104700Y101860D02*
X112300Y101860D01*
X112300Y102240D02*
X104700Y102240D01*
X104700Y102620D02*
X112300Y102620D01*
X112300Y103000D02*
X104700Y103000D01*
X104700Y103380D02*
X112300Y103380D01*
X112300Y103760D02*
X104700Y103760D01*
X104700Y104140D02*
X112300Y104140D01*
X112300Y104520D02*
X104700Y104520D01*
X104700Y104900D02*
X112300Y104900D01*
X112300Y105280D02*
X104700Y105280D01*
X104700Y105660D02*
X112300Y105660D01*
X112300Y106040D02*
X104700Y106040D01*
X104700Y106420D02*
X112300Y106420D01*
X112300Y106800D02*
X104700Y106800D01*
X104700Y107180D02*
X112300Y107180D01*
X112300Y107560D02*
X104700Y107560D01*
X104700Y107940D02*
X112300Y107940D01*
X112300Y108320D02*
X104700Y108320D01*
X104700Y108700D02*
X112300Y108700D01*
X112300Y109080D02*
X104700Y109080D01*
X104700Y109460D02*
X112300Y109460D01*
X112300Y109840D02*
X104700Y109840D01*
X104700Y110220D02*
X112300Y110220D01*
X112300Y110600D02*
X104700Y110600D01*
X104700Y110980D02*
X112300Y110980D01*
X112300Y111360D02*
X104700Y111360D01*
X104700Y111740D02*
X112300Y111740D01*
X112300Y112120D02*
X104700Y112120D01*
X104700Y112500D02*
X112300Y112500D01*
X112300Y112880D02*
X104700Y112880D01*
X104700Y113260D02*
X112300Y113260D01*
X112300Y113640D02*
X104700Y113640D01*
X104700Y114020D02*
X112300Y114020D01*
X112300Y114400D02*
X104700Y114400D01*
X104700Y114780D02*
X112300Y114780D01*
X112300Y115160D02*
X104700Y115160D01*
X104700Y115540D02*
X112300Y115540D01*
X112300Y115920D02*
X104700Y115920D01*
X104700Y116300D02*
X112300Y116300D01*
X112300Y116680D02*
X104700Y116680D01*
X101300Y116700D02*
X101300Y101100D01*
X93700Y101100D01*
X93700Y116700D01*
X101300Y116700D01*
X101300Y101480D02*
X93700Y101480D01*
X93700Y101860D02*
X101300Y101860D01*
X101300Y102240D02*
X93700Y102240D01*
X93700Y102620D02*
X101300Y102620D01*
X101300Y103000D02*
X93700Y103000D01*
X93700Y103380D02*
X101300Y103380D01*
X101300Y103760D02*
X93700Y103760D01*
X93700Y104140D02*
X101300Y104140D01*
X101300Y104520D02*
X93700Y104520D01*
X93700Y104900D02*
X101300Y104900D01*
X101300Y105280D02*
X93700Y105280D01*
X93700Y105660D02*
X101300Y105660D01*
X101300Y106040D02*
X93700Y106040D01*
X93700Y106420D02*
X101300Y106420D01*
X101300Y106800D02*
X93700Y106800D01*
X93700Y107180D02*
X101300Y107180D01*
X101300Y107560D02*
X93700Y107560D01*
X93700Y107940D02*
X101300Y107940D01*
X101300Y108320D02*
X93700Y108320D01*
X93700Y108700D02*
X101300Y108700D01*
X101300Y109080D02*
X93700Y109080D01*
X93700Y109460D02*
X101300Y109460D01*
X101300Y109840D02*
X93700Y109840D01*
X93700Y110220D02*
X101300Y110220D01*
X101300Y110600D02*
X93700Y110600D01*
X93700Y110980D02*
X101300Y110980D01*
X101300Y111360D02*
X93700Y111360D01*
X93700Y111740D02*
X101300Y111740D01*
X101300Y112120D02*
X93700Y112120D01*
X93700Y112500D02*
X101300Y112500D01*
X101300Y112880D02*
X93700Y112880D01*
X93700Y113260D02*
X101300Y113260D01*
X101300Y113640D02*
X93700Y113640D01*
X93700Y114020D02*
X101300Y114020D01*
X101300Y114400D02*
X93700Y114400D01*
X93700Y114780D02*
X101300Y114780D01*
X101300Y115160D02*
X93700Y115160D01*
X93700Y115540D02*
X101300Y115540D01*
X101300Y115920D02*
X93700Y115920D01*
X93700Y116300D02*
X101300Y116300D01*
X101300Y116680D02*
X93700Y116680D01*
X90300Y116700D02*
X90300Y101100D01*
X82700Y101100D01*
X82700Y116700D01*
X90300Y116700D01*
X90300Y101480D02*
X82700Y101480D01*
X82700Y101860D02*
X90300Y101860D01*
X90300Y102240D02*
X82700Y102240D01*
X82700Y102620D02*
X90300Y102620D01*
X90300Y103000D02*
X82700Y103000D01*
X82700Y103380D02*
X90300Y103380D01*
X90300Y103760D02*
X82700Y103760D01*
X82700Y104140D02*
X90300Y104140D01*
X90300Y104520D02*
X82700Y104520D01*
X82700Y104900D02*
X90300Y104900D01*
X90300Y105280D02*
X82700Y105280D01*
X82700Y105660D02*
X90300Y105660D01*
X90300Y106040D02*
X82700Y106040D01*
X82700Y106420D02*
X90300Y106420D01*
X90300Y106800D02*
X82700Y106800D01*
X82700Y107180D02*
X90300Y107180D01*
X90300Y107560D02*
X82700Y107560D01*
X82700Y107940D02*
X90300Y107940D01*
X90300Y108320D02*
X82700Y108320D01*
X82700Y108700D02*
X90300Y108700D01*
X90300Y109080D02*
X82700Y109080D01*
X82700Y109460D02*
X90300Y109460D01*
X90300Y109840D02*
X82700Y109840D01*
X82700Y110220D02*
X90300Y110220D01*
X90300Y110600D02*
X82700Y110600D01*
X82700Y110980D02*
X90300Y110980D01*
X90300Y111360D02*
X82700Y111360D01*
X82700Y111740D02*
X90300Y111740D01*
X90300Y112120D02*
X82700Y112120D01*
X82700Y112500D02*
X90300Y112500D01*
X90300Y112880D02*
X82700Y112880D01*
X82700Y113260D02*
X90300Y113260D01*
X90300Y113640D02*
X82700Y113640D01*
X82700Y114020D02*
X90300Y114020D01*
X90300Y114400D02*
X82700Y114400D01*
X82700Y114780D02*
X90300Y114780D01*
X90300Y115160D02*
X82700Y115160D01*
X82700Y115540D02*
X90300Y115540D01*
X90300Y115920D02*
X82700Y115920D01*
X82700Y116300D02*
X90300Y116300D01*
X90300Y116680D02*
X82700Y116680D01*
X79300Y116700D02*
X79300Y101100D01*
X71700Y101100D01*
X71700Y116700D01*
X79300Y116700D01*
X79300Y101480D02*
X71700Y101480D01*
X71700Y101860D02*
X79300Y101860D01*
X79300Y102240D02*
X71700Y102240D01*
X71700Y102620D02*
X79300Y102620D01*
X79300Y103000D02*
X71700Y103000D01*
X71700Y103380D02*
X79300Y103380D01*
X79300Y103760D02*
X71700Y103760D01*
X71700Y104140D02*
X79300Y104140D01*
X79300Y104520D02*
X71700Y104520D01*
X71700Y104900D02*
X79300Y104900D01*
X79300Y105280D02*
X71700Y105280D01*
X71700Y105660D02*
X79300Y105660D01*
X79300Y106040D02*
X71700Y106040D01*
X71700Y106420D02*
X79300Y106420D01*
X79300Y106800D02*
X71700Y106800D01*
X71700Y107180D02*
X79300Y107180D01*
X79300Y107560D02*
X71700Y107560D01*
X71700Y107940D02*
X79300Y107940D01*
X79300Y108320D02*
X71700Y108320D01*
X71700Y108700D02*
X79300Y108700D01*
X79300Y109080D02*
X71700Y109080D01*
X71700Y109460D02*
X79300Y109460D01*
X79300Y109840D02*
X71700Y109840D01*
X71700Y110220D02*
X79300Y110220D01*
X79300Y110600D02*
X71700Y110600D01*
X71700Y110980D02*
X79300Y110980D01*
X79300Y111360D02*
X71700Y111360D01*
X71700Y111740D02*
X79300Y111740D01*
X79300Y112120D02*
X71700Y112120D01*
X71700Y112500D02*
X79300Y112500D01*
X79300Y112880D02*
X71700Y112880D01*
X71700Y113260D02*
X79300Y113260D01*
X79300Y113640D02*
X71700Y113640D01*
X71700Y114020D02*
X79300Y114020D01*
X79300Y114400D02*
X71700Y114400D01*
X71700Y114780D02*
X79300Y114780D01*
X79300Y115160D02*
X71700Y115160D01*
X71700Y115540D02*
X79300Y115540D01*
X79300Y115920D02*
X71700Y115920D01*
X71700Y116300D02*
X79300Y116300D01*
X79300Y116680D02*
X71700Y116680D01*
X68300Y116700D02*
X68300Y101100D01*
X60700Y101100D01*
X60700Y116700D01*
X68300Y116700D01*
X68300Y101480D02*
X60700Y101480D01*
X60700Y101860D02*
X68300Y101860D01*
X68300Y102240D02*
X60700Y102240D01*
X60700Y102620D02*
X68300Y102620D01*
X68300Y103000D02*
X60700Y103000D01*
X60700Y103380D02*
X68300Y103380D01*
X68300Y103760D02*
X60700Y103760D01*
X60700Y104140D02*
X68300Y104140D01*
X68300Y104520D02*
X60700Y104520D01*
X60700Y104900D02*
X68300Y104900D01*
X68300Y105280D02*
X60700Y105280D01*
X60700Y105660D02*
X68300Y105660D01*
X68300Y106040D02*
X60700Y106040D01*
X60700Y106420D02*
X68300Y106420D01*
X68300Y106800D02*
X60700Y106800D01*
X60700Y107180D02*
X68300Y107180D01*
X68300Y107560D02*
X60700Y107560D01*
X60700Y107940D02*
X68300Y107940D01*
X68300Y108320D02*
X60700Y108320D01*
X60700Y108700D02*
X68300Y108700D01*
X68300Y109080D02*
X60700Y109080D01*
X60700Y109460D02*
X68300Y109460D01*
X68300Y109840D02*
X60700Y109840D01*
X60700Y110220D02*
X68300Y110220D01*
X68300Y110600D02*
X60700Y110600D01*
X60700Y110980D02*
X68300Y110980D01*
X68300Y111360D02*
X60700Y111360D01*
X60700Y111740D02*
X68300Y111740D01*
X68300Y112120D02*
X60700Y112120D01*
X60700Y112500D02*
X68300Y112500D01*
X68300Y112880D02*
X60700Y112880D01*
X60700Y113260D02*
X68300Y113260D01*
X68300Y113640D02*
X60700Y113640D01*
X60700Y114020D02*
X68300Y114020D01*
X68300Y114400D02*
X60700Y114400D01*
X60700Y114780D02*
X68300Y114780D01*
X68300Y115160D02*
X60700Y115160D01*
X60700Y115540D02*
X68300Y115540D01*
X68300Y115920D02*
X60700Y115920D01*
X60700Y116300D02*
X68300Y116300D01*
X68300Y116680D02*
X60700Y116680D01*
X68300Y223100D02*
X68300Y238700D01*
X68300Y223100D02*
X60700Y223100D01*
X60700Y238700D01*
X68300Y238700D01*
X68300Y223480D02*
X60700Y223480D01*
X60700Y223860D02*
X68300Y223860D01*
X68300Y224240D02*
X60700Y224240D01*
X60700Y224620D02*
X68300Y224620D01*
X68300Y225000D02*
X60700Y225000D01*
X60700Y225380D02*
X68300Y225380D01*
X68300Y225760D02*
X60700Y225760D01*
X60700Y226140D02*
X68300Y226140D01*
X68300Y226520D02*
X60700Y226520D01*
X60700Y226900D02*
X68300Y226900D01*
X68300Y227280D02*
X60700Y227280D01*
X60700Y227660D02*
X68300Y227660D01*
X68300Y228040D02*
X60700Y228040D01*
X60700Y228420D02*
X68300Y228420D01*
X68300Y228800D02*
X60700Y228800D01*
X60700Y229180D02*
X68300Y229180D01*
X68300Y229560D02*
X60700Y229560D01*
X60700Y229940D02*
X68300Y229940D01*
X68300Y230320D02*
X60700Y230320D01*
X60700Y230700D02*
X68300Y230700D01*
X68300Y231080D02*
X60700Y231080D01*
X60700Y231460D02*
X68300Y231460D01*
X68300Y231840D02*
X60700Y231840D01*
X60700Y232220D02*
X68300Y232220D01*
X68300Y232600D02*
X60700Y232600D01*
X60700Y232980D02*
X68300Y232980D01*
X68300Y233360D02*
X60700Y233360D01*
X60700Y233740D02*
X68300Y233740D01*
X68300Y234120D02*
X60700Y234120D01*
X60700Y234500D02*
X68300Y234500D01*
X68300Y234880D02*
X60700Y234880D01*
X60700Y235260D02*
X68300Y235260D01*
X68300Y235640D02*
X60700Y235640D01*
X60700Y236020D02*
X68300Y236020D01*
X68300Y236400D02*
X60700Y236400D01*
X60700Y236780D02*
X68300Y236780D01*
X68300Y237160D02*
X60700Y237160D01*
X60700Y237540D02*
X68300Y237540D01*
X68300Y237920D02*
X60700Y237920D01*
X60700Y238300D02*
X68300Y238300D01*
X68300Y238680D02*
X60700Y238680D01*
X79300Y238700D02*
X79300Y223100D01*
X71700Y223100D01*
X71700Y238700D01*
X79300Y238700D01*
X79300Y223480D02*
X71700Y223480D01*
X71700Y223860D02*
X79300Y223860D01*
X79300Y224240D02*
X71700Y224240D01*
X71700Y224620D02*
X79300Y224620D01*
X79300Y225000D02*
X71700Y225000D01*
X71700Y225380D02*
X79300Y225380D01*
X79300Y225760D02*
X71700Y225760D01*
X71700Y226140D02*
X79300Y226140D01*
X79300Y226520D02*
X71700Y226520D01*
X71700Y226900D02*
X79300Y226900D01*
X79300Y227280D02*
X71700Y227280D01*
X71700Y227660D02*
X79300Y227660D01*
X79300Y228040D02*
X71700Y228040D01*
X71700Y228420D02*
X79300Y228420D01*
X79300Y228800D02*
X71700Y228800D01*
X71700Y229180D02*
X79300Y229180D01*
X79300Y229560D02*
X71700Y229560D01*
X71700Y229940D02*
X79300Y229940D01*
X79300Y230320D02*
X71700Y230320D01*
X71700Y230700D02*
X79300Y230700D01*
X79300Y231080D02*
X71700Y231080D01*
X71700Y231460D02*
X79300Y231460D01*
X79300Y231840D02*
X71700Y231840D01*
X71700Y232220D02*
X79300Y232220D01*
X79300Y232600D02*
X71700Y232600D01*
X71700Y232980D02*
X79300Y232980D01*
X79300Y233360D02*
X71700Y233360D01*
X71700Y233740D02*
X79300Y233740D01*
X79300Y234120D02*
X71700Y234120D01*
X71700Y234500D02*
X79300Y234500D01*
X79300Y234880D02*
X71700Y234880D01*
X71700Y235260D02*
X79300Y235260D01*
X79300Y235640D02*
X71700Y235640D01*
X71700Y236020D02*
X79300Y236020D01*
X79300Y236400D02*
X71700Y236400D01*
X71700Y236780D02*
X79300Y236780D01*
X79300Y237160D02*
X71700Y237160D01*
X71700Y237540D02*
X79300Y237540D01*
X79300Y237920D02*
X71700Y237920D01*
X71700Y238300D02*
X79300Y238300D01*
X79300Y238680D02*
X71700Y238680D01*
X90300Y238700D02*
X90300Y223100D01*
X82700Y223100D01*
X82700Y238700D01*
X90300Y238700D01*
X90300Y223480D02*
X82700Y223480D01*
X82700Y223860D02*
X90300Y223860D01*
X90300Y224240D02*
X82700Y224240D01*
X82700Y224620D02*
X90300Y224620D01*
X90300Y225000D02*
X82700Y225000D01*
X82700Y225380D02*
X90300Y225380D01*
X90300Y225760D02*
X82700Y225760D01*
X82700Y226140D02*
X90300Y226140D01*
X90300Y226520D02*
X82700Y226520D01*
X82700Y226900D02*
X90300Y226900D01*
X90300Y227280D02*
X82700Y227280D01*
X82700Y227660D02*
X90300Y227660D01*
X90300Y228040D02*
X82700Y228040D01*
X82700Y228420D02*
X90300Y228420D01*
X90300Y228800D02*
X82700Y228800D01*
X82700Y229180D02*
X90300Y229180D01*
X90300Y229560D02*
X82700Y229560D01*
X82700Y229940D02*
X90300Y229940D01*
X90300Y230320D02*
X82700Y230320D01*
X82700Y230700D02*
X90300Y230700D01*
X90300Y231080D02*
X82700Y231080D01*
X82700Y231460D02*
X90300Y231460D01*
X90300Y231840D02*
X82700Y231840D01*
X82700Y232220D02*
X90300Y232220D01*
X90300Y232600D02*
X82700Y232600D01*
X82700Y232980D02*
X90300Y232980D01*
X90300Y233360D02*
X82700Y233360D01*
X82700Y233740D02*
X90300Y233740D01*
X90300Y234120D02*
X82700Y234120D01*
X82700Y234500D02*
X90300Y234500D01*
X90300Y234880D02*
X82700Y234880D01*
X82700Y235260D02*
X90300Y235260D01*
X90300Y235640D02*
X82700Y235640D01*
X82700Y236020D02*
X90300Y236020D01*
X90300Y236400D02*
X82700Y236400D01*
X82700Y236780D02*
X90300Y236780D01*
X90300Y237160D02*
X82700Y237160D01*
X82700Y237540D02*
X90300Y237540D01*
X90300Y237920D02*
X82700Y237920D01*
X82700Y238300D02*
X90300Y238300D01*
X90300Y238680D02*
X82700Y238680D01*
X101300Y238700D02*
X101300Y223100D01*
X93700Y223100D01*
X93700Y238700D01*
X101300Y238700D01*
X101300Y223480D02*
X93700Y223480D01*
X93700Y223860D02*
X101300Y223860D01*
X101300Y224240D02*
X93700Y224240D01*
X93700Y224620D02*
X101300Y224620D01*
X101300Y225000D02*
X93700Y225000D01*
X93700Y225380D02*
X101300Y225380D01*
X101300Y225760D02*
X93700Y225760D01*
X93700Y226140D02*
X101300Y226140D01*
X101300Y226520D02*
X93700Y226520D01*
X93700Y226900D02*
X101300Y226900D01*
X101300Y227280D02*
X93700Y227280D01*
X93700Y227660D02*
X101300Y227660D01*
X101300Y228040D02*
X93700Y228040D01*
X93700Y228420D02*
X101300Y228420D01*
X101300Y228800D02*
X93700Y228800D01*
X93700Y229180D02*
X101300Y229180D01*
X101300Y229560D02*
X93700Y229560D01*
X93700Y229940D02*
X101300Y229940D01*
X101300Y230320D02*
X93700Y230320D01*
X93700Y230700D02*
X101300Y230700D01*
X101300Y231080D02*
X93700Y231080D01*
X93700Y231460D02*
X101300Y231460D01*
X101300Y231840D02*
X93700Y231840D01*
X93700Y232220D02*
X101300Y232220D01*
X101300Y232600D02*
X93700Y232600D01*
X93700Y232980D02*
X101300Y232980D01*
X101300Y233360D02*
X93700Y233360D01*
X93700Y233740D02*
X101300Y233740D01*
X101300Y234120D02*
X93700Y234120D01*
X93700Y234500D02*
X101300Y234500D01*
X101300Y234880D02*
X93700Y234880D01*
X93700Y235260D02*
X101300Y235260D01*
X101300Y235640D02*
X93700Y235640D01*
X93700Y236020D02*
X101300Y236020D01*
X101300Y236400D02*
X93700Y236400D01*
X93700Y236780D02*
X101300Y236780D01*
X101300Y237160D02*
X93700Y237160D01*
X93700Y237540D02*
X101300Y237540D01*
X101300Y237920D02*
X93700Y237920D01*
X93700Y238300D02*
X101300Y238300D01*
X101300Y238680D02*
X93700Y238680D01*
X112300Y238700D02*
X112300Y223100D01*
X104700Y223100D01*
X104700Y238700D01*
X112300Y238700D01*
X112300Y223480D02*
X104700Y223480D01*
X104700Y223860D02*
X112300Y223860D01*
X112300Y224240D02*
X104700Y224240D01*
X104700Y224620D02*
X112300Y224620D01*
X112300Y225000D02*
X104700Y225000D01*
X104700Y225380D02*
X112300Y225380D01*
X112300Y225760D02*
X104700Y225760D01*
X104700Y226140D02*
X112300Y226140D01*
X112300Y226520D02*
X104700Y226520D01*
X104700Y226900D02*
X112300Y226900D01*
X112300Y227280D02*
X104700Y227280D01*
X104700Y227660D02*
X112300Y227660D01*
X112300Y228040D02*
X104700Y228040D01*
X104700Y228420D02*
X112300Y228420D01*
X112300Y228800D02*
X104700Y228800D01*
X104700Y229180D02*
X112300Y229180D01*
X112300Y229560D02*
X104700Y229560D01*
X104700Y229940D02*
X112300Y229940D01*
X112300Y230320D02*
X104700Y230320D01*
X104700Y230700D02*
X112300Y230700D01*
X112300Y231080D02*
X104700Y231080D01*
X104700Y231460D02*
X112300Y231460D01*
X112300Y231840D02*
X104700Y231840D01*
X104700Y232220D02*
X112300Y232220D01*
X112300Y232600D02*
X104700Y232600D01*
X104700Y232980D02*
X112300Y232980D01*
X112300Y233360D02*
X104700Y233360D01*
X104700Y233740D02*
X112300Y233740D01*
X112300Y234120D02*
X104700Y234120D01*
X104700Y234500D02*
X112300Y234500D01*
X112300Y234880D02*
X104700Y234880D01*
X104700Y235260D02*
X112300Y235260D01*
X112300Y235640D02*
X104700Y235640D01*
X104700Y236020D02*
X112300Y236020D01*
X112300Y236400D02*
X104700Y236400D01*
X104700Y236780D02*
X112300Y236780D01*
X112300Y237160D02*
X104700Y237160D01*
X104700Y237540D02*
X112300Y237540D01*
X112300Y237920D02*
X104700Y237920D01*
X104700Y238300D02*
X112300Y238300D01*
X112300Y238680D02*
X104700Y238680D01*
X142300Y238700D02*
X142300Y223100D01*
X134700Y223100D01*
X134700Y238700D01*
X142300Y238700D01*
X142300Y223480D02*
X134700Y223480D01*
X134700Y223860D02*
X142300Y223860D01*
X142300Y224240D02*
X134700Y224240D01*
X134700Y224620D02*
X142300Y224620D01*
X142300Y225000D02*
X134700Y225000D01*
X134700Y225380D02*
X142300Y225380D01*
X142300Y225760D02*
X134700Y225760D01*
X134700Y226140D02*
X142300Y226140D01*
X142300Y226520D02*
X134700Y226520D01*
X134700Y226900D02*
X142300Y226900D01*
X142300Y227280D02*
X134700Y227280D01*
X134700Y227660D02*
X142300Y227660D01*
X142300Y228040D02*
X134700Y228040D01*
X134700Y228420D02*
X142300Y228420D01*
X142300Y228800D02*
X134700Y228800D01*
X134700Y229180D02*
X142300Y229180D01*
X142300Y229560D02*
X134700Y229560D01*
X134700Y229940D02*
X142300Y229940D01*
X142300Y230320D02*
X134700Y230320D01*
X134700Y230700D02*
X142300Y230700D01*
X142300Y231080D02*
X134700Y231080D01*
X134700Y231460D02*
X142300Y231460D01*
X142300Y231840D02*
X134700Y231840D01*
X134700Y232220D02*
X142300Y232220D01*
X142300Y232600D02*
X134700Y232600D01*
X134700Y232980D02*
X142300Y232980D01*
X142300Y233360D02*
X134700Y233360D01*
X134700Y233740D02*
X142300Y233740D01*
X142300Y234120D02*
X134700Y234120D01*
X134700Y234500D02*
X142300Y234500D01*
X142300Y234880D02*
X134700Y234880D01*
X134700Y235260D02*
X142300Y235260D01*
X142300Y235640D02*
X134700Y235640D01*
X134700Y236020D02*
X142300Y236020D01*
X142300Y236400D02*
X134700Y236400D01*
X134700Y236780D02*
X142300Y236780D01*
X142300Y237160D02*
X134700Y237160D01*
X134700Y237540D02*
X142300Y237540D01*
X142300Y237920D02*
X134700Y237920D01*
X134700Y238300D02*
X142300Y238300D01*
X142300Y238680D02*
X134700Y238680D01*
X153300Y238700D02*
X153300Y223100D01*
X145700Y223100D01*
X145700Y238700D01*
X153300Y238700D01*
X153300Y223480D02*
X145700Y223480D01*
X145700Y223860D02*
X153300Y223860D01*
X153300Y224240D02*
X145700Y224240D01*
X145700Y224620D02*
X153300Y224620D01*
X153300Y225000D02*
X145700Y225000D01*
X145700Y225380D02*
X153300Y225380D01*
X153300Y225760D02*
X145700Y225760D01*
X145700Y226140D02*
X153300Y226140D01*
X153300Y226520D02*
X145700Y226520D01*
X145700Y226900D02*
X153300Y226900D01*
X153300Y227280D02*
X145700Y227280D01*
X145700Y227660D02*
X153300Y227660D01*
X153300Y228040D02*
X145700Y228040D01*
X145700Y228420D02*
X153300Y228420D01*
X153300Y228800D02*
X145700Y228800D01*
X145700Y229180D02*
X153300Y229180D01*
X153300Y229560D02*
X145700Y229560D01*
X145700Y229940D02*
X153300Y229940D01*
X153300Y230320D02*
X145700Y230320D01*
X145700Y230700D02*
X153300Y230700D01*
X153300Y231080D02*
X145700Y231080D01*
X145700Y231460D02*
X153300Y231460D01*
X153300Y231840D02*
X145700Y231840D01*
X145700Y232220D02*
X153300Y232220D01*
X153300Y232600D02*
X145700Y232600D01*
X145700Y232980D02*
X153300Y232980D01*
X153300Y233360D02*
X145700Y233360D01*
X145700Y233740D02*
X153300Y233740D01*
X153300Y234120D02*
X145700Y234120D01*
X145700Y234500D02*
X153300Y234500D01*
X153300Y234880D02*
X145700Y234880D01*
X145700Y235260D02*
X153300Y235260D01*
X153300Y235640D02*
X145700Y235640D01*
X145700Y236020D02*
X153300Y236020D01*
X153300Y236400D02*
X145700Y236400D01*
X145700Y236780D02*
X153300Y236780D01*
X153300Y237160D02*
X145700Y237160D01*
X145700Y237540D02*
X153300Y237540D01*
X153300Y237920D02*
X145700Y237920D01*
X145700Y238300D02*
X153300Y238300D01*
X153300Y238680D02*
X145700Y238680D01*
X164300Y238700D02*
X164300Y223100D01*
X156700Y223100D01*
X156700Y238700D01*
X164300Y238700D01*
X164300Y223480D02*
X156700Y223480D01*
X156700Y223860D02*
X164300Y223860D01*
X164300Y224240D02*
X156700Y224240D01*
X156700Y224620D02*
X164300Y224620D01*
X164300Y225000D02*
X156700Y225000D01*
X156700Y225380D02*
X164300Y225380D01*
X164300Y225760D02*
X156700Y225760D01*
X156700Y226140D02*
X164300Y226140D01*
X164300Y226520D02*
X156700Y226520D01*
X156700Y226900D02*
X164300Y226900D01*
X164300Y227280D02*
X156700Y227280D01*
X156700Y227660D02*
X164300Y227660D01*
X164300Y228040D02*
X156700Y228040D01*
X156700Y228420D02*
X164300Y228420D01*
X164300Y228800D02*
X156700Y228800D01*
X156700Y229180D02*
X164300Y229180D01*
X164300Y229560D02*
X156700Y229560D01*
X156700Y229940D02*
X164300Y229940D01*
X164300Y230320D02*
X156700Y230320D01*
X156700Y230700D02*
X164300Y230700D01*
X164300Y231080D02*
X156700Y231080D01*
X156700Y231460D02*
X164300Y231460D01*
X164300Y231840D02*
X156700Y231840D01*
X156700Y232220D02*
X164300Y232220D01*
X164300Y232600D02*
X156700Y232600D01*
X156700Y232980D02*
X164300Y232980D01*
X164300Y233360D02*
X156700Y233360D01*
X156700Y233740D02*
X164300Y233740D01*
X164300Y234120D02*
X156700Y234120D01*
X156700Y234500D02*
X164300Y234500D01*
X164300Y234880D02*
X156700Y234880D01*
X156700Y235260D02*
X164300Y235260D01*
X164300Y235640D02*
X156700Y235640D01*
X156700Y236020D02*
X164300Y236020D01*
X164300Y236400D02*
X156700Y236400D01*
X156700Y236780D02*
X164300Y236780D01*
X164300Y237160D02*
X156700Y237160D01*
X156700Y237540D02*
X164300Y237540D01*
X164300Y237920D02*
X156700Y237920D01*
X156700Y238300D02*
X164300Y238300D01*
X164300Y238680D02*
X156700Y238680D01*
X175300Y238700D02*
X175300Y223100D01*
X167700Y223100D01*
X167700Y238700D01*
X175300Y238700D01*
X175300Y223480D02*
X167700Y223480D01*
X167700Y223860D02*
X175300Y223860D01*
X175300Y224240D02*
X167700Y224240D01*
X167700Y224620D02*
X175300Y224620D01*
X175300Y225000D02*
X167700Y225000D01*
X167700Y225380D02*
X175300Y225380D01*
X175300Y225760D02*
X167700Y225760D01*
X167700Y226140D02*
X175300Y226140D01*
X175300Y226520D02*
X167700Y226520D01*
X167700Y226900D02*
X175300Y226900D01*
X175300Y227280D02*
X167700Y227280D01*
X167700Y227660D02*
X175300Y227660D01*
X175300Y228040D02*
X167700Y228040D01*
X167700Y228420D02*
X175300Y228420D01*
X175300Y228800D02*
X167700Y228800D01*
X167700Y229180D02*
X175300Y229180D01*
X175300Y229560D02*
X167700Y229560D01*
X167700Y229940D02*
X175300Y229940D01*
X175300Y230320D02*
X167700Y230320D01*
X167700Y230700D02*
X175300Y230700D01*
X175300Y231080D02*
X167700Y231080D01*
X167700Y231460D02*
X175300Y231460D01*
X175300Y231840D02*
X167700Y231840D01*
X167700Y232220D02*
X175300Y232220D01*
X175300Y232600D02*
X167700Y232600D01*
X167700Y232980D02*
X175300Y232980D01*
X175300Y233360D02*
X167700Y233360D01*
X167700Y233740D02*
X175300Y233740D01*
X175300Y234120D02*
X167700Y234120D01*
X167700Y234500D02*
X175300Y234500D01*
X175300Y234880D02*
X167700Y234880D01*
X167700Y235260D02*
X175300Y235260D01*
X175300Y235640D02*
X167700Y235640D01*
X167700Y236020D02*
X175300Y236020D01*
X175300Y236400D02*
X167700Y236400D01*
X167700Y236780D02*
X175300Y236780D01*
X175300Y237160D02*
X167700Y237160D01*
X167700Y237540D02*
X175300Y237540D01*
X175300Y237920D02*
X167700Y237920D01*
X167700Y238300D02*
X175300Y238300D01*
X175300Y238680D02*
X167700Y238680D01*
X186300Y238700D02*
X186300Y223100D01*
X178700Y223100D01*
X178700Y238700D01*
X186300Y238700D01*
X186300Y223480D02*
X178700Y223480D01*
X178700Y223860D02*
X186300Y223860D01*
X186300Y224240D02*
X178700Y224240D01*
X178700Y224620D02*
X186300Y224620D01*
X186300Y225000D02*
X178700Y225000D01*
X178700Y225380D02*
X186300Y225380D01*
X186300Y225760D02*
X178700Y225760D01*
X178700Y226140D02*
X186300Y226140D01*
X186300Y226520D02*
X178700Y226520D01*
X178700Y226900D02*
X186300Y226900D01*
X186300Y227280D02*
X178700Y227280D01*
X178700Y227660D02*
X186300Y227660D01*
X186300Y228040D02*
X178700Y228040D01*
X178700Y228420D02*
X186300Y228420D01*
X186300Y228800D02*
X178700Y228800D01*
X178700Y229180D02*
X186300Y229180D01*
X186300Y229560D02*
X178700Y229560D01*
X178700Y229940D02*
X186300Y229940D01*
X186300Y230320D02*
X178700Y230320D01*
X178700Y230700D02*
X186300Y230700D01*
X186300Y231080D02*
X178700Y231080D01*
X178700Y231460D02*
X186300Y231460D01*
X186300Y231840D02*
X178700Y231840D01*
X178700Y232220D02*
X186300Y232220D01*
X186300Y232600D02*
X178700Y232600D01*
X178700Y232980D02*
X186300Y232980D01*
X186300Y233360D02*
X178700Y233360D01*
X178700Y233740D02*
X186300Y233740D01*
X186300Y234120D02*
X178700Y234120D01*
X178700Y234500D02*
X186300Y234500D01*
X186300Y234880D02*
X178700Y234880D01*
X178700Y235260D02*
X186300Y235260D01*
X186300Y235640D02*
X178700Y235640D01*
X178700Y236020D02*
X186300Y236020D01*
X186300Y236400D02*
X178700Y236400D01*
X178700Y236780D02*
X186300Y236780D01*
X186300Y237160D02*
X178700Y237160D01*
X178700Y237540D02*
X186300Y237540D01*
X186300Y237920D02*
X178700Y237920D01*
X178700Y238300D02*
X186300Y238300D01*
X186300Y238680D02*
X178700Y238680D01*
X197300Y238700D02*
X197300Y223100D01*
X189700Y223100D01*
X189700Y238700D01*
X197300Y238700D01*
X197300Y223480D02*
X189700Y223480D01*
X189700Y223860D02*
X197300Y223860D01*
X197300Y224240D02*
X189700Y224240D01*
X189700Y224620D02*
X197300Y224620D01*
X197300Y225000D02*
X189700Y225000D01*
X189700Y225380D02*
X197300Y225380D01*
X197300Y225760D02*
X189700Y225760D01*
X189700Y226140D02*
X197300Y226140D01*
X197300Y226520D02*
X189700Y226520D01*
X189700Y226900D02*
X197300Y226900D01*
X197300Y227280D02*
X189700Y227280D01*
X189700Y227660D02*
X197300Y227660D01*
X197300Y228040D02*
X189700Y228040D01*
X189700Y228420D02*
X197300Y228420D01*
X197300Y228800D02*
X189700Y228800D01*
X189700Y229180D02*
X197300Y229180D01*
X197300Y229560D02*
X189700Y229560D01*
X189700Y229940D02*
X197300Y229940D01*
X197300Y230320D02*
X189700Y230320D01*
X189700Y230700D02*
X197300Y230700D01*
X197300Y231080D02*
X189700Y231080D01*
X189700Y231460D02*
X197300Y231460D01*
X197300Y231840D02*
X189700Y231840D01*
X189700Y232220D02*
X197300Y232220D01*
X197300Y232600D02*
X189700Y232600D01*
X189700Y232980D02*
X197300Y232980D01*
X197300Y233360D02*
X189700Y233360D01*
X189700Y233740D02*
X197300Y233740D01*
X197300Y234120D02*
X189700Y234120D01*
X189700Y234500D02*
X197300Y234500D01*
X197300Y234880D02*
X189700Y234880D01*
X189700Y235260D02*
X197300Y235260D01*
X197300Y235640D02*
X189700Y235640D01*
X189700Y236020D02*
X197300Y236020D01*
X197300Y236400D02*
X189700Y236400D01*
X189700Y236780D02*
X197300Y236780D01*
X197300Y237160D02*
X189700Y237160D01*
X189700Y237540D02*
X197300Y237540D01*
X197300Y237920D02*
X189700Y237920D01*
X189700Y238300D02*
X197300Y238300D01*
X197300Y238680D02*
X189700Y238680D01*
X208300Y238700D02*
X208300Y223100D01*
X200700Y223100D01*
X200700Y238700D01*
X208300Y238700D01*
X208300Y223480D02*
X200700Y223480D01*
X200700Y223860D02*
X208300Y223860D01*
X208300Y224240D02*
X200700Y224240D01*
X200700Y224620D02*
X208300Y224620D01*
X208300Y225000D02*
X200700Y225000D01*
X200700Y225380D02*
X208300Y225380D01*
X208300Y225760D02*
X200700Y225760D01*
X200700Y226140D02*
X208300Y226140D01*
X208300Y226520D02*
X200700Y226520D01*
X200700Y226900D02*
X208300Y226900D01*
X208300Y227280D02*
X200700Y227280D01*
X200700Y227660D02*
X208300Y227660D01*
X208300Y228040D02*
X200700Y228040D01*
X200700Y228420D02*
X208300Y228420D01*
X208300Y228800D02*
X200700Y228800D01*
X200700Y229180D02*
X208300Y229180D01*
X208300Y229560D02*
X200700Y229560D01*
X200700Y229940D02*
X208300Y229940D01*
X208300Y230320D02*
X200700Y230320D01*
X200700Y230700D02*
X208300Y230700D01*
X208300Y231080D02*
X200700Y231080D01*
X200700Y231460D02*
X208300Y231460D01*
X208300Y231840D02*
X200700Y231840D01*
X200700Y232220D02*
X208300Y232220D01*
X208300Y232600D02*
X200700Y232600D01*
X200700Y232980D02*
X208300Y232980D01*
X208300Y233360D02*
X200700Y233360D01*
X200700Y233740D02*
X208300Y233740D01*
X208300Y234120D02*
X200700Y234120D01*
X200700Y234500D02*
X208300Y234500D01*
X208300Y234880D02*
X200700Y234880D01*
X200700Y235260D02*
X208300Y235260D01*
X208300Y235640D02*
X200700Y235640D01*
X200700Y236020D02*
X208300Y236020D01*
X208300Y236400D02*
X200700Y236400D01*
X200700Y236780D02*
X208300Y236780D01*
X208300Y237160D02*
X200700Y237160D01*
X200700Y237540D02*
X208300Y237540D01*
X208300Y237920D02*
X200700Y237920D01*
X200700Y238300D02*
X208300Y238300D01*
X208300Y238680D02*
X200700Y238680D01*
D11*
X245400Y232800D03*
X245400Y213800D03*
X271500Y233000D03*
X271500Y214000D03*
D12*
X190900Y68800D03*
X207900Y68800D03*
D13*
X255580Y271200D03*
X255580Y264700D03*
X255580Y258200D03*
X274820Y258200D03*
X274820Y264700D03*
X274820Y271200D03*
D14*
X233300Y273100D03*
X233300Y256600D03*
D15*
X65738Y265562D02*
X65738Y287038D01*
X65738Y265562D02*
X55762Y265562D01*
X55762Y287038D01*
X65738Y287038D01*
X65738Y266061D02*
X55762Y266061D01*
X55762Y266560D02*
X65738Y266560D01*
X65738Y267059D02*
X55762Y267059D01*
X55762Y267558D02*
X65738Y267558D01*
X65738Y268057D02*
X55762Y268057D01*
X55762Y268556D02*
X65738Y268556D01*
X65738Y269055D02*
X55762Y269055D01*
X55762Y269554D02*
X65738Y269554D01*
X65738Y270053D02*
X55762Y270053D01*
X55762Y270552D02*
X65738Y270552D01*
X65738Y271051D02*
X55762Y271051D01*
X55762Y271550D02*
X65738Y271550D01*
X65738Y272049D02*
X55762Y272049D01*
X55762Y272548D02*
X65738Y272548D01*
X65738Y273047D02*
X55762Y273047D01*
X55762Y273546D02*
X65738Y273546D01*
X65738Y274045D02*
X55762Y274045D01*
X55762Y274544D02*
X65738Y274544D01*
X65738Y275043D02*
X55762Y275043D01*
X55762Y275542D02*
X65738Y275542D01*
X65738Y276041D02*
X55762Y276041D01*
X55762Y276540D02*
X65738Y276540D01*
X65738Y277039D02*
X55762Y277039D01*
X55762Y277538D02*
X65738Y277538D01*
X65738Y278037D02*
X55762Y278037D01*
X55762Y278536D02*
X65738Y278536D01*
X65738Y279035D02*
X55762Y279035D01*
X55762Y279534D02*
X65738Y279534D01*
X65738Y280033D02*
X55762Y280033D01*
X55762Y280532D02*
X65738Y280532D01*
X65738Y281031D02*
X55762Y281031D01*
X55762Y281530D02*
X65738Y281530D01*
X65738Y282029D02*
X55762Y282029D01*
X55762Y282528D02*
X65738Y282528D01*
X65738Y283027D02*
X55762Y283027D01*
X55762Y283526D02*
X65738Y283526D01*
X65738Y284025D02*
X55762Y284025D01*
X55762Y284524D02*
X65738Y284524D01*
X65738Y285023D02*
X55762Y285023D01*
X55762Y285522D02*
X65738Y285522D01*
X65738Y286021D02*
X55762Y286021D01*
X55762Y286520D02*
X65738Y286520D01*
X65738Y287019D02*
X55762Y287019D01*
X95238Y287038D02*
X95238Y265562D01*
X85262Y265562D01*
X85262Y287038D01*
X95238Y287038D01*
X95238Y266061D02*
X85262Y266061D01*
X85262Y266560D02*
X95238Y266560D01*
X95238Y267059D02*
X85262Y267059D01*
X85262Y267558D02*
X95238Y267558D01*
X95238Y268057D02*
X85262Y268057D01*
X85262Y268556D02*
X95238Y268556D01*
X95238Y269055D02*
X85262Y269055D01*
X85262Y269554D02*
X95238Y269554D01*
X95238Y270053D02*
X85262Y270053D01*
X85262Y270552D02*
X95238Y270552D01*
X95238Y271051D02*
X85262Y271051D01*
X85262Y271550D02*
X95238Y271550D01*
X95238Y272049D02*
X85262Y272049D01*
X85262Y272548D02*
X95238Y272548D01*
X95238Y273047D02*
X85262Y273047D01*
X85262Y273546D02*
X95238Y273546D01*
X95238Y274045D02*
X85262Y274045D01*
X85262Y274544D02*
X95238Y274544D01*
X95238Y275043D02*
X85262Y275043D01*
X85262Y275542D02*
X95238Y275542D01*
X95238Y276041D02*
X85262Y276041D01*
X85262Y276540D02*
X95238Y276540D01*
X95238Y277039D02*
X85262Y277039D01*
X85262Y277538D02*
X95238Y277538D01*
X95238Y278037D02*
X85262Y278037D01*
X85262Y278536D02*
X95238Y278536D01*
X95238Y279035D02*
X85262Y279035D01*
X85262Y279534D02*
X95238Y279534D01*
X95238Y280033D02*
X85262Y280033D01*
X85262Y280532D02*
X95238Y280532D01*
X95238Y281031D02*
X85262Y281031D01*
X85262Y281530D02*
X95238Y281530D01*
X95238Y282029D02*
X85262Y282029D01*
X85262Y282528D02*
X95238Y282528D01*
X95238Y283027D02*
X85262Y283027D01*
X85262Y283526D02*
X95238Y283526D01*
X95238Y284025D02*
X85262Y284025D01*
X85262Y284524D02*
X95238Y284524D01*
X95238Y285023D02*
X85262Y285023D01*
X85262Y285522D02*
X95238Y285522D01*
X95238Y286021D02*
X85262Y286021D01*
X85262Y286520D02*
X95238Y286520D01*
X95238Y287019D02*
X85262Y287019D01*
D16*
X80500Y256550D02*
X70500Y256550D01*
X70500Y266050D01*
X80500Y266050D01*
X80500Y256550D01*
X80500Y257025D02*
X70500Y257025D01*
X70500Y257500D02*
X80500Y257500D01*
X80500Y257975D02*
X70500Y257975D01*
X70500Y258450D02*
X80500Y258450D01*
X80500Y258925D02*
X70500Y258925D01*
X70500Y259400D02*
X80500Y259400D01*
X80500Y259875D02*
X70500Y259875D01*
X70500Y260350D02*
X80500Y260350D01*
X80500Y260825D02*
X70500Y260825D01*
X70500Y261300D02*
X80500Y261300D01*
X80500Y261775D02*
X70500Y261775D01*
X70500Y262250D02*
X80500Y262250D01*
X80500Y262725D02*
X70500Y262725D01*
X70500Y263200D02*
X80500Y263200D01*
X80500Y263675D02*
X70500Y263675D01*
X70500Y264150D02*
X80500Y264150D01*
X80500Y264625D02*
X70500Y264625D01*
X70500Y265100D02*
X80500Y265100D01*
X80500Y265575D02*
X70500Y265575D01*
X70500Y266050D02*
X80500Y266050D01*
X80500Y286550D02*
X70500Y286550D01*
X70500Y296050D01*
X80500Y296050D01*
X80500Y286550D01*
X80500Y287025D02*
X70500Y287025D01*
X70500Y287500D02*
X80500Y287500D01*
X80500Y287975D02*
X70500Y287975D01*
X70500Y288450D02*
X80500Y288450D01*
X80500Y288925D02*
X70500Y288925D01*
X70500Y289400D02*
X80500Y289400D01*
X80500Y289875D02*
X70500Y289875D01*
X70500Y290350D02*
X80500Y290350D01*
X80500Y290825D02*
X70500Y290825D01*
X70500Y291300D02*
X80500Y291300D01*
X80500Y291775D02*
X70500Y291775D01*
X70500Y292250D02*
X80500Y292250D01*
X80500Y292725D02*
X70500Y292725D01*
X70500Y293200D02*
X80500Y293200D01*
X80500Y293675D02*
X70500Y293675D01*
X70500Y294150D02*
X80500Y294150D01*
X80500Y294625D02*
X70500Y294625D01*
X70500Y295100D02*
X80500Y295100D01*
X80500Y295575D02*
X70500Y295575D01*
X70500Y296050D02*
X80500Y296050D01*
D17*
X250380Y100000D02*
X265620Y100000D01*
X265620Y125000D02*
X250380Y125000D01*
X250380Y150000D02*
X265620Y150000D01*
X265620Y175000D02*
X250380Y175000D01*
D12*
X190900Y89100D03*
X207900Y89100D03*
D18*
X274700Y258080D02*
X274820Y258200D01*
X274700Y258080D02*
X274700Y250100D01*
D19*
X274700Y250100D03*
D18*
X255580Y271200D02*
X244900Y271200D01*
D20*
X244900Y271600D01*
D19*
X244900Y271600D03*
D18*
X204500Y108900D02*
X204500Y89100D01*
X207900Y89100D01*
D19*
X234570Y137500D03*
X75000Y75000D03*
X125000Y75000D03*
X100000Y50000D03*
X150000Y50000D03*
X100000Y150000D03*
X75000Y175000D03*
X125000Y175000D03*
X150000Y150000D03*
X175000Y175000D03*
X225000Y175000D03*
X200000Y200000D03*
X150000Y200000D03*
X100000Y200000D03*
X50000Y200000D03*
X50000Y150000D03*
X50000Y100000D03*
X50000Y50000D03*
X300000Y50000D03*
X300000Y100000D03*
X300000Y150000D03*
X300000Y200000D03*
X300000Y250000D03*
X300000Y300000D03*
X250000Y300000D03*
X200000Y300000D03*
X150000Y300000D03*
X150000Y250000D03*
X175000Y275000D03*
X200000Y250000D03*
X225000Y225000D03*
X225000Y75000D03*
X275000Y75000D03*
X125000Y125000D03*
X125000Y275000D03*
X125000Y225000D03*
X180400Y137600D03*
X175800Y75000D03*
X223800Y100800D03*
X200000Y161900D03*
D21*
X271500Y233000D02*
X272000Y233000D01*
X282441Y243441D01*
X282638Y243642D01*
X282829Y243849D01*
X283016Y244059D01*
X283197Y244275D01*
X283373Y244494D01*
X283543Y244718D01*
X283708Y244947D01*
X283867Y245179D01*
X284021Y245415D01*
X284168Y245654D01*
X284310Y245897D01*
X284446Y246144D01*
X284575Y246394D01*
X284699Y246647D01*
X284816Y246903D01*
X284927Y247161D01*
X285032Y247423D01*
X285130Y247686D01*
X285221Y247953D01*
X285306Y248221D01*
X285385Y248491D01*
X285456Y248763D01*
X285521Y249037D01*
X285580Y249313D01*
X285631Y249589D01*
X285676Y249867D01*
X285714Y250146D01*
X285745Y250426D01*
X285769Y250706D01*
X285786Y250987D01*
X285797Y251268D01*
X285800Y251550D01*
X285800Y272033D01*
X285798Y272214D01*
X285791Y272395D01*
X285781Y272575D01*
X285766Y272755D01*
X285746Y272935D01*
X285723Y273114D01*
X285695Y273293D01*
X285663Y273471D01*
X285626Y273648D01*
X285586Y273825D01*
X285541Y274000D01*
X285492Y274174D01*
X285439Y274347D01*
X285382Y274518D01*
X285321Y274689D01*
X285256Y274857D01*
X285186Y275024D01*
X285113Y275190D01*
X285036Y275353D01*
X284955Y275515D01*
X284870Y275675D01*
X284782Y275832D01*
X284690Y275988D01*
X284594Y276141D01*
X284494Y276292D01*
X284391Y276441D01*
X284284Y276587D01*
X284174Y276730D01*
X284061Y276871D01*
X283944Y277009D01*
X283824Y277145D01*
X283701Y277277D01*
X283574Y277406D01*
X283376Y277599D01*
X283174Y277786D01*
X282967Y277969D01*
X282756Y278147D01*
X282541Y278320D01*
X282321Y278487D01*
X282097Y278648D01*
X281870Y278805D01*
X281638Y278955D01*
X281403Y279100D01*
X281165Y279239D01*
X280923Y279372D01*
X280678Y279499D01*
X280430Y279620D01*
X280179Y279735D01*
X279925Y279844D01*
X279669Y279946D01*
X279410Y280043D01*
X279149Y280132D01*
X278886Y280216D01*
X278621Y280293D01*
X278354Y280363D01*
X278085Y280427D01*
X277815Y280484D01*
X277544Y280534D01*
X277271Y280578D01*
X276998Y280615D01*
X276723Y280646D01*
X276448Y280670D01*
X276173Y280686D01*
X275897Y280697D01*
X275621Y280700D01*
X244666Y280700D01*
X244666Y280701D02*
X244477Y280699D01*
X244289Y280692D01*
X244100Y280681D01*
X243912Y280665D01*
X243725Y280645D01*
X243538Y280620D01*
X243351Y280591D01*
X243166Y280558D01*
X242981Y280520D01*
X242797Y280478D01*
X242614Y280431D01*
X242433Y280380D01*
X242252Y280325D01*
X242073Y280265D01*
X241896Y280201D01*
X241720Y280133D01*
X241546Y280061D01*
X241373Y279985D01*
X241202Y279904D01*
X241034Y279820D01*
X240867Y279731D01*
X240702Y279639D01*
X240540Y279543D01*
X240380Y279443D01*
X240223Y279339D01*
X240068Y279231D01*
X239916Y279120D01*
X239766Y279005D01*
X239619Y278887D01*
X239475Y278765D01*
X239334Y278640D01*
X239196Y278511D01*
X239061Y278379D01*
X239061Y278378D02*
X233542Y272858D01*
X233300Y273100D01*
X234900Y258200D02*
X255580Y258200D01*
X234900Y258200D02*
X233300Y256600D01*
X255480Y264800D02*
X255580Y264700D01*
X255480Y264800D02*
X202306Y264800D01*
X201789Y264794D01*
X201273Y264775D01*
X200757Y264745D01*
X200243Y264702D01*
X199729Y264646D01*
X199217Y264579D01*
X198706Y264499D01*
X198198Y264408D01*
X197692Y264304D01*
X197189Y264188D01*
X196688Y264060D01*
X196191Y263921D01*
X195697Y263769D01*
X195207Y263606D01*
X194720Y263431D01*
X194239Y263245D01*
X193761Y263047D01*
X193289Y262838D01*
X192822Y262618D01*
X192360Y262387D01*
X191903Y262145D01*
X191453Y261892D01*
X191009Y261628D01*
X190571Y261354D01*
X190140Y261070D01*
X189715Y260775D01*
X189298Y260471D01*
X188888Y260156D01*
X188486Y259832D01*
X188092Y259498D01*
X187705Y259155D01*
X187327Y258803D01*
X186958Y258442D01*
X186705Y258183D01*
X186458Y257918D01*
X186217Y257647D01*
X185983Y257371D01*
X185756Y257089D01*
X185536Y256801D01*
X185322Y256509D01*
X185115Y256211D01*
X184916Y255909D01*
X184724Y255602D01*
X184539Y255291D01*
X184362Y254975D01*
X184192Y254655D01*
X184030Y254331D01*
X183875Y254003D01*
X183729Y253672D01*
X183590Y253337D01*
X183460Y253000D01*
X183337Y252659D01*
X183223Y252315D01*
X183116Y251969D01*
X183019Y251620D01*
X182929Y251269D01*
X182848Y250916D01*
X182775Y250561D01*
X182711Y250205D01*
X182655Y249847D01*
X182608Y249488D01*
X182569Y249128D01*
X182539Y248767D01*
X182517Y248405D01*
X182504Y248043D01*
X182500Y247681D01*
X182500Y230900D01*
X269165Y264700D02*
X274820Y264700D01*
X269165Y264700D02*
X269046Y264698D01*
X268926Y264693D01*
X268807Y264683D01*
X268689Y264670D01*
X268571Y264653D01*
X268453Y264633D01*
X268336Y264608D01*
X268220Y264581D01*
X268105Y264549D01*
X267991Y264514D01*
X267878Y264475D01*
X267766Y264433D01*
X267656Y264388D01*
X267547Y264338D01*
X267440Y264286D01*
X267335Y264230D01*
X267231Y264171D01*
X267129Y264109D01*
X267030Y264043D01*
X266932Y263974D01*
X266837Y263903D01*
X266743Y263828D01*
X266653Y263751D01*
X266564Y263670D01*
X266479Y263587D01*
X266478Y263587D02*
X266380Y263485D01*
X266284Y263381D01*
X266191Y263274D01*
X266101Y263165D01*
X266014Y263053D01*
X265931Y262939D01*
X265851Y262822D01*
X265774Y262703D01*
X265700Y262582D01*
X265630Y262459D01*
X265563Y262335D01*
X265500Y262208D01*
X265440Y262079D01*
X265384Y261949D01*
X265332Y261818D01*
X265283Y261685D01*
X265238Y261551D01*
X265197Y261415D01*
X265160Y261279D01*
X265127Y261141D01*
X265097Y261003D01*
X265071Y260863D01*
X265050Y260724D01*
X265032Y260583D01*
X265018Y260442D01*
X265008Y260301D01*
X265002Y260160D01*
X265000Y260018D01*
X265000Y255879D01*
X264997Y255620D01*
X264987Y255360D01*
X264971Y255101D01*
X264949Y254843D01*
X264920Y254585D01*
X264886Y254328D01*
X264844Y254072D01*
X264797Y253817D01*
X264743Y253563D01*
X264683Y253310D01*
X264617Y253060D01*
X264545Y252810D01*
X264466Y252563D01*
X264382Y252318D01*
X264292Y252075D01*
X264195Y251834D01*
X264093Y251595D01*
X263985Y251359D01*
X263871Y251126D01*
X263752Y250896D01*
X263627Y250669D01*
X263496Y250444D01*
X263360Y250224D01*
X263218Y250006D01*
X263072Y249792D01*
X262920Y249582D01*
X262763Y249375D01*
X262600Y249173D01*
X262433Y248974D01*
X262262Y248780D01*
X262085Y248590D01*
X261904Y248404D01*
X246300Y232800D01*
X245400Y232800D01*
D18*
X274820Y264700D02*
X274820Y271200D01*
D22*
X75500Y261300D02*
X75500Y230900D01*
D23*
X245400Y213800D02*
X271300Y213800D01*
D21*
X271500Y214000D01*
X272600Y214000D02*
X279925Y206675D01*
X272600Y214000D02*
X271500Y214000D01*
X279925Y206674D02*
X280259Y206333D01*
X280584Y205984D01*
X280901Y205627D01*
X281209Y205262D01*
X281509Y204890D01*
X281799Y204512D01*
X282081Y204126D01*
X282353Y203734D01*
X282616Y203336D01*
X282869Y202931D01*
X283113Y202521D01*
X283347Y202104D01*
X283570Y201683D01*
X283784Y201256D01*
X283987Y200824D01*
X284181Y200387D01*
X284363Y199946D01*
X284535Y199501D01*
X284697Y199052D01*
X284848Y198599D01*
X284988Y198143D01*
X285117Y197683D01*
X285235Y197221D01*
X285342Y196755D01*
X285438Y196288D01*
X285522Y195818D01*
X285596Y195346D01*
X285658Y194873D01*
X285709Y194399D01*
X285749Y193923D01*
X285777Y193446D01*
X285794Y192969D01*
X285800Y192492D01*
X285800Y130450D01*
X285800Y130451D02*
X285793Y129885D01*
X285773Y129319D01*
X285739Y128754D01*
X285692Y128190D01*
X285632Y127628D01*
X285558Y127066D01*
X285471Y126507D01*
X285370Y125950D01*
X285257Y125396D01*
X285130Y124844D01*
X284990Y124296D01*
X284837Y123751D01*
X284671Y123210D01*
X284492Y122673D01*
X284301Y122140D01*
X284096Y121612D01*
X283880Y121089D01*
X283651Y120572D01*
X283410Y120060D01*
X283156Y119554D01*
X282891Y119054D01*
X282614Y118560D01*
X282325Y118074D01*
X282025Y117594D01*
X281713Y117121D01*
X281390Y116657D01*
X281057Y116199D01*
X280712Y115750D01*
X280357Y115310D01*
X279991Y114878D01*
X279616Y114454D01*
X279230Y114040D01*
X278835Y113635D01*
X278834Y113634D02*
X271916Y106716D01*
X271917Y106716D02*
X271747Y106550D01*
X271573Y106389D01*
X271396Y106231D01*
X271214Y106078D01*
X271029Y105929D01*
X270841Y105784D01*
X270649Y105644D01*
X270454Y105509D01*
X270256Y105378D01*
X270055Y105252D01*
X269850Y105131D01*
X269643Y105014D01*
X269434Y104903D01*
X269221Y104797D01*
X269007Y104696D01*
X268789Y104600D01*
X268570Y104509D01*
X268349Y104423D01*
X268125Y104343D01*
X267900Y104268D01*
X267673Y104198D01*
X267444Y104134D01*
X267214Y104075D01*
X266983Y104022D01*
X266750Y103974D01*
X266516Y103932D01*
X266282Y103896D01*
X266046Y103865D01*
X265810Y103839D01*
X265574Y103819D01*
X265337Y103805D01*
X265099Y103797D01*
X264862Y103794D01*
X261108Y100000D01*
X258000Y100000D01*
D24*
X193500Y108900D02*
X193500Y89200D01*
X192700Y89200D01*
X192700Y89100D02*
X193400Y89100D01*
X192700Y89100D02*
X190900Y89100D01*
X192700Y89100D02*
X192700Y89200D01*
X193400Y89100D02*
X193400Y71300D01*
X190900Y68800D01*
X193356Y66344D01*
X193356Y61743D01*
X193358Y61548D01*
X193366Y61353D01*
X193378Y61159D01*
X193394Y60965D01*
X193416Y60771D01*
X193442Y60578D01*
X193473Y60386D01*
X193509Y60194D01*
X193549Y60004D01*
X193594Y59814D01*
X193644Y59626D01*
X193698Y59439D01*
X193757Y59253D01*
X193820Y59069D01*
X193888Y58886D01*
X193960Y58705D01*
X194037Y58526D01*
X194118Y58349D01*
X194204Y58174D01*
X194293Y58001D01*
X194387Y57830D01*
X194485Y57662D01*
X194588Y57496D01*
X194694Y57333D01*
X194804Y57172D01*
X194918Y57014D01*
X195036Y56859D01*
X195158Y56707D01*
X195283Y56558D01*
X195412Y56412D01*
X195545Y56269D01*
X195681Y56130D01*
X195815Y55999D01*
X195951Y55872D01*
X196091Y55748D01*
X196234Y55628D01*
X196380Y55511D01*
X196529Y55398D01*
X196680Y55289D01*
X196834Y55183D01*
X196991Y55081D01*
X197150Y54983D01*
X197312Y54889D01*
X197475Y54799D01*
X197641Y54713D01*
X197809Y54631D01*
X197979Y54553D01*
X198151Y54479D01*
X198324Y54410D01*
X198499Y54345D01*
X198676Y54284D01*
X198854Y54228D01*
X199034Y54176D01*
X199214Y54128D01*
X199396Y54085D01*
X199579Y54046D01*
X199762Y54012D01*
X199947Y53982D01*
X200132Y53957D01*
X200318Y53937D01*
X200504Y53921D01*
X200690Y53909D01*
X200877Y53902D01*
X201064Y53900D01*
X242328Y53900D01*
X242602Y53903D01*
X242876Y53913D01*
X243150Y53929D01*
X243423Y53952D01*
X243696Y53981D01*
X243967Y54017D01*
X244238Y54060D01*
X244508Y54108D01*
X244777Y54163D01*
X245044Y54225D01*
X245310Y54293D01*
X245574Y54367D01*
X245836Y54447D01*
X246096Y54534D01*
X246354Y54626D01*
X246610Y54725D01*
X246863Y54830D01*
X247114Y54941D01*
X247362Y55058D01*
X247607Y55181D01*
X247849Y55309D01*
X248088Y55443D01*
X248324Y55583D01*
X248556Y55729D01*
X248785Y55880D01*
X249010Y56036D01*
X249232Y56198D01*
X249449Y56365D01*
X249663Y56537D01*
X249872Y56714D01*
X250077Y56896D01*
X250278Y57083D01*
X250474Y57274D01*
X254726Y61526D01*
X254912Y61716D01*
X255093Y61911D01*
X255270Y62110D01*
X255442Y62313D01*
X255608Y62520D01*
X255770Y62731D01*
X255927Y62946D01*
X256079Y63165D01*
X256226Y63387D01*
X256367Y63612D01*
X256502Y63841D01*
X256633Y64073D01*
X256757Y64308D01*
X256876Y64546D01*
X256990Y64786D01*
X257097Y65030D01*
X257199Y65276D01*
X257295Y65524D01*
X257385Y65774D01*
X257469Y66026D01*
X257547Y66281D01*
X257619Y66537D01*
X257685Y66795D01*
X257745Y67054D01*
X257798Y67315D01*
X257845Y67576D01*
X257886Y67839D01*
X257921Y68103D01*
X257949Y68367D01*
X257972Y68633D01*
X257987Y68898D01*
X257997Y69164D01*
X258000Y69430D01*
X258000Y100000D01*
X191356Y108900D02*
X182500Y108900D01*
D25*
X191356Y108900D02*
X193500Y108900D01*
D23*
X171500Y108900D02*
X171500Y117200D01*
X171502Y117388D01*
X171509Y117577D01*
X171520Y117765D01*
X171536Y117953D01*
X171557Y118140D01*
X171582Y118327D01*
X171611Y118513D01*
X171645Y118699D01*
X171684Y118883D01*
X171727Y119067D01*
X171774Y119249D01*
X171826Y119430D01*
X171882Y119610D01*
X171942Y119789D01*
X172007Y119966D01*
X172076Y120141D01*
X172149Y120315D01*
X172226Y120487D01*
X172308Y120657D01*
X172393Y120825D01*
X172483Y120991D01*
X172577Y121154D01*
X172674Y121316D01*
X172776Y121474D01*
X172881Y121631D01*
X172990Y121785D01*
X173102Y121936D01*
X173219Y122084D01*
X173338Y122230D01*
X173462Y122372D01*
X173588Y122512D01*
X173718Y122648D01*
X173852Y122782D01*
X173988Y122912D01*
X174128Y123038D01*
X174270Y123162D01*
X174416Y123281D01*
X174564Y123398D01*
X174715Y123510D01*
X174869Y123619D01*
X175026Y123724D01*
X175184Y123826D01*
X175346Y123923D01*
X175509Y124017D01*
X175675Y124107D01*
X175843Y124192D01*
X176013Y124274D01*
X176185Y124351D01*
X176359Y124424D01*
X176534Y124493D01*
X176711Y124558D01*
X176890Y124618D01*
X177070Y124674D01*
X177251Y124726D01*
X177433Y124773D01*
X177617Y124816D01*
X177801Y124855D01*
X177987Y124889D01*
X178173Y124918D01*
X178360Y124943D01*
X178547Y124964D01*
X178735Y124980D01*
X178923Y124991D01*
X179112Y124998D01*
X179300Y125000D01*
X258000Y125000D01*
X160500Y108900D02*
X160370Y109030D01*
X160370Y130000D01*
X160376Y130483D01*
X160393Y130966D01*
X160423Y131449D01*
X160463Y131930D01*
X160516Y132411D01*
X160580Y132890D01*
X160655Y133367D01*
X160743Y133843D01*
X160841Y134316D01*
X160951Y134786D01*
X161072Y135254D01*
X161205Y135719D01*
X161349Y136180D01*
X161504Y136638D01*
X161670Y137092D01*
X161847Y137542D01*
X162034Y137987D01*
X162233Y138428D01*
X162441Y138864D01*
X162661Y139294D01*
X162891Y139720D01*
X163131Y140139D01*
X163381Y140553D01*
X163641Y140960D01*
X163910Y141361D01*
X164190Y141756D01*
X164478Y142143D01*
X164777Y142524D01*
X165084Y142897D01*
X165400Y143262D01*
X165725Y143620D01*
X166058Y143970D01*
X166400Y144312D01*
X166750Y144645D01*
X167108Y144970D01*
X167473Y145286D01*
X167846Y145593D01*
X168227Y145892D01*
X168614Y146180D01*
X169009Y146460D01*
X169410Y146729D01*
X169817Y146989D01*
X170231Y147239D01*
X170650Y147479D01*
X171076Y147709D01*
X171506Y147929D01*
X171942Y148137D01*
X172383Y148336D01*
X172828Y148523D01*
X173278Y148700D01*
X173732Y148866D01*
X174190Y149021D01*
X174651Y149165D01*
X175116Y149298D01*
X175584Y149419D01*
X176054Y149529D01*
X176527Y149627D01*
X177003Y149715D01*
X177480Y149790D01*
X177959Y149854D01*
X178440Y149907D01*
X178921Y149947D01*
X179404Y149977D01*
X179887Y149994D01*
X180370Y150000D01*
X258000Y150000D01*
D19*
X110000Y300000D03*
X110000Y250000D03*
X42500Y300000D03*
X42500Y250000D03*
X50000Y213500D03*
X100000Y213500D03*
X65700Y247100D03*
X85400Y247100D03*
X86800Y258100D03*
X64150Y258170D03*
X85000Y217200D03*
X110000Y275000D03*
X42500Y275000D03*
X42500Y225000D03*
X62700Y303300D03*
X87700Y303300D03*
D18*
X85000Y219086D02*
X66956Y219086D01*
X85000Y219086D02*
X85000Y217200D01*
X66956Y247100D02*
X65700Y247100D01*
D23*
X66956Y247100D02*
X66956Y219086D01*
X85400Y247080D02*
X85400Y247100D01*
X85400Y247080D02*
X84234Y247080D01*
X84034Y247080D01*
X84234Y247090D02*
X84384Y247090D01*
X84034Y218166D02*
X85000Y217200D01*
X84234Y247080D02*
X84234Y247090D01*
X84034Y247080D02*
X84034Y218166D01*
D19*
X66000Y217200D03*
M02*
