M48
;GenerationSoftware,Autodesk,EAGLE,9.6.2*%
;CreationDate,2023-01-04T06:24:05Z*%
FMAT,2
ICI,OFF
METRIC,TZ,000.000
T3C0.350
T2C1.016
T1C2.700
%
G90
M71
T1
X0Y0
X35000Y0
X35000Y35000
X0Y35000
T2
X25800Y17500
X25800Y10000
X25800Y12500
X25800Y15000
T3
X7500Y17500
X12500Y17500
X15000Y15000
X17500Y17500
X22500Y17500
X20000Y20000
X15000Y20000
X10000Y20000
X5000Y20000
X5000Y15000
X5000Y10000
X5000Y5000
X30000Y5000
X30000Y10000
X30000Y15000
X30000Y20000
X30000Y25000
X30000Y30000
X25000Y30000
X20000Y30000
X15000Y30000
X15000Y25000
X17500Y27500
X20000Y25000
X22500Y22500
X22500Y7500
X27500Y7500
X12500Y12500
X12500Y27500
X12500Y22500
X18040Y13760
X17580Y7500
X22380Y10080
X20000Y16190
X11000Y30000
X11000Y25000
X4250Y30000
X4250Y25000
X5000Y21350
X10000Y21350
X6570Y24710
X8540Y24710
X27470Y25010
X6415Y25817
X8500Y21720
X11000Y27500
X4250Y27500
X4250Y22500
X6270Y30330
X8770Y30330
X8680Y25810
X24490Y27160
X23457Y13750
X7500Y7500
X12500Y7500
X10000Y5000
X15000Y5000
X10000Y15000
X6600Y21720
M30