G04 EAGLE Gerber RS-274X export*
G75*
%MOMM*%
%FSLAX34Y34*%
%LPD*%
%INSilk screen CMP*%
%IPPOS*%
%AMOC8*
5,1,8,0,0,1.08239X$1,22.5*%
G01*
%ADD10C,0.177800*%
%ADD11C,0.203200*%
%ADD12C,0.152400*%
%ADD13C,0.101600*%
%ADD14C,0.500000*%
%ADD15C,0.120000*%

G36*
X233339Y262346D02*
X233339Y262346D01*
X233386Y262344D01*
X233460Y262365D01*
X233536Y262376D01*
X233578Y262398D01*
X233623Y262410D01*
X233686Y262454D01*
X233755Y262489D01*
X233787Y262523D01*
X233826Y262549D01*
X233911Y262652D01*
X233926Y262666D01*
X233928Y262671D01*
X233933Y262678D01*
X235933Y265678D01*
X235982Y265786D01*
X236033Y265895D01*
X236034Y265899D01*
X236035Y265902D01*
X236047Y266021D01*
X236060Y266139D01*
X236059Y266143D01*
X236060Y266146D01*
X236033Y266263D01*
X236008Y266380D01*
X236006Y266383D01*
X236005Y266386D01*
X235943Y266488D01*
X235882Y266591D01*
X235879Y266593D01*
X235877Y266596D01*
X235785Y266673D01*
X235695Y266751D01*
X235692Y266752D01*
X235689Y266754D01*
X235578Y266798D01*
X235467Y266843D01*
X235463Y266843D01*
X235460Y266844D01*
X235448Y266845D01*
X235300Y266861D01*
X231300Y266861D01*
X231183Y266842D01*
X231064Y266824D01*
X231061Y266822D01*
X231057Y266822D01*
X230953Y266766D01*
X230845Y266711D01*
X230843Y266708D01*
X230840Y266706D01*
X230758Y266620D01*
X230674Y266534D01*
X230673Y266531D01*
X230671Y266528D01*
X230621Y266420D01*
X230569Y266312D01*
X230568Y266308D01*
X230567Y266305D01*
X230554Y266188D01*
X230539Y266068D01*
X230540Y266064D01*
X230540Y266061D01*
X230565Y265944D01*
X230590Y265827D01*
X230591Y265823D01*
X230592Y265820D01*
X230598Y265810D01*
X230667Y265678D01*
X232667Y262678D01*
X232698Y262644D01*
X232723Y262604D01*
X232782Y262554D01*
X232834Y262498D01*
X232875Y262476D01*
X232911Y262446D01*
X232983Y262417D01*
X233051Y262381D01*
X233097Y262373D01*
X233140Y262356D01*
X233217Y262352D01*
X233293Y262339D01*
X233339Y262346D01*
G37*
D10*
X224089Y286923D02*
X224089Y291777D01*
X224091Y291885D01*
X224097Y291993D01*
X224106Y292101D01*
X224120Y292209D01*
X224137Y292316D01*
X224158Y292422D01*
X224183Y292527D01*
X224212Y292632D01*
X224244Y292735D01*
X224280Y292837D01*
X224320Y292938D01*
X224363Y293037D01*
X224410Y293135D01*
X224460Y293231D01*
X224514Y293325D01*
X224571Y293417D01*
X224631Y293507D01*
X224694Y293595D01*
X224761Y293681D01*
X224830Y293764D01*
X224902Y293844D01*
X224978Y293922D01*
X225056Y293998D01*
X225136Y294070D01*
X225219Y294139D01*
X225305Y294206D01*
X225393Y294269D01*
X225483Y294329D01*
X225575Y294386D01*
X225669Y294440D01*
X225765Y294490D01*
X225863Y294537D01*
X225962Y294580D01*
X226063Y294620D01*
X226165Y294656D01*
X226268Y294688D01*
X226373Y294717D01*
X226478Y294742D01*
X226584Y294763D01*
X226691Y294780D01*
X226799Y294794D01*
X226907Y294803D01*
X227015Y294809D01*
X227123Y294811D01*
X227231Y294809D01*
X227339Y294803D01*
X227447Y294794D01*
X227555Y294780D01*
X227662Y294763D01*
X227768Y294742D01*
X227873Y294717D01*
X227978Y294688D01*
X228081Y294656D01*
X228183Y294620D01*
X228284Y294580D01*
X228383Y294537D01*
X228481Y294490D01*
X228577Y294440D01*
X228671Y294386D01*
X228763Y294329D01*
X228853Y294269D01*
X228941Y294206D01*
X229027Y294139D01*
X229110Y294070D01*
X229190Y293998D01*
X229268Y293922D01*
X229344Y293844D01*
X229416Y293764D01*
X229485Y293681D01*
X229552Y293595D01*
X229615Y293507D01*
X229675Y293417D01*
X229732Y293325D01*
X229786Y293231D01*
X229836Y293135D01*
X229883Y293037D01*
X229926Y292938D01*
X229966Y292837D01*
X230002Y292735D01*
X230034Y292632D01*
X230063Y292527D01*
X230088Y292422D01*
X230109Y292316D01*
X230126Y292209D01*
X230140Y292101D01*
X230149Y291993D01*
X230155Y291885D01*
X230157Y291777D01*
X230157Y286923D01*
X230155Y286815D01*
X230149Y286707D01*
X230140Y286599D01*
X230126Y286491D01*
X230109Y286384D01*
X230088Y286278D01*
X230063Y286173D01*
X230034Y286068D01*
X230002Y285965D01*
X229966Y285863D01*
X229926Y285762D01*
X229883Y285663D01*
X229836Y285565D01*
X229786Y285469D01*
X229732Y285375D01*
X229675Y285283D01*
X229615Y285193D01*
X229552Y285105D01*
X229485Y285019D01*
X229416Y284936D01*
X229344Y284856D01*
X229268Y284778D01*
X229190Y284702D01*
X229110Y284630D01*
X229027Y284561D01*
X228941Y284494D01*
X228853Y284431D01*
X228763Y284371D01*
X228671Y284314D01*
X228577Y284260D01*
X228481Y284210D01*
X228383Y284163D01*
X228284Y284120D01*
X228183Y284080D01*
X228081Y284044D01*
X227978Y284012D01*
X227873Y283983D01*
X227768Y283958D01*
X227662Y283937D01*
X227555Y283920D01*
X227447Y283906D01*
X227339Y283897D01*
X227231Y283891D01*
X227123Y283889D01*
X227015Y283891D01*
X226907Y283897D01*
X226799Y283906D01*
X226691Y283920D01*
X226584Y283937D01*
X226478Y283958D01*
X226373Y283983D01*
X226268Y284012D01*
X226165Y284044D01*
X226063Y284080D01*
X225962Y284120D01*
X225863Y284163D01*
X225765Y284210D01*
X225669Y284260D01*
X225575Y284314D01*
X225483Y284371D01*
X225393Y284431D01*
X225305Y284494D01*
X225219Y284561D01*
X225136Y284630D01*
X225056Y284702D01*
X224978Y284778D01*
X224902Y284856D01*
X224830Y284936D01*
X224761Y285019D01*
X224694Y285105D01*
X224631Y285193D01*
X224571Y285283D01*
X224514Y285375D01*
X224460Y285469D01*
X224410Y285565D01*
X224363Y285663D01*
X224320Y285762D01*
X224280Y285863D01*
X224244Y285965D01*
X224212Y286068D01*
X224183Y286173D01*
X224158Y286278D01*
X224137Y286384D01*
X224120Y286491D01*
X224106Y286599D01*
X224097Y286707D01*
X224091Y286815D01*
X224089Y286923D01*
X235900Y283889D02*
X235900Y294811D01*
X241968Y283889D01*
X241968Y294811D01*
X239711Y82423D02*
X239711Y79389D01*
X239711Y82423D02*
X239709Y82531D01*
X239703Y82639D01*
X239694Y82747D01*
X239680Y82855D01*
X239663Y82962D01*
X239642Y83068D01*
X239617Y83173D01*
X239588Y83278D01*
X239556Y83381D01*
X239520Y83483D01*
X239480Y83584D01*
X239437Y83683D01*
X239390Y83781D01*
X239340Y83877D01*
X239286Y83971D01*
X239229Y84063D01*
X239169Y84153D01*
X239106Y84241D01*
X239039Y84327D01*
X238970Y84410D01*
X238898Y84490D01*
X238822Y84568D01*
X238744Y84644D01*
X238664Y84716D01*
X238581Y84785D01*
X238495Y84852D01*
X238407Y84915D01*
X238317Y84975D01*
X238225Y85032D01*
X238131Y85086D01*
X238035Y85136D01*
X237937Y85183D01*
X237838Y85226D01*
X237737Y85266D01*
X237635Y85302D01*
X237532Y85334D01*
X237427Y85363D01*
X237322Y85388D01*
X237216Y85409D01*
X237109Y85426D01*
X237001Y85440D01*
X236893Y85449D01*
X236785Y85455D01*
X236677Y85457D01*
X236569Y85455D01*
X236461Y85449D01*
X236353Y85440D01*
X236245Y85426D01*
X236138Y85409D01*
X236032Y85388D01*
X235927Y85363D01*
X235822Y85334D01*
X235719Y85302D01*
X235617Y85266D01*
X235516Y85226D01*
X235417Y85183D01*
X235319Y85136D01*
X235223Y85086D01*
X235129Y85032D01*
X235037Y84975D01*
X234947Y84915D01*
X234859Y84852D01*
X234773Y84785D01*
X234690Y84716D01*
X234610Y84644D01*
X234532Y84568D01*
X234456Y84490D01*
X234384Y84410D01*
X234315Y84327D01*
X234248Y84241D01*
X234185Y84153D01*
X234125Y84063D01*
X234068Y83971D01*
X234014Y83877D01*
X233964Y83781D01*
X233917Y83683D01*
X233874Y83584D01*
X233834Y83483D01*
X233798Y83381D01*
X233766Y83278D01*
X233737Y83173D01*
X233712Y83068D01*
X233691Y82962D01*
X233674Y82855D01*
X233660Y82747D01*
X233651Y82639D01*
X233645Y82531D01*
X233643Y82423D01*
X228789Y83030D02*
X228789Y79389D01*
X228789Y83030D02*
X228791Y83128D01*
X228797Y83225D01*
X228807Y83323D01*
X228820Y83419D01*
X228838Y83515D01*
X228860Y83611D01*
X228885Y83705D01*
X228914Y83799D01*
X228947Y83891D01*
X228983Y83981D01*
X229023Y84070D01*
X229067Y84158D01*
X229114Y84244D01*
X229165Y84327D01*
X229219Y84409D01*
X229276Y84488D01*
X229336Y84565D01*
X229399Y84639D01*
X229466Y84711D01*
X229535Y84780D01*
X229607Y84847D01*
X229681Y84910D01*
X229758Y84970D01*
X229837Y85027D01*
X229919Y85081D01*
X230003Y85132D01*
X230088Y85179D01*
X230176Y85223D01*
X230265Y85263D01*
X230355Y85299D01*
X230447Y85332D01*
X230541Y85361D01*
X230635Y85386D01*
X230731Y85408D01*
X230827Y85426D01*
X230923Y85439D01*
X231021Y85449D01*
X231118Y85455D01*
X231216Y85457D01*
X231314Y85455D01*
X231411Y85449D01*
X231509Y85439D01*
X231605Y85426D01*
X231701Y85408D01*
X231797Y85386D01*
X231891Y85361D01*
X231985Y85332D01*
X232077Y85299D01*
X232167Y85263D01*
X232256Y85223D01*
X232344Y85179D01*
X232430Y85132D01*
X232513Y85081D01*
X232595Y85027D01*
X232674Y84970D01*
X232751Y84910D01*
X232825Y84847D01*
X232897Y84780D01*
X232966Y84711D01*
X233033Y84639D01*
X233096Y84565D01*
X233156Y84488D01*
X233213Y84409D01*
X233267Y84327D01*
X233318Y84244D01*
X233365Y84158D01*
X233409Y84070D01*
X233449Y83981D01*
X233485Y83891D01*
X233518Y83799D01*
X233547Y83705D01*
X233572Y83611D01*
X233594Y83515D01*
X233612Y83419D01*
X233625Y83323D01*
X233635Y83225D01*
X233641Y83128D01*
X233643Y83030D01*
X233643Y80603D01*
X228789Y90212D02*
X239711Y93853D01*
X228789Y97494D01*
X239711Y102249D02*
X239711Y105283D01*
X239709Y105391D01*
X239703Y105499D01*
X239694Y105607D01*
X239680Y105715D01*
X239663Y105822D01*
X239642Y105928D01*
X239617Y106033D01*
X239588Y106138D01*
X239556Y106241D01*
X239520Y106343D01*
X239480Y106444D01*
X239437Y106543D01*
X239390Y106641D01*
X239340Y106737D01*
X239286Y106831D01*
X239229Y106923D01*
X239169Y107013D01*
X239106Y107101D01*
X239039Y107187D01*
X238970Y107270D01*
X238898Y107350D01*
X238822Y107428D01*
X238744Y107504D01*
X238664Y107576D01*
X238581Y107645D01*
X238495Y107712D01*
X238407Y107775D01*
X238317Y107835D01*
X238225Y107892D01*
X238131Y107946D01*
X238035Y107996D01*
X237937Y108043D01*
X237838Y108086D01*
X237737Y108126D01*
X237635Y108162D01*
X237532Y108194D01*
X237427Y108223D01*
X237322Y108248D01*
X237216Y108269D01*
X237109Y108286D01*
X237001Y108300D01*
X236893Y108309D01*
X236785Y108315D01*
X236677Y108317D01*
X236569Y108315D01*
X236461Y108309D01*
X236353Y108300D01*
X236245Y108286D01*
X236138Y108269D01*
X236032Y108248D01*
X235927Y108223D01*
X235822Y108194D01*
X235719Y108162D01*
X235617Y108126D01*
X235516Y108086D01*
X235417Y108043D01*
X235319Y107996D01*
X235223Y107946D01*
X235129Y107892D01*
X235037Y107835D01*
X234947Y107775D01*
X234859Y107712D01*
X234773Y107645D01*
X234690Y107576D01*
X234610Y107504D01*
X234532Y107428D01*
X234456Y107350D01*
X234384Y107270D01*
X234315Y107187D01*
X234248Y107101D01*
X234185Y107013D01*
X234125Y106923D01*
X234068Y106831D01*
X234014Y106737D01*
X233964Y106641D01*
X233917Y106543D01*
X233874Y106444D01*
X233834Y106343D01*
X233798Y106241D01*
X233766Y106138D01*
X233737Y106033D01*
X233712Y105928D01*
X233691Y105822D01*
X233674Y105715D01*
X233660Y105607D01*
X233651Y105499D01*
X233645Y105391D01*
X233643Y105283D01*
X228789Y105890D02*
X228789Y102249D01*
X228789Y105890D02*
X228791Y105988D01*
X228797Y106085D01*
X228807Y106183D01*
X228820Y106279D01*
X228838Y106375D01*
X228860Y106471D01*
X228885Y106565D01*
X228914Y106659D01*
X228947Y106751D01*
X228983Y106841D01*
X229023Y106930D01*
X229067Y107018D01*
X229114Y107104D01*
X229165Y107187D01*
X229219Y107269D01*
X229276Y107348D01*
X229336Y107425D01*
X229399Y107499D01*
X229466Y107571D01*
X229535Y107640D01*
X229607Y107707D01*
X229681Y107770D01*
X229758Y107830D01*
X229837Y107887D01*
X229919Y107941D01*
X230003Y107992D01*
X230088Y108039D01*
X230176Y108083D01*
X230265Y108123D01*
X230355Y108159D01*
X230447Y108192D01*
X230541Y108221D01*
X230635Y108246D01*
X230731Y108268D01*
X230827Y108286D01*
X230923Y108299D01*
X231021Y108309D01*
X231118Y108315D01*
X231216Y108317D01*
X231314Y108315D01*
X231411Y108309D01*
X231509Y108299D01*
X231605Y108286D01*
X231701Y108268D01*
X231797Y108246D01*
X231891Y108221D01*
X231985Y108192D01*
X232077Y108159D01*
X232167Y108123D01*
X232256Y108083D01*
X232344Y108039D01*
X232430Y107992D01*
X232513Y107941D01*
X232595Y107887D01*
X232674Y107830D01*
X232751Y107770D01*
X232825Y107707D01*
X232897Y107640D01*
X232966Y107571D01*
X233033Y107499D01*
X233096Y107425D01*
X233156Y107348D01*
X233213Y107269D01*
X233267Y107187D01*
X233318Y107104D01*
X233365Y107018D01*
X233409Y106930D01*
X233449Y106841D01*
X233485Y106751D01*
X233518Y106659D01*
X233547Y106565D01*
X233572Y106471D01*
X233594Y106375D01*
X233612Y106279D01*
X233625Y106183D01*
X233635Y106085D01*
X233641Y105988D01*
X233643Y105890D01*
X233643Y103463D01*
X228789Y116989D02*
X239711Y116989D01*
X228789Y116989D02*
X228789Y120023D01*
X228791Y120131D01*
X228797Y120239D01*
X228806Y120347D01*
X228820Y120455D01*
X228837Y120562D01*
X228858Y120668D01*
X228883Y120773D01*
X228912Y120878D01*
X228944Y120981D01*
X228980Y121083D01*
X229020Y121184D01*
X229063Y121283D01*
X229110Y121381D01*
X229160Y121477D01*
X229214Y121571D01*
X229271Y121663D01*
X229331Y121753D01*
X229394Y121841D01*
X229461Y121927D01*
X229530Y122010D01*
X229602Y122090D01*
X229678Y122168D01*
X229756Y122244D01*
X229836Y122316D01*
X229919Y122385D01*
X230005Y122452D01*
X230093Y122515D01*
X230183Y122575D01*
X230275Y122632D01*
X230369Y122686D01*
X230465Y122736D01*
X230563Y122783D01*
X230662Y122826D01*
X230763Y122866D01*
X230865Y122902D01*
X230968Y122934D01*
X231073Y122963D01*
X231178Y122988D01*
X231284Y123009D01*
X231391Y123026D01*
X231499Y123040D01*
X231607Y123049D01*
X231715Y123055D01*
X231823Y123057D01*
X231931Y123055D01*
X232039Y123049D01*
X232147Y123040D01*
X232255Y123026D01*
X232362Y123009D01*
X232468Y122988D01*
X232573Y122963D01*
X232678Y122934D01*
X232781Y122902D01*
X232883Y122866D01*
X232984Y122826D01*
X233083Y122783D01*
X233181Y122736D01*
X233277Y122686D01*
X233371Y122632D01*
X233463Y122575D01*
X233553Y122515D01*
X233641Y122452D01*
X233727Y122385D01*
X233810Y122316D01*
X233890Y122244D01*
X233968Y122168D01*
X234044Y122090D01*
X234116Y122010D01*
X234185Y121927D01*
X234252Y121841D01*
X234315Y121753D01*
X234375Y121663D01*
X234432Y121571D01*
X234486Y121477D01*
X234536Y121381D01*
X234583Y121283D01*
X234626Y121184D01*
X234666Y121083D01*
X234702Y120981D01*
X234734Y120878D01*
X234763Y120773D01*
X234788Y120668D01*
X234809Y120562D01*
X234826Y120455D01*
X234840Y120347D01*
X234849Y120239D01*
X234855Y120131D01*
X234857Y120023D01*
X234857Y116989D01*
X234857Y120630D02*
X239711Y123057D01*
X239711Y127782D02*
X232430Y132636D01*
X232430Y127782D02*
X239711Y132636D01*
X239711Y144523D02*
X228789Y144523D01*
X228789Y141489D02*
X228789Y147557D01*
X232430Y156475D02*
X239711Y151621D01*
X239711Y156475D02*
X232430Y151621D01*
X233643Y169436D02*
X233643Y171257D01*
X239711Y171257D01*
X239711Y167616D01*
X239709Y167518D01*
X239703Y167421D01*
X239693Y167323D01*
X239680Y167227D01*
X239662Y167131D01*
X239640Y167035D01*
X239615Y166941D01*
X239586Y166847D01*
X239553Y166755D01*
X239517Y166665D01*
X239477Y166576D01*
X239433Y166488D01*
X239386Y166403D01*
X239335Y166319D01*
X239281Y166237D01*
X239224Y166158D01*
X239164Y166081D01*
X239101Y166007D01*
X239034Y165935D01*
X238965Y165866D01*
X238893Y165799D01*
X238819Y165736D01*
X238742Y165676D01*
X238663Y165619D01*
X238581Y165565D01*
X238498Y165514D01*
X238412Y165467D01*
X238324Y165423D01*
X238235Y165383D01*
X238145Y165347D01*
X238053Y165314D01*
X237959Y165285D01*
X237865Y165260D01*
X237769Y165238D01*
X237673Y165220D01*
X237577Y165207D01*
X237479Y165197D01*
X237382Y165191D01*
X237284Y165189D01*
X231216Y165189D01*
X231118Y165191D01*
X231021Y165197D01*
X230923Y165207D01*
X230827Y165220D01*
X230731Y165238D01*
X230635Y165260D01*
X230541Y165285D01*
X230447Y165314D01*
X230355Y165347D01*
X230265Y165383D01*
X230176Y165423D01*
X230088Y165467D01*
X230003Y165514D01*
X229919Y165565D01*
X229837Y165619D01*
X229758Y165676D01*
X229681Y165736D01*
X229607Y165799D01*
X229535Y165866D01*
X229466Y165935D01*
X229399Y166007D01*
X229336Y166081D01*
X229276Y166158D01*
X229219Y166237D01*
X229165Y166319D01*
X229114Y166402D01*
X229067Y166488D01*
X229023Y166576D01*
X228983Y166665D01*
X228947Y166755D01*
X228914Y166847D01*
X228885Y166941D01*
X228860Y167035D01*
X228838Y167131D01*
X228820Y167227D01*
X228807Y167323D01*
X228797Y167421D01*
X228791Y167518D01*
X228789Y167616D01*
X228789Y171257D01*
X228789Y177381D02*
X239711Y177381D01*
X239711Y183449D02*
X228789Y177381D01*
X228789Y183449D02*
X239711Y183449D01*
X239711Y189573D02*
X228789Y189573D01*
X228789Y192607D01*
X228791Y192715D01*
X228797Y192823D01*
X228806Y192931D01*
X228820Y193039D01*
X228837Y193146D01*
X228858Y193252D01*
X228883Y193357D01*
X228912Y193462D01*
X228944Y193565D01*
X228980Y193667D01*
X229020Y193768D01*
X229063Y193867D01*
X229110Y193965D01*
X229160Y194061D01*
X229214Y194155D01*
X229271Y194247D01*
X229331Y194337D01*
X229394Y194425D01*
X229461Y194511D01*
X229530Y194594D01*
X229602Y194674D01*
X229678Y194752D01*
X229756Y194828D01*
X229836Y194900D01*
X229919Y194969D01*
X230005Y195036D01*
X230093Y195099D01*
X230183Y195159D01*
X230275Y195216D01*
X230369Y195270D01*
X230465Y195320D01*
X230563Y195367D01*
X230662Y195410D01*
X230763Y195450D01*
X230865Y195486D01*
X230968Y195518D01*
X231073Y195547D01*
X231178Y195572D01*
X231284Y195593D01*
X231391Y195610D01*
X231499Y195624D01*
X231607Y195633D01*
X231715Y195639D01*
X231823Y195641D01*
X236677Y195641D01*
X236785Y195639D01*
X236893Y195633D01*
X237001Y195624D01*
X237109Y195610D01*
X237216Y195593D01*
X237322Y195572D01*
X237427Y195547D01*
X237532Y195518D01*
X237635Y195486D01*
X237737Y195450D01*
X237838Y195410D01*
X237937Y195367D01*
X238035Y195320D01*
X238131Y195270D01*
X238225Y195216D01*
X238317Y195159D01*
X238407Y195099D01*
X238495Y195036D01*
X238581Y194969D01*
X238664Y194900D01*
X238744Y194828D01*
X238822Y194752D01*
X238898Y194674D01*
X238970Y194594D01*
X239039Y194511D01*
X239106Y194425D01*
X239169Y194337D01*
X239229Y194247D01*
X239286Y194155D01*
X239340Y194061D01*
X239390Y193965D01*
X239437Y193867D01*
X239480Y193768D01*
X239520Y193667D01*
X239556Y193565D01*
X239588Y193462D01*
X239617Y193357D01*
X239642Y193252D01*
X239663Y193146D01*
X239680Y193039D01*
X239694Y192931D01*
X239703Y192823D01*
X239709Y192715D01*
X239711Y192607D01*
X239711Y189573D01*
D11*
X33034Y316110D02*
X20820Y328324D01*
X20142Y322217D01*
X20820Y328324D02*
X26927Y329002D01*
D12*
X57040Y108900D02*
X211960Y108900D01*
X212060Y108902D01*
X212159Y108908D01*
X212259Y108918D01*
X212357Y108931D01*
X212456Y108949D01*
X212553Y108970D01*
X212649Y108995D01*
X212745Y109024D01*
X212839Y109057D01*
X212932Y109093D01*
X213023Y109133D01*
X213113Y109177D01*
X213201Y109224D01*
X213287Y109274D01*
X213371Y109328D01*
X213453Y109385D01*
X213532Y109445D01*
X213610Y109509D01*
X213684Y109575D01*
X213756Y109644D01*
X213825Y109716D01*
X213891Y109790D01*
X213955Y109868D01*
X214015Y109947D01*
X214072Y110029D01*
X214126Y110113D01*
X214176Y110199D01*
X214223Y110287D01*
X214267Y110377D01*
X214307Y110468D01*
X214343Y110561D01*
X214376Y110655D01*
X214405Y110751D01*
X214430Y110847D01*
X214451Y110944D01*
X214469Y111043D01*
X214482Y111141D01*
X214492Y111241D01*
X214498Y111340D01*
X214500Y111440D01*
X214500Y228360D01*
X214498Y228460D01*
X214492Y228559D01*
X214482Y228659D01*
X214469Y228757D01*
X214451Y228856D01*
X214430Y228953D01*
X214405Y229049D01*
X214376Y229145D01*
X214343Y229239D01*
X214307Y229332D01*
X214267Y229423D01*
X214223Y229513D01*
X214176Y229601D01*
X214126Y229687D01*
X214072Y229771D01*
X214015Y229853D01*
X213955Y229932D01*
X213891Y230010D01*
X213825Y230084D01*
X213756Y230156D01*
X213684Y230225D01*
X213610Y230291D01*
X213532Y230355D01*
X213453Y230415D01*
X213371Y230472D01*
X213287Y230526D01*
X213201Y230576D01*
X213113Y230623D01*
X213023Y230667D01*
X212932Y230707D01*
X212839Y230743D01*
X212745Y230776D01*
X212649Y230805D01*
X212553Y230830D01*
X212456Y230851D01*
X212357Y230869D01*
X212259Y230882D01*
X212159Y230892D01*
X212060Y230898D01*
X211960Y230900D01*
X57040Y230900D01*
X56940Y230898D01*
X56841Y230892D01*
X56741Y230882D01*
X56643Y230869D01*
X56544Y230851D01*
X56447Y230830D01*
X56351Y230805D01*
X56255Y230776D01*
X56161Y230743D01*
X56068Y230707D01*
X55977Y230667D01*
X55887Y230623D01*
X55799Y230576D01*
X55713Y230526D01*
X55629Y230472D01*
X55547Y230415D01*
X55468Y230355D01*
X55390Y230291D01*
X55316Y230225D01*
X55244Y230156D01*
X55175Y230084D01*
X55109Y230010D01*
X55045Y229932D01*
X54985Y229853D01*
X54928Y229771D01*
X54874Y229687D01*
X54824Y229601D01*
X54777Y229513D01*
X54733Y229423D01*
X54693Y229332D01*
X54657Y229239D01*
X54624Y229145D01*
X54595Y229049D01*
X54570Y228953D01*
X54549Y228856D01*
X54531Y228757D01*
X54518Y228659D01*
X54508Y228559D01*
X54502Y228460D01*
X54500Y228360D01*
X54500Y111440D01*
X54502Y111340D01*
X54508Y111241D01*
X54518Y111141D01*
X54531Y111043D01*
X54549Y110944D01*
X54570Y110847D01*
X54595Y110751D01*
X54624Y110655D01*
X54657Y110561D01*
X54693Y110468D01*
X54733Y110377D01*
X54777Y110287D01*
X54824Y110199D01*
X54874Y110113D01*
X54928Y110029D01*
X54985Y109947D01*
X55045Y109868D01*
X55109Y109790D01*
X55175Y109716D01*
X55244Y109644D01*
X55316Y109575D01*
X55390Y109509D01*
X55468Y109445D01*
X55547Y109385D01*
X55629Y109328D01*
X55713Y109274D01*
X55799Y109224D01*
X55887Y109177D01*
X55977Y109133D01*
X56068Y109093D01*
X56161Y109057D01*
X56255Y109024D01*
X56351Y108995D01*
X56447Y108970D01*
X56544Y108949D01*
X56643Y108931D01*
X56741Y108918D01*
X56841Y108908D01*
X56940Y108902D01*
X57040Y108900D01*
D13*
X224808Y214745D02*
X236492Y214745D01*
X224808Y214745D02*
X224808Y217990D01*
X224810Y218103D01*
X224816Y218216D01*
X224826Y218329D01*
X224840Y218442D01*
X224857Y218554D01*
X224879Y218665D01*
X224904Y218775D01*
X224934Y218885D01*
X224967Y218993D01*
X225004Y219100D01*
X225044Y219206D01*
X225089Y219310D01*
X225137Y219413D01*
X225188Y219514D01*
X225243Y219613D01*
X225301Y219710D01*
X225363Y219805D01*
X225428Y219898D01*
X225496Y219988D01*
X225567Y220076D01*
X225642Y220162D01*
X225719Y220245D01*
X225799Y220325D01*
X225882Y220402D01*
X225968Y220477D01*
X226056Y220548D01*
X226146Y220616D01*
X226239Y220681D01*
X226334Y220743D01*
X226431Y220801D01*
X226530Y220856D01*
X226631Y220907D01*
X226734Y220955D01*
X226838Y221000D01*
X226944Y221040D01*
X227051Y221077D01*
X227159Y221110D01*
X227269Y221140D01*
X227379Y221165D01*
X227490Y221187D01*
X227602Y221204D01*
X227715Y221218D01*
X227828Y221228D01*
X227941Y221234D01*
X228054Y221236D01*
X228167Y221234D01*
X228280Y221228D01*
X228393Y221218D01*
X228506Y221204D01*
X228618Y221187D01*
X228729Y221165D01*
X228839Y221140D01*
X228949Y221110D01*
X229057Y221077D01*
X229164Y221040D01*
X229270Y221000D01*
X229374Y220955D01*
X229477Y220907D01*
X229578Y220856D01*
X229677Y220801D01*
X229774Y220743D01*
X229869Y220681D01*
X229962Y220616D01*
X230052Y220548D01*
X230140Y220477D01*
X230226Y220402D01*
X230309Y220325D01*
X230389Y220245D01*
X230466Y220162D01*
X230541Y220076D01*
X230612Y219988D01*
X230680Y219898D01*
X230745Y219805D01*
X230807Y219710D01*
X230865Y219613D01*
X230920Y219514D01*
X230971Y219413D01*
X231019Y219310D01*
X231064Y219206D01*
X231104Y219100D01*
X231141Y218993D01*
X231174Y218885D01*
X231204Y218775D01*
X231229Y218665D01*
X231251Y218554D01*
X231268Y218442D01*
X231282Y218329D01*
X231292Y218216D01*
X231298Y218103D01*
X231300Y217990D01*
X231299Y217990D02*
X231299Y214745D01*
X231299Y218639D02*
X236492Y221236D01*
X227404Y226101D02*
X224808Y229346D01*
X236492Y229346D01*
X236492Y226101D02*
X236492Y232592D01*
X281508Y214145D02*
X293192Y214145D01*
X281508Y214145D02*
X281508Y217390D01*
X281510Y217503D01*
X281516Y217616D01*
X281526Y217729D01*
X281540Y217842D01*
X281557Y217954D01*
X281579Y218065D01*
X281604Y218175D01*
X281634Y218285D01*
X281667Y218393D01*
X281704Y218500D01*
X281744Y218606D01*
X281789Y218710D01*
X281837Y218813D01*
X281888Y218914D01*
X281943Y219013D01*
X282001Y219110D01*
X282063Y219205D01*
X282128Y219298D01*
X282196Y219388D01*
X282267Y219476D01*
X282342Y219562D01*
X282419Y219645D01*
X282499Y219725D01*
X282582Y219802D01*
X282668Y219877D01*
X282756Y219948D01*
X282846Y220016D01*
X282939Y220081D01*
X283034Y220143D01*
X283131Y220201D01*
X283230Y220256D01*
X283331Y220307D01*
X283434Y220355D01*
X283538Y220400D01*
X283644Y220440D01*
X283751Y220477D01*
X283859Y220510D01*
X283969Y220540D01*
X284079Y220565D01*
X284190Y220587D01*
X284302Y220604D01*
X284415Y220618D01*
X284528Y220628D01*
X284641Y220634D01*
X284754Y220636D01*
X284867Y220634D01*
X284980Y220628D01*
X285093Y220618D01*
X285206Y220604D01*
X285318Y220587D01*
X285429Y220565D01*
X285539Y220540D01*
X285649Y220510D01*
X285757Y220477D01*
X285864Y220440D01*
X285970Y220400D01*
X286074Y220355D01*
X286177Y220307D01*
X286278Y220256D01*
X286377Y220201D01*
X286474Y220143D01*
X286569Y220081D01*
X286662Y220016D01*
X286752Y219948D01*
X286840Y219877D01*
X286926Y219802D01*
X287009Y219725D01*
X287089Y219645D01*
X287166Y219562D01*
X287241Y219476D01*
X287312Y219388D01*
X287380Y219298D01*
X287445Y219205D01*
X287507Y219110D01*
X287565Y219013D01*
X287620Y218914D01*
X287671Y218813D01*
X287719Y218710D01*
X287764Y218606D01*
X287804Y218500D01*
X287841Y218393D01*
X287874Y218285D01*
X287904Y218175D01*
X287929Y218065D01*
X287951Y217954D01*
X287968Y217842D01*
X287982Y217729D01*
X287992Y217616D01*
X287998Y217503D01*
X288000Y217390D01*
X287999Y217390D02*
X287999Y214145D01*
X287999Y218039D02*
X293192Y220636D01*
X284429Y231992D02*
X284322Y231990D01*
X284216Y231984D01*
X284110Y231974D01*
X284004Y231961D01*
X283898Y231943D01*
X283794Y231922D01*
X283690Y231897D01*
X283587Y231868D01*
X283486Y231836D01*
X283386Y231799D01*
X283287Y231759D01*
X283189Y231716D01*
X283093Y231669D01*
X282999Y231618D01*
X282907Y231564D01*
X282817Y231507D01*
X282729Y231447D01*
X282644Y231383D01*
X282561Y231316D01*
X282480Y231246D01*
X282402Y231174D01*
X282326Y231098D01*
X282254Y231020D01*
X282184Y230939D01*
X282117Y230856D01*
X282053Y230771D01*
X281993Y230683D01*
X281936Y230593D01*
X281882Y230501D01*
X281831Y230407D01*
X281784Y230311D01*
X281741Y230213D01*
X281701Y230114D01*
X281664Y230014D01*
X281632Y229913D01*
X281603Y229810D01*
X281578Y229706D01*
X281557Y229602D01*
X281539Y229496D01*
X281526Y229390D01*
X281516Y229284D01*
X281510Y229178D01*
X281508Y229071D01*
X281510Y228950D01*
X281516Y228829D01*
X281526Y228709D01*
X281539Y228588D01*
X281557Y228469D01*
X281578Y228349D01*
X281603Y228231D01*
X281632Y228114D01*
X281665Y227997D01*
X281701Y227882D01*
X281742Y227768D01*
X281785Y227655D01*
X281833Y227543D01*
X281884Y227434D01*
X281939Y227326D01*
X281997Y227219D01*
X282058Y227115D01*
X282123Y227013D01*
X282191Y226913D01*
X282262Y226815D01*
X282336Y226719D01*
X282413Y226626D01*
X282494Y226536D01*
X282577Y226448D01*
X282663Y226363D01*
X282752Y226280D01*
X282843Y226201D01*
X282937Y226124D01*
X283033Y226051D01*
X283131Y225981D01*
X283232Y225914D01*
X283335Y225850D01*
X283440Y225790D01*
X283547Y225732D01*
X283655Y225679D01*
X283765Y225629D01*
X283877Y225583D01*
X283990Y225540D01*
X284105Y225501D01*
X286701Y231018D02*
X286623Y231097D01*
X286543Y231173D01*
X286460Y231246D01*
X286374Y231316D01*
X286287Y231383D01*
X286196Y231447D01*
X286104Y231507D01*
X286010Y231565D01*
X285913Y231619D01*
X285815Y231669D01*
X285715Y231716D01*
X285614Y231760D01*
X285511Y231800D01*
X285406Y231836D01*
X285301Y231868D01*
X285194Y231897D01*
X285087Y231922D01*
X284978Y231944D01*
X284869Y231961D01*
X284760Y231975D01*
X284650Y231984D01*
X284539Y231990D01*
X284429Y231992D01*
X286701Y231018D02*
X293192Y225501D01*
X293192Y231992D01*
D14*
X253860Y278225D03*
D15*
X258900Y276325D02*
X271500Y276325D01*
X271500Y253075D02*
X258900Y253075D01*
D12*
X244300Y281100D02*
X222300Y281100D01*
X222300Y248600D01*
X244300Y248600D01*
X244300Y281100D01*
X82500Y268300D02*
X68500Y268300D01*
X82500Y268300D02*
X82500Y254300D01*
X68500Y254300D01*
X68500Y268300D01*
X224000Y75500D02*
X281500Y75500D01*
X224000Y75500D02*
X224000Y199500D01*
X281500Y199500D01*
X281500Y75500D01*
M02*
