G04 EAGLE Gerber RS-274X export*
G75*
%MOMM*%
%FSLAX34Y34*%
%LPD*%
%INSilk screen SOL*%
%IPPOS*%
%AMOC8*
5,1,8,0,0,1.08239X$1,22.5*%
G01*
%ADD10C,0.101600*%
%ADD11C,0.127000*%
%ADD12C,0.203200*%


D10*
X281508Y266892D02*
X287025Y262997D01*
X281508Y259103D01*
X287025Y262997D02*
X293192Y262997D01*
X289946Y254813D02*
X284754Y254813D01*
X284641Y254811D01*
X284528Y254805D01*
X284415Y254795D01*
X284302Y254781D01*
X284190Y254764D01*
X284079Y254742D01*
X283969Y254717D01*
X283859Y254687D01*
X283751Y254654D01*
X283644Y254617D01*
X283538Y254577D01*
X283434Y254532D01*
X283331Y254484D01*
X283230Y254433D01*
X283131Y254378D01*
X283034Y254320D01*
X282939Y254258D01*
X282846Y254193D01*
X282756Y254125D01*
X282668Y254054D01*
X282582Y253979D01*
X282499Y253902D01*
X282419Y253822D01*
X282342Y253739D01*
X282267Y253653D01*
X282196Y253565D01*
X282128Y253475D01*
X282063Y253382D01*
X282001Y253287D01*
X281943Y253190D01*
X281888Y253091D01*
X281837Y252990D01*
X281789Y252887D01*
X281744Y252783D01*
X281704Y252677D01*
X281667Y252570D01*
X281634Y252462D01*
X281604Y252352D01*
X281579Y252242D01*
X281557Y252131D01*
X281540Y252019D01*
X281526Y251906D01*
X281516Y251793D01*
X281510Y251680D01*
X281508Y251567D01*
X281510Y251454D01*
X281516Y251341D01*
X281526Y251228D01*
X281540Y251115D01*
X281557Y251003D01*
X281579Y250892D01*
X281604Y250782D01*
X281634Y250672D01*
X281667Y250564D01*
X281704Y250457D01*
X281744Y250351D01*
X281789Y250247D01*
X281837Y250144D01*
X281888Y250043D01*
X281943Y249944D01*
X282001Y249847D01*
X282063Y249752D01*
X282128Y249659D01*
X282196Y249569D01*
X282267Y249481D01*
X282342Y249395D01*
X282419Y249312D01*
X282499Y249232D01*
X282582Y249155D01*
X282668Y249080D01*
X282756Y249009D01*
X282846Y248941D01*
X282939Y248876D01*
X283034Y248814D01*
X283131Y248756D01*
X283230Y248701D01*
X283331Y248650D01*
X283434Y248602D01*
X283538Y248557D01*
X283644Y248517D01*
X283751Y248480D01*
X283859Y248447D01*
X283969Y248417D01*
X284079Y248392D01*
X284190Y248370D01*
X284302Y248353D01*
X284415Y248339D01*
X284528Y248329D01*
X284641Y248323D01*
X284754Y248321D01*
X284754Y248322D02*
X289946Y248322D01*
X289946Y248321D02*
X290059Y248323D01*
X290172Y248329D01*
X290285Y248339D01*
X290398Y248353D01*
X290510Y248370D01*
X290621Y248392D01*
X290731Y248417D01*
X290841Y248447D01*
X290949Y248480D01*
X291056Y248517D01*
X291162Y248557D01*
X291266Y248602D01*
X291369Y248650D01*
X291470Y248701D01*
X291569Y248756D01*
X291666Y248814D01*
X291761Y248876D01*
X291854Y248941D01*
X291944Y249009D01*
X292032Y249080D01*
X292118Y249155D01*
X292201Y249232D01*
X292281Y249312D01*
X292358Y249395D01*
X292433Y249481D01*
X292504Y249569D01*
X292572Y249659D01*
X292637Y249752D01*
X292699Y249847D01*
X292757Y249944D01*
X292812Y250043D01*
X292863Y250144D01*
X292911Y250247D01*
X292956Y250351D01*
X292996Y250457D01*
X293033Y250564D01*
X293066Y250672D01*
X293096Y250782D01*
X293121Y250892D01*
X293143Y251003D01*
X293160Y251115D01*
X293174Y251228D01*
X293184Y251341D01*
X293190Y251454D01*
X293192Y251567D01*
X293190Y251680D01*
X293184Y251793D01*
X293174Y251906D01*
X293160Y252019D01*
X293143Y252131D01*
X293121Y252242D01*
X293096Y252352D01*
X293066Y252462D01*
X293033Y252570D01*
X292996Y252677D01*
X292956Y252783D01*
X292911Y252887D01*
X292863Y252990D01*
X292812Y253091D01*
X292757Y253190D01*
X292699Y253287D01*
X292637Y253382D01*
X292572Y253475D01*
X292504Y253565D01*
X292433Y253653D01*
X292358Y253739D01*
X292281Y253822D01*
X292201Y253902D01*
X292118Y253979D01*
X292032Y254054D01*
X291944Y254125D01*
X291854Y254193D01*
X291761Y254258D01*
X291666Y254320D01*
X291569Y254378D01*
X291470Y254433D01*
X291369Y254484D01*
X291266Y254532D01*
X291162Y254577D01*
X291056Y254617D01*
X290949Y254654D01*
X290841Y254687D01*
X290731Y254717D01*
X290621Y254742D01*
X290510Y254764D01*
X290398Y254781D01*
X290285Y254795D01*
X290172Y254805D01*
X290059Y254811D01*
X289946Y254813D01*
X293192Y240899D02*
X281508Y240899D01*
X281508Y237654D02*
X281508Y244145D01*
X293192Y229963D02*
X293190Y229864D01*
X293184Y229764D01*
X293175Y229665D01*
X293162Y229567D01*
X293145Y229469D01*
X293124Y229371D01*
X293099Y229275D01*
X293071Y229180D01*
X293039Y229086D01*
X293004Y228993D01*
X292965Y228901D01*
X292922Y228811D01*
X292877Y228723D01*
X292827Y228636D01*
X292775Y228552D01*
X292719Y228469D01*
X292661Y228389D01*
X292599Y228311D01*
X292534Y228236D01*
X292466Y228163D01*
X292396Y228093D01*
X292323Y228025D01*
X292248Y227960D01*
X292170Y227898D01*
X292090Y227840D01*
X292007Y227784D01*
X291923Y227732D01*
X291836Y227682D01*
X291748Y227637D01*
X291658Y227594D01*
X291566Y227555D01*
X291473Y227520D01*
X291379Y227488D01*
X291284Y227460D01*
X291188Y227435D01*
X291090Y227414D01*
X290992Y227397D01*
X290894Y227384D01*
X290795Y227375D01*
X290695Y227369D01*
X290596Y227367D01*
X293192Y229963D02*
X293190Y230107D01*
X293184Y230252D01*
X293175Y230396D01*
X293162Y230539D01*
X293145Y230683D01*
X293124Y230826D01*
X293099Y230968D01*
X293071Y231109D01*
X293039Y231250D01*
X293003Y231390D01*
X292964Y231529D01*
X292921Y231667D01*
X292874Y231803D01*
X292824Y231939D01*
X292770Y232073D01*
X292713Y232205D01*
X292652Y232336D01*
X292588Y232465D01*
X292520Y232593D01*
X292449Y232719D01*
X292375Y232843D01*
X292298Y232964D01*
X292217Y233084D01*
X292134Y233202D01*
X292047Y233317D01*
X291957Y233430D01*
X291864Y233541D01*
X291769Y233649D01*
X291670Y233755D01*
X291569Y233858D01*
X284104Y233534D02*
X284005Y233532D01*
X283905Y233526D01*
X283806Y233517D01*
X283708Y233504D01*
X283610Y233486D01*
X283512Y233466D01*
X283416Y233441D01*
X283320Y233413D01*
X283226Y233381D01*
X283133Y233346D01*
X283042Y233307D01*
X282952Y233264D01*
X282863Y233219D01*
X282777Y233169D01*
X282692Y233117D01*
X282610Y233061D01*
X282530Y233002D01*
X282452Y232941D01*
X282376Y232876D01*
X282303Y232808D01*
X282233Y232738D01*
X282165Y232665D01*
X282100Y232589D01*
X282039Y232511D01*
X281980Y232431D01*
X281924Y232349D01*
X281872Y232264D01*
X281823Y232178D01*
X281777Y232089D01*
X281734Y231999D01*
X281695Y231908D01*
X281660Y231815D01*
X281628Y231721D01*
X281600Y231625D01*
X281575Y231529D01*
X281555Y231431D01*
X281537Y231333D01*
X281524Y231235D01*
X281515Y231136D01*
X281509Y231037D01*
X281507Y230937D01*
X281508Y230937D02*
X281510Y230801D01*
X281516Y230665D01*
X281525Y230529D01*
X281538Y230393D01*
X281556Y230258D01*
X281576Y230124D01*
X281601Y229990D01*
X281629Y229856D01*
X281662Y229724D01*
X281697Y229593D01*
X281737Y229462D01*
X281780Y229333D01*
X281826Y229205D01*
X281877Y229079D01*
X281930Y228953D01*
X281988Y228830D01*
X282048Y228708D01*
X282112Y228588D01*
X282180Y228469D01*
X282250Y228353D01*
X282324Y228238D01*
X282401Y228126D01*
X282482Y228016D01*
X286376Y232235D02*
X286323Y232321D01*
X286266Y232405D01*
X286207Y232487D01*
X286144Y232567D01*
X286078Y232644D01*
X286010Y232719D01*
X285938Y232791D01*
X285864Y232860D01*
X285787Y232926D01*
X285708Y232989D01*
X285626Y233049D01*
X285542Y233106D01*
X285456Y233160D01*
X285368Y233210D01*
X285278Y233257D01*
X285187Y233301D01*
X285093Y233340D01*
X284999Y233377D01*
X284903Y233409D01*
X284805Y233438D01*
X284707Y233463D01*
X284608Y233484D01*
X284508Y233502D01*
X284408Y233515D01*
X284307Y233525D01*
X284205Y233531D01*
X284104Y233533D01*
X288324Y228665D02*
X288377Y228579D01*
X288434Y228495D01*
X288493Y228413D01*
X288556Y228333D01*
X288622Y228256D01*
X288690Y228181D01*
X288762Y228109D01*
X288836Y228040D01*
X288913Y227974D01*
X288992Y227911D01*
X289074Y227851D01*
X289158Y227794D01*
X289244Y227740D01*
X289332Y227690D01*
X289422Y227643D01*
X289513Y227599D01*
X289607Y227560D01*
X289701Y227523D01*
X289797Y227491D01*
X289895Y227462D01*
X289993Y227437D01*
X290092Y227416D01*
X290192Y227398D01*
X290292Y227385D01*
X290393Y227375D01*
X290495Y227369D01*
X290596Y227367D01*
X288324Y228665D02*
X286376Y232235D01*
X289946Y222428D02*
X281508Y222428D01*
X289946Y222428D02*
X290059Y222426D01*
X290172Y222420D01*
X290285Y222410D01*
X290398Y222396D01*
X290510Y222379D01*
X290621Y222357D01*
X290731Y222332D01*
X290841Y222302D01*
X290949Y222269D01*
X291056Y222232D01*
X291162Y222192D01*
X291266Y222147D01*
X291369Y222099D01*
X291470Y222048D01*
X291569Y221993D01*
X291666Y221935D01*
X291761Y221873D01*
X291854Y221808D01*
X291944Y221740D01*
X292032Y221669D01*
X292118Y221594D01*
X292201Y221517D01*
X292281Y221437D01*
X292358Y221354D01*
X292433Y221268D01*
X292504Y221180D01*
X292572Y221090D01*
X292637Y220997D01*
X292699Y220902D01*
X292757Y220805D01*
X292812Y220706D01*
X292863Y220605D01*
X292911Y220502D01*
X292956Y220398D01*
X292996Y220292D01*
X293033Y220185D01*
X293066Y220077D01*
X293096Y219967D01*
X293121Y219857D01*
X293143Y219746D01*
X293160Y219634D01*
X293174Y219521D01*
X293184Y219408D01*
X293190Y219295D01*
X293192Y219182D01*
X293190Y219069D01*
X293184Y218956D01*
X293174Y218843D01*
X293160Y218730D01*
X293143Y218618D01*
X293121Y218507D01*
X293096Y218397D01*
X293066Y218287D01*
X293033Y218179D01*
X292996Y218072D01*
X292956Y217966D01*
X292911Y217862D01*
X292863Y217759D01*
X292812Y217658D01*
X292757Y217559D01*
X292699Y217462D01*
X292637Y217367D01*
X292572Y217274D01*
X292504Y217184D01*
X292433Y217096D01*
X292358Y217010D01*
X292281Y216927D01*
X292201Y216847D01*
X292118Y216770D01*
X292032Y216695D01*
X291944Y216624D01*
X291854Y216556D01*
X291761Y216491D01*
X291666Y216429D01*
X291569Y216371D01*
X291470Y216316D01*
X291369Y216265D01*
X291266Y216217D01*
X291162Y216172D01*
X291056Y216132D01*
X290949Y216095D01*
X290841Y216062D01*
X290731Y216032D01*
X290621Y216007D01*
X290510Y215985D01*
X290398Y215968D01*
X290285Y215954D01*
X290172Y215944D01*
X290059Y215938D01*
X289946Y215936D01*
X289946Y215937D02*
X281508Y215937D01*
X286701Y210067D02*
X286701Y206821D01*
X286700Y206821D02*
X286702Y206708D01*
X286708Y206595D01*
X286718Y206482D01*
X286732Y206369D01*
X286749Y206257D01*
X286771Y206146D01*
X286796Y206036D01*
X286826Y205926D01*
X286859Y205818D01*
X286896Y205711D01*
X286936Y205605D01*
X286981Y205501D01*
X287029Y205398D01*
X287080Y205297D01*
X287135Y205198D01*
X287193Y205101D01*
X287255Y205006D01*
X287320Y204913D01*
X287388Y204823D01*
X287459Y204735D01*
X287534Y204649D01*
X287611Y204566D01*
X287691Y204486D01*
X287774Y204409D01*
X287860Y204334D01*
X287948Y204263D01*
X288038Y204195D01*
X288131Y204130D01*
X288226Y204068D01*
X288323Y204010D01*
X288422Y203955D01*
X288523Y203904D01*
X288626Y203856D01*
X288730Y203811D01*
X288836Y203771D01*
X288943Y203734D01*
X289051Y203701D01*
X289161Y203671D01*
X289271Y203646D01*
X289382Y203624D01*
X289494Y203607D01*
X289607Y203593D01*
X289720Y203583D01*
X289833Y203577D01*
X289946Y203575D01*
X290059Y203577D01*
X290172Y203583D01*
X290285Y203593D01*
X290398Y203607D01*
X290510Y203624D01*
X290621Y203646D01*
X290731Y203671D01*
X290841Y203701D01*
X290949Y203734D01*
X291056Y203771D01*
X291162Y203811D01*
X291266Y203856D01*
X291369Y203904D01*
X291470Y203955D01*
X291569Y204010D01*
X291666Y204068D01*
X291761Y204130D01*
X291854Y204195D01*
X291944Y204263D01*
X292032Y204334D01*
X292118Y204409D01*
X292201Y204486D01*
X292281Y204566D01*
X292358Y204649D01*
X292433Y204735D01*
X292504Y204823D01*
X292572Y204913D01*
X292637Y205006D01*
X292699Y205101D01*
X292757Y205198D01*
X292812Y205297D01*
X292863Y205398D01*
X292911Y205501D01*
X292956Y205605D01*
X292996Y205711D01*
X293033Y205818D01*
X293066Y205926D01*
X293096Y206036D01*
X293121Y206146D01*
X293143Y206257D01*
X293160Y206369D01*
X293174Y206482D01*
X293184Y206595D01*
X293190Y206708D01*
X293192Y206821D01*
X293192Y210067D01*
X281508Y210067D01*
X281508Y206821D01*
X281510Y206720D01*
X281516Y206620D01*
X281526Y206520D01*
X281539Y206420D01*
X281557Y206321D01*
X281578Y206222D01*
X281603Y206125D01*
X281632Y206028D01*
X281665Y205933D01*
X281701Y205839D01*
X281741Y205747D01*
X281784Y205656D01*
X281831Y205567D01*
X281881Y205480D01*
X281935Y205394D01*
X281992Y205311D01*
X282052Y205231D01*
X282115Y205152D01*
X282182Y205076D01*
X282251Y205003D01*
X282323Y204933D01*
X282397Y204865D01*
X282474Y204800D01*
X282554Y204739D01*
X282636Y204680D01*
X282720Y204625D01*
X282806Y204573D01*
X282894Y204524D01*
X282984Y204479D01*
X283076Y204437D01*
X283169Y204399D01*
X283264Y204365D01*
X283359Y204334D01*
X283456Y204307D01*
X283554Y204284D01*
X283653Y204264D01*
X283753Y204249D01*
X283853Y204237D01*
X283953Y204229D01*
X284054Y204225D01*
X284154Y204225D01*
X284255Y204229D01*
X284355Y204237D01*
X284455Y204249D01*
X284555Y204264D01*
X284654Y204284D01*
X284752Y204307D01*
X284849Y204334D01*
X284944Y204365D01*
X285039Y204399D01*
X285132Y204437D01*
X285224Y204479D01*
X285314Y204524D01*
X285402Y204573D01*
X285488Y204625D01*
X285572Y204680D01*
X285654Y204739D01*
X285734Y204800D01*
X285811Y204865D01*
X285885Y204933D01*
X285957Y205003D01*
X286026Y205076D01*
X286093Y205152D01*
X286156Y205231D01*
X286216Y205311D01*
X286273Y205394D01*
X286327Y205480D01*
X286377Y205567D01*
X286424Y205656D01*
X286467Y205747D01*
X286507Y205839D01*
X286543Y205933D01*
X286576Y206028D01*
X286605Y206125D01*
X286630Y206222D01*
X286651Y206321D01*
X286669Y206420D01*
X286682Y206520D01*
X286692Y206620D01*
X286698Y206720D01*
X286700Y206821D01*
X293192Y199836D02*
X281508Y195942D01*
X293192Y192047D01*
X290271Y193021D02*
X290271Y198863D01*
X294490Y188251D02*
X294490Y183058D01*
X286701Y173688D02*
X286701Y171741D01*
X293192Y171741D01*
X293192Y175636D01*
X293190Y175735D01*
X293184Y175835D01*
X293175Y175934D01*
X293162Y176032D01*
X293145Y176130D01*
X293124Y176228D01*
X293099Y176324D01*
X293071Y176419D01*
X293039Y176513D01*
X293004Y176606D01*
X292965Y176698D01*
X292922Y176788D01*
X292877Y176876D01*
X292827Y176963D01*
X292775Y177047D01*
X292719Y177130D01*
X292661Y177210D01*
X292599Y177288D01*
X292534Y177363D01*
X292466Y177436D01*
X292396Y177506D01*
X292323Y177574D01*
X292248Y177639D01*
X292170Y177701D01*
X292090Y177759D01*
X292007Y177815D01*
X291923Y177867D01*
X291836Y177917D01*
X291748Y177962D01*
X291658Y178005D01*
X291566Y178044D01*
X291473Y178079D01*
X291379Y178111D01*
X291284Y178139D01*
X291188Y178164D01*
X291090Y178185D01*
X290992Y178202D01*
X290894Y178215D01*
X290795Y178224D01*
X290695Y178230D01*
X290596Y178232D01*
X284104Y178232D01*
X284104Y178233D02*
X284005Y178231D01*
X283905Y178225D01*
X283806Y178216D01*
X283708Y178203D01*
X283610Y178185D01*
X283512Y178165D01*
X283416Y178140D01*
X283320Y178112D01*
X283226Y178080D01*
X283133Y178045D01*
X283042Y178006D01*
X282952Y177963D01*
X282863Y177918D01*
X282777Y177868D01*
X282692Y177816D01*
X282610Y177760D01*
X282530Y177701D01*
X282452Y177640D01*
X282376Y177575D01*
X282303Y177507D01*
X282233Y177437D01*
X282165Y177364D01*
X282100Y177288D01*
X282039Y177210D01*
X281980Y177130D01*
X281924Y177048D01*
X281872Y176963D01*
X281823Y176877D01*
X281777Y176788D01*
X281734Y176698D01*
X281695Y176607D01*
X281660Y176514D01*
X281628Y176420D01*
X281600Y176324D01*
X281575Y176228D01*
X281555Y176130D01*
X281537Y176032D01*
X281524Y175934D01*
X281515Y175835D01*
X281509Y175736D01*
X281507Y175636D01*
X281508Y175636D02*
X281508Y171741D01*
X281508Y166040D02*
X293192Y166040D01*
X293192Y159549D02*
X281508Y166040D01*
X281508Y159549D02*
X293192Y159549D01*
X293192Y150715D02*
X293190Y150616D01*
X293184Y150516D01*
X293175Y150417D01*
X293162Y150319D01*
X293145Y150221D01*
X293124Y150123D01*
X293099Y150027D01*
X293071Y149932D01*
X293039Y149838D01*
X293004Y149745D01*
X292965Y149653D01*
X292922Y149563D01*
X292877Y149475D01*
X292827Y149388D01*
X292775Y149304D01*
X292719Y149221D01*
X292661Y149141D01*
X292599Y149063D01*
X292534Y148988D01*
X292466Y148915D01*
X292396Y148845D01*
X292323Y148777D01*
X292248Y148712D01*
X292170Y148650D01*
X292090Y148592D01*
X292007Y148536D01*
X291923Y148484D01*
X291836Y148434D01*
X291748Y148389D01*
X291658Y148346D01*
X291566Y148307D01*
X291473Y148272D01*
X291379Y148240D01*
X291284Y148212D01*
X291188Y148187D01*
X291090Y148166D01*
X290992Y148149D01*
X290894Y148136D01*
X290795Y148127D01*
X290695Y148121D01*
X290596Y148119D01*
X293192Y150715D02*
X293190Y150859D01*
X293184Y151004D01*
X293175Y151148D01*
X293162Y151291D01*
X293145Y151435D01*
X293124Y151578D01*
X293099Y151720D01*
X293071Y151861D01*
X293039Y152002D01*
X293003Y152142D01*
X292964Y152281D01*
X292921Y152419D01*
X292874Y152555D01*
X292824Y152691D01*
X292770Y152825D01*
X292713Y152957D01*
X292652Y153088D01*
X292588Y153217D01*
X292520Y153345D01*
X292449Y153471D01*
X292375Y153595D01*
X292298Y153716D01*
X292217Y153836D01*
X292134Y153954D01*
X292047Y154069D01*
X291957Y154182D01*
X291864Y154293D01*
X291769Y154401D01*
X291670Y154507D01*
X291569Y154610D01*
X284104Y154286D02*
X284005Y154284D01*
X283905Y154278D01*
X283806Y154269D01*
X283708Y154256D01*
X283610Y154238D01*
X283512Y154218D01*
X283416Y154193D01*
X283320Y154165D01*
X283226Y154133D01*
X283133Y154098D01*
X283042Y154059D01*
X282952Y154016D01*
X282863Y153971D01*
X282777Y153921D01*
X282692Y153869D01*
X282610Y153813D01*
X282530Y153754D01*
X282452Y153693D01*
X282376Y153628D01*
X282303Y153560D01*
X282233Y153490D01*
X282165Y153417D01*
X282100Y153341D01*
X282039Y153263D01*
X281980Y153183D01*
X281924Y153101D01*
X281872Y153016D01*
X281823Y152930D01*
X281777Y152841D01*
X281734Y152751D01*
X281695Y152660D01*
X281660Y152567D01*
X281628Y152473D01*
X281600Y152377D01*
X281575Y152281D01*
X281555Y152183D01*
X281537Y152085D01*
X281524Y151987D01*
X281515Y151888D01*
X281509Y151789D01*
X281507Y151689D01*
X281508Y151689D02*
X281510Y151553D01*
X281516Y151417D01*
X281525Y151281D01*
X281538Y151145D01*
X281556Y151010D01*
X281576Y150876D01*
X281601Y150742D01*
X281629Y150608D01*
X281662Y150476D01*
X281697Y150345D01*
X281737Y150214D01*
X281780Y150085D01*
X281826Y149957D01*
X281877Y149831D01*
X281930Y149705D01*
X281988Y149582D01*
X282048Y149460D01*
X282112Y149340D01*
X282180Y149221D01*
X282250Y149105D01*
X282324Y148990D01*
X282401Y148878D01*
X282482Y148768D01*
X286376Y152988D02*
X286323Y153074D01*
X286266Y153158D01*
X286207Y153240D01*
X286144Y153320D01*
X286078Y153397D01*
X286010Y153472D01*
X285938Y153544D01*
X285864Y153613D01*
X285787Y153679D01*
X285708Y153742D01*
X285626Y153802D01*
X285542Y153859D01*
X285456Y153913D01*
X285368Y153963D01*
X285278Y154010D01*
X285187Y154054D01*
X285093Y154093D01*
X284999Y154130D01*
X284903Y154162D01*
X284805Y154191D01*
X284707Y154216D01*
X284608Y154237D01*
X284508Y154255D01*
X284408Y154268D01*
X284307Y154278D01*
X284205Y154284D01*
X284104Y154286D01*
X288324Y149417D02*
X288377Y149331D01*
X288434Y149247D01*
X288493Y149165D01*
X288556Y149085D01*
X288622Y149008D01*
X288690Y148933D01*
X288762Y148861D01*
X288836Y148792D01*
X288913Y148726D01*
X288992Y148663D01*
X289074Y148603D01*
X289158Y148546D01*
X289244Y148492D01*
X289332Y148442D01*
X289422Y148395D01*
X289513Y148351D01*
X289607Y148312D01*
X289701Y148275D01*
X289797Y148243D01*
X289895Y148214D01*
X289993Y148189D01*
X290092Y148168D01*
X290192Y148150D01*
X290292Y148137D01*
X290393Y148127D01*
X290495Y148121D01*
X290596Y148119D01*
X288324Y149417D02*
X286376Y152987D01*
X293192Y140048D02*
X293190Y139949D01*
X293184Y139849D01*
X293175Y139750D01*
X293162Y139652D01*
X293145Y139554D01*
X293124Y139456D01*
X293099Y139360D01*
X293071Y139265D01*
X293039Y139171D01*
X293004Y139078D01*
X292965Y138986D01*
X292922Y138896D01*
X292877Y138808D01*
X292827Y138721D01*
X292775Y138637D01*
X292719Y138554D01*
X292661Y138474D01*
X292599Y138396D01*
X292534Y138321D01*
X292466Y138248D01*
X292396Y138178D01*
X292323Y138110D01*
X292248Y138045D01*
X292170Y137983D01*
X292090Y137925D01*
X292007Y137869D01*
X291923Y137817D01*
X291836Y137767D01*
X291748Y137722D01*
X291658Y137679D01*
X291566Y137640D01*
X291473Y137605D01*
X291379Y137573D01*
X291284Y137545D01*
X291188Y137520D01*
X291090Y137499D01*
X290992Y137482D01*
X290894Y137469D01*
X290795Y137460D01*
X290695Y137454D01*
X290596Y137452D01*
X293192Y140048D02*
X293190Y140192D01*
X293184Y140337D01*
X293175Y140481D01*
X293162Y140624D01*
X293145Y140768D01*
X293124Y140911D01*
X293099Y141053D01*
X293071Y141194D01*
X293039Y141335D01*
X293003Y141475D01*
X292964Y141614D01*
X292921Y141752D01*
X292874Y141888D01*
X292824Y142024D01*
X292770Y142158D01*
X292713Y142290D01*
X292652Y142421D01*
X292588Y142550D01*
X292520Y142678D01*
X292449Y142804D01*
X292375Y142928D01*
X292298Y143049D01*
X292217Y143169D01*
X292134Y143287D01*
X292047Y143402D01*
X291957Y143515D01*
X291864Y143626D01*
X291769Y143734D01*
X291670Y143840D01*
X291569Y143943D01*
X284104Y143618D02*
X284005Y143616D01*
X283905Y143610D01*
X283806Y143601D01*
X283708Y143588D01*
X283610Y143570D01*
X283512Y143550D01*
X283416Y143525D01*
X283320Y143497D01*
X283226Y143465D01*
X283133Y143430D01*
X283042Y143391D01*
X282952Y143348D01*
X282863Y143303D01*
X282777Y143253D01*
X282692Y143201D01*
X282610Y143145D01*
X282530Y143086D01*
X282452Y143025D01*
X282376Y142960D01*
X282303Y142892D01*
X282233Y142822D01*
X282165Y142749D01*
X282100Y142673D01*
X282039Y142595D01*
X281980Y142515D01*
X281924Y142433D01*
X281872Y142348D01*
X281823Y142262D01*
X281777Y142173D01*
X281734Y142083D01*
X281695Y141992D01*
X281660Y141899D01*
X281628Y141805D01*
X281600Y141709D01*
X281575Y141613D01*
X281555Y141515D01*
X281537Y141417D01*
X281524Y141319D01*
X281515Y141220D01*
X281509Y141121D01*
X281507Y141021D01*
X281508Y141021D02*
X281510Y140885D01*
X281516Y140749D01*
X281525Y140613D01*
X281538Y140477D01*
X281556Y140342D01*
X281576Y140208D01*
X281601Y140074D01*
X281629Y139940D01*
X281662Y139808D01*
X281697Y139677D01*
X281737Y139546D01*
X281780Y139417D01*
X281826Y139289D01*
X281877Y139163D01*
X281930Y139037D01*
X281988Y138914D01*
X282048Y138792D01*
X282112Y138672D01*
X282180Y138553D01*
X282250Y138437D01*
X282324Y138322D01*
X282401Y138210D01*
X282482Y138100D01*
X286376Y142320D02*
X286323Y142406D01*
X286266Y142490D01*
X286207Y142572D01*
X286144Y142652D01*
X286078Y142729D01*
X286010Y142804D01*
X285938Y142876D01*
X285864Y142945D01*
X285787Y143011D01*
X285708Y143074D01*
X285626Y143134D01*
X285542Y143191D01*
X285456Y143245D01*
X285368Y143295D01*
X285278Y143342D01*
X285187Y143386D01*
X285093Y143425D01*
X284999Y143462D01*
X284903Y143494D01*
X284805Y143523D01*
X284707Y143548D01*
X284608Y143569D01*
X284508Y143587D01*
X284408Y143600D01*
X284307Y143610D01*
X284205Y143616D01*
X284104Y143618D01*
X288324Y138749D02*
X288377Y138663D01*
X288434Y138579D01*
X288493Y138497D01*
X288556Y138417D01*
X288622Y138340D01*
X288690Y138265D01*
X288762Y138193D01*
X288836Y138124D01*
X288913Y138058D01*
X288992Y137995D01*
X289074Y137935D01*
X289158Y137878D01*
X289244Y137824D01*
X289332Y137774D01*
X289422Y137727D01*
X289513Y137683D01*
X289607Y137644D01*
X289701Y137607D01*
X289797Y137575D01*
X289895Y137546D01*
X289993Y137521D01*
X290092Y137500D01*
X290192Y137482D01*
X290292Y137469D01*
X290393Y137459D01*
X290495Y137453D01*
X290596Y137451D01*
X288324Y138749D02*
X286376Y142319D01*
X288648Y132780D02*
X288648Y124991D01*
X289946Y119558D02*
X281508Y119558D01*
X289946Y119559D02*
X290059Y119557D01*
X290172Y119551D01*
X290285Y119541D01*
X290398Y119527D01*
X290510Y119510D01*
X290621Y119488D01*
X290731Y119463D01*
X290841Y119433D01*
X290949Y119400D01*
X291056Y119363D01*
X291162Y119323D01*
X291266Y119278D01*
X291369Y119230D01*
X291470Y119179D01*
X291569Y119124D01*
X291666Y119066D01*
X291761Y119004D01*
X291854Y118939D01*
X291944Y118871D01*
X292032Y118800D01*
X292118Y118725D01*
X292201Y118648D01*
X292281Y118568D01*
X292358Y118485D01*
X292433Y118399D01*
X292504Y118311D01*
X292572Y118221D01*
X292637Y118128D01*
X292699Y118033D01*
X292757Y117936D01*
X292812Y117837D01*
X292863Y117736D01*
X292911Y117633D01*
X292956Y117529D01*
X292996Y117423D01*
X293033Y117316D01*
X293066Y117208D01*
X293096Y117098D01*
X293121Y116988D01*
X293143Y116877D01*
X293160Y116765D01*
X293174Y116652D01*
X293184Y116539D01*
X293190Y116426D01*
X293192Y116313D01*
X293190Y116200D01*
X293184Y116087D01*
X293174Y115974D01*
X293160Y115861D01*
X293143Y115749D01*
X293121Y115638D01*
X293096Y115528D01*
X293066Y115418D01*
X293033Y115310D01*
X292996Y115203D01*
X292956Y115097D01*
X292911Y114993D01*
X292863Y114890D01*
X292812Y114789D01*
X292757Y114690D01*
X292699Y114593D01*
X292637Y114498D01*
X292572Y114405D01*
X292504Y114315D01*
X292433Y114227D01*
X292358Y114141D01*
X292281Y114058D01*
X292201Y113978D01*
X292118Y113901D01*
X292032Y113826D01*
X291944Y113755D01*
X291854Y113687D01*
X291761Y113622D01*
X291666Y113560D01*
X291569Y113502D01*
X291470Y113447D01*
X291369Y113396D01*
X291266Y113348D01*
X291162Y113303D01*
X291056Y113263D01*
X290949Y113226D01*
X290841Y113193D01*
X290731Y113163D01*
X290621Y113138D01*
X290510Y113116D01*
X290398Y113099D01*
X290285Y113085D01*
X290172Y113075D01*
X290059Y113069D01*
X289946Y113067D01*
X281508Y113067D01*
X281508Y107366D02*
X293192Y107366D01*
X293192Y100875D02*
X281508Y107366D01*
X281508Y100875D02*
X293192Y100875D01*
X293192Y94596D02*
X281508Y94596D01*
X293192Y95894D02*
X293192Y93297D01*
X281508Y93297D02*
X281508Y95894D01*
X281508Y86214D02*
X293192Y86214D01*
X281508Y89459D02*
X281508Y82968D01*
D11*
X262865Y253425D02*
X255245Y255965D01*
X255245Y250885D02*
X262865Y253425D01*
X262865Y244535D02*
X262865Y241360D01*
X262865Y244535D02*
X262863Y244620D01*
X262857Y244706D01*
X262848Y244791D01*
X262834Y244875D01*
X262817Y244959D01*
X262796Y245042D01*
X262772Y245124D01*
X262744Y245204D01*
X262712Y245284D01*
X262676Y245362D01*
X262638Y245438D01*
X262595Y245512D01*
X262550Y245584D01*
X262501Y245655D01*
X262449Y245723D01*
X262395Y245788D01*
X262337Y245851D01*
X262276Y245912D01*
X262213Y245970D01*
X262148Y246024D01*
X262080Y246076D01*
X262009Y246125D01*
X261937Y246170D01*
X261863Y246213D01*
X261787Y246251D01*
X261709Y246287D01*
X261629Y246319D01*
X261549Y246347D01*
X261467Y246371D01*
X261384Y246392D01*
X261300Y246409D01*
X261216Y246423D01*
X261131Y246432D01*
X261045Y246438D01*
X260960Y246440D01*
X257785Y246440D01*
X257685Y246438D01*
X257586Y246432D01*
X257486Y246422D01*
X257388Y246409D01*
X257289Y246391D01*
X257192Y246370D01*
X257096Y246345D01*
X257000Y246316D01*
X256906Y246283D01*
X256813Y246247D01*
X256722Y246207D01*
X256632Y246163D01*
X256544Y246116D01*
X256458Y246066D01*
X256374Y246012D01*
X256292Y245955D01*
X256213Y245895D01*
X256135Y245831D01*
X256061Y245765D01*
X255989Y245696D01*
X255920Y245624D01*
X255854Y245550D01*
X255790Y245472D01*
X255730Y245393D01*
X255673Y245311D01*
X255619Y245227D01*
X255569Y245141D01*
X255522Y245053D01*
X255478Y244963D01*
X255438Y244872D01*
X255402Y244779D01*
X255369Y244685D01*
X255340Y244589D01*
X255315Y244493D01*
X255294Y244396D01*
X255276Y244297D01*
X255263Y244199D01*
X255253Y244099D01*
X255247Y244000D01*
X255245Y243900D01*
X255247Y243800D01*
X255253Y243701D01*
X255263Y243601D01*
X255276Y243503D01*
X255294Y243404D01*
X255315Y243307D01*
X255340Y243211D01*
X255369Y243115D01*
X255402Y243021D01*
X255438Y242928D01*
X255478Y242837D01*
X255522Y242747D01*
X255569Y242659D01*
X255619Y242573D01*
X255673Y242489D01*
X255730Y242407D01*
X255790Y242328D01*
X255854Y242250D01*
X255920Y242176D01*
X255989Y242104D01*
X256061Y242035D01*
X256135Y241969D01*
X256213Y241905D01*
X256292Y241845D01*
X256374Y241788D01*
X256458Y241734D01*
X256544Y241684D01*
X256632Y241637D01*
X256722Y241593D01*
X256813Y241553D01*
X256906Y241517D01*
X257000Y241484D01*
X257096Y241455D01*
X257192Y241430D01*
X257289Y241409D01*
X257388Y241391D01*
X257486Y241378D01*
X257586Y241368D01*
X257685Y241362D01*
X257785Y241360D01*
X259055Y241360D01*
X259055Y246440D01*
X262865Y236078D02*
X255245Y236078D01*
X255245Y232268D01*
X256515Y232268D01*
X262230Y228978D02*
X262865Y228978D01*
X262230Y228978D02*
X262230Y228343D01*
X262865Y228343D01*
X262865Y228978D01*
X253975Y223834D02*
X251435Y220659D01*
X262865Y220659D01*
X262865Y223834D02*
X262865Y217484D01*
X262865Y212976D02*
X262230Y212976D01*
X262230Y212341D01*
X262865Y212341D01*
X262865Y212976D01*
X257150Y207832D02*
X256925Y207829D01*
X256700Y207821D01*
X256476Y207808D01*
X256252Y207789D01*
X256028Y207765D01*
X255805Y207736D01*
X255583Y207701D01*
X255362Y207661D01*
X255142Y207615D01*
X254923Y207565D01*
X254705Y207509D01*
X254488Y207448D01*
X254273Y207382D01*
X254060Y207311D01*
X253849Y207234D01*
X253639Y207153D01*
X253431Y207067D01*
X253226Y206976D01*
X253023Y206880D01*
X252935Y206848D01*
X252848Y206812D01*
X252762Y206773D01*
X252678Y206730D01*
X252596Y206684D01*
X252516Y206635D01*
X252438Y206583D01*
X252362Y206527D01*
X252288Y206469D01*
X252217Y206407D01*
X252148Y206343D01*
X252082Y206276D01*
X252019Y206207D01*
X251958Y206135D01*
X251900Y206061D01*
X251846Y205984D01*
X251794Y205906D01*
X251746Y205825D01*
X251701Y205743D01*
X251659Y205658D01*
X251621Y205572D01*
X251586Y205485D01*
X251554Y205397D01*
X251527Y205307D01*
X251502Y205216D01*
X251482Y205124D01*
X251465Y205032D01*
X251452Y204938D01*
X251443Y204845D01*
X251437Y204751D01*
X251435Y204657D01*
X251437Y204563D01*
X251443Y204469D01*
X251452Y204376D01*
X251465Y204282D01*
X251482Y204190D01*
X251502Y204098D01*
X251527Y204007D01*
X251554Y203917D01*
X251586Y203829D01*
X251621Y203742D01*
X251659Y203656D01*
X251701Y203571D01*
X251746Y203489D01*
X251794Y203408D01*
X251846Y203330D01*
X251900Y203253D01*
X251958Y203179D01*
X252019Y203107D01*
X252082Y203038D01*
X252148Y202971D01*
X252217Y202907D01*
X252288Y202845D01*
X252362Y202787D01*
X252438Y202731D01*
X252516Y202679D01*
X252596Y202630D01*
X252678Y202584D01*
X252762Y202541D01*
X252848Y202502D01*
X252935Y202466D01*
X253023Y202434D01*
X253226Y202338D01*
X253431Y202247D01*
X253639Y202161D01*
X253849Y202080D01*
X254060Y202003D01*
X254273Y201932D01*
X254488Y201866D01*
X254705Y201805D01*
X254923Y201749D01*
X255142Y201699D01*
X255362Y201653D01*
X255583Y201613D01*
X255805Y201578D01*
X256028Y201549D01*
X256252Y201525D01*
X256476Y201506D01*
X256700Y201493D01*
X256925Y201485D01*
X257150Y201482D01*
X257150Y207832D02*
X257375Y207829D01*
X257600Y207821D01*
X257824Y207808D01*
X258048Y207789D01*
X258272Y207765D01*
X258495Y207736D01*
X258717Y207701D01*
X258938Y207661D01*
X259158Y207615D01*
X259377Y207565D01*
X259595Y207509D01*
X259812Y207448D01*
X260027Y207382D01*
X260240Y207311D01*
X260451Y207234D01*
X260661Y207153D01*
X260869Y207067D01*
X261074Y206976D01*
X261277Y206880D01*
X261278Y206880D02*
X261366Y206848D01*
X261453Y206812D01*
X261539Y206773D01*
X261623Y206730D01*
X261705Y206684D01*
X261785Y206635D01*
X261863Y206583D01*
X261939Y206527D01*
X262013Y206469D01*
X262084Y206407D01*
X262153Y206343D01*
X262219Y206276D01*
X262282Y206207D01*
X262343Y206135D01*
X262401Y206061D01*
X262455Y205984D01*
X262507Y205906D01*
X262555Y205825D01*
X262600Y205743D01*
X262642Y205658D01*
X262680Y205572D01*
X262715Y205485D01*
X262747Y205397D01*
X262774Y205307D01*
X262799Y205216D01*
X262819Y205124D01*
X262836Y205032D01*
X262849Y204938D01*
X262858Y204845D01*
X262864Y204751D01*
X262866Y204657D01*
X261277Y202434D02*
X261074Y202338D01*
X260869Y202247D01*
X260661Y202161D01*
X260451Y202080D01*
X260240Y202003D01*
X260027Y201932D01*
X259812Y201866D01*
X259595Y201805D01*
X259377Y201749D01*
X259158Y201699D01*
X258938Y201653D01*
X258717Y201613D01*
X258495Y201578D01*
X258272Y201549D01*
X258048Y201525D01*
X257824Y201506D01*
X257600Y201493D01*
X257375Y201485D01*
X257150Y201482D01*
X261278Y202434D02*
X261366Y202466D01*
X261453Y202502D01*
X261539Y202541D01*
X261623Y202584D01*
X261705Y202630D01*
X261785Y202679D01*
X261863Y202731D01*
X261939Y202787D01*
X262013Y202845D01*
X262084Y202907D01*
X262153Y202971D01*
X262219Y203038D01*
X262282Y203107D01*
X262343Y203179D01*
X262401Y203253D01*
X262455Y203330D01*
X262507Y203408D01*
X262555Y203489D01*
X262600Y203571D01*
X262642Y203656D01*
X262680Y203742D01*
X262715Y203829D01*
X262747Y203917D01*
X262774Y204007D01*
X262799Y204098D01*
X262819Y204190D01*
X262836Y204282D01*
X262849Y204376D01*
X262858Y204469D01*
X262864Y204563D01*
X262866Y204657D01*
X260325Y207197D02*
X253975Y202117D01*
D12*
X33070Y316046D02*
X20856Y328260D01*
X26963Y328938D01*
X20856Y328260D02*
X20178Y322153D01*
M02*
