G04 EAGLE Gerber RS-274X export*
G75*
%MOMM*%
%FSLAX34Y34*%
%LPD*%
%INSolder side*%
%IPPOS*%
%AMOC8*
5,1,8,0,0,1.08239X$1,22.5*%
G01*
%ADD10C,1.524000*%
%ADD11C,0.650000*%

G36*
X300946Y41307D02*
X300946Y41307D01*
X300987Y41305D01*
X302984Y41479D01*
X303078Y41501D01*
X303156Y41510D01*
X305092Y42028D01*
X305181Y42066D01*
X305256Y42088D01*
X307072Y42935D01*
X307153Y42988D01*
X307223Y43022D01*
X308865Y44172D01*
X308936Y44238D01*
X308999Y44284D01*
X310416Y45701D01*
X310474Y45779D01*
X310528Y45835D01*
X311678Y47477D01*
X311722Y47563D01*
X311765Y47628D01*
X311879Y47871D01*
X311879Y47872D01*
X312345Y48871D01*
X312612Y49444D01*
X312640Y49537D01*
X312672Y49608D01*
X313190Y51544D01*
X313202Y51640D01*
X313221Y51716D01*
X313395Y53713D01*
X313393Y53759D01*
X313399Y53800D01*
X313399Y295200D01*
X313393Y295246D01*
X313395Y295287D01*
X313222Y297267D01*
X313200Y297361D01*
X313192Y297438D01*
X312678Y299358D01*
X312644Y299437D01*
X312625Y299507D01*
X312620Y299514D01*
X312618Y299521D01*
X311778Y301322D01*
X311725Y301403D01*
X311691Y301473D01*
X310551Y303101D01*
X310485Y303172D01*
X310439Y303234D01*
X309034Y304639D01*
X308957Y304698D01*
X308901Y304751D01*
X307273Y305891D01*
X307194Y305931D01*
X307192Y305932D01*
X307187Y305935D01*
X307122Y305978D01*
X305321Y306818D01*
X305229Y306846D01*
X305158Y306878D01*
X303238Y307392D01*
X303142Y307404D01*
X303067Y307422D01*
X301087Y307595D01*
X301041Y307593D01*
X301000Y307599D01*
X121000Y307599D01*
X120936Y307590D01*
X120872Y307591D01*
X120797Y307570D01*
X120721Y307559D01*
X120662Y307533D01*
X120600Y307516D01*
X120534Y307475D01*
X120464Y307443D01*
X120415Y307401D01*
X120360Y307368D01*
X120308Y307310D01*
X120250Y307260D01*
X120214Y307206D01*
X120171Y307158D01*
X120138Y307089D01*
X120095Y307024D01*
X120076Y306962D01*
X120048Y306905D01*
X120037Y306835D01*
X120013Y306754D01*
X120012Y306669D01*
X120001Y306600D01*
X120001Y213594D01*
X119853Y211910D01*
X119427Y210319D01*
X119091Y209599D01*
X119091Y209598D01*
X118731Y208827D01*
X117787Y207478D01*
X116622Y206313D01*
X115273Y205369D01*
X113781Y204673D01*
X112190Y204247D01*
X110507Y204099D01*
X38300Y204099D01*
X38236Y204090D01*
X38172Y204091D01*
X38097Y204070D01*
X38021Y204059D01*
X37962Y204033D01*
X37900Y204016D01*
X37834Y203975D01*
X37764Y203943D01*
X37715Y203901D01*
X37660Y203868D01*
X37608Y203810D01*
X37550Y203760D01*
X37514Y203706D01*
X37471Y203658D01*
X37438Y203589D01*
X37395Y203524D01*
X37376Y203462D01*
X37348Y203405D01*
X37337Y203335D01*
X37313Y203254D01*
X37312Y203169D01*
X37301Y203100D01*
X37301Y51200D01*
X37308Y51148D01*
X37306Y51102D01*
X37477Y49366D01*
X37503Y49258D01*
X37515Y49174D01*
X38021Y47504D01*
X38068Y47403D01*
X38096Y47323D01*
X38919Y45784D01*
X38984Y45695D01*
X39027Y45622D01*
X40134Y44273D01*
X40216Y44198D01*
X40273Y44134D01*
X41622Y43027D01*
X41717Y42970D01*
X41784Y42919D01*
X43323Y42096D01*
X43427Y42058D01*
X43504Y42021D01*
X45174Y41515D01*
X45283Y41498D01*
X45366Y41477D01*
X47102Y41306D01*
X47155Y41308D01*
X47200Y41301D01*
X300900Y41301D01*
X300946Y41307D01*
G37*
G36*
X107102Y209208D02*
X107102Y209208D01*
X107148Y209206D01*
X108465Y209335D01*
X108573Y209362D01*
X108657Y209373D01*
X109923Y209758D01*
X110024Y209805D01*
X110104Y209833D01*
X111271Y210456D01*
X111361Y210522D01*
X111434Y210565D01*
X112457Y211405D01*
X112532Y211486D01*
X112577Y211526D01*
X112591Y211539D01*
X112592Y211540D01*
X112595Y211543D01*
X113435Y212566D01*
X113492Y212661D01*
X113544Y212729D01*
X114167Y213896D01*
X114205Y214000D01*
X114242Y214077D01*
X114627Y215343D01*
X114643Y215453D01*
X114665Y215535D01*
X114794Y216852D01*
X114792Y216905D01*
X114799Y216950D01*
X114799Y306600D01*
X114790Y306664D01*
X114791Y306728D01*
X114770Y306803D01*
X114759Y306879D01*
X114733Y306938D01*
X114716Y307000D01*
X114675Y307066D01*
X114643Y307136D01*
X114601Y307185D01*
X114568Y307240D01*
X114510Y307292D01*
X114460Y307350D01*
X114406Y307386D01*
X114358Y307429D01*
X114289Y307462D01*
X114224Y307505D01*
X114162Y307524D01*
X114105Y307552D01*
X114035Y307563D01*
X113954Y307587D01*
X113869Y307588D01*
X113800Y307599D01*
X47100Y307599D01*
X47048Y307592D01*
X47002Y307594D01*
X45266Y307423D01*
X45158Y307397D01*
X45074Y307385D01*
X43404Y306879D01*
X43303Y306832D01*
X43223Y306804D01*
X41684Y305981D01*
X41595Y305916D01*
X41522Y305873D01*
X40173Y304766D01*
X40098Y304684D01*
X40034Y304627D01*
X38927Y303278D01*
X38870Y303184D01*
X38819Y303116D01*
X37996Y301577D01*
X37991Y301563D01*
X37986Y301556D01*
X37976Y301520D01*
X37958Y301473D01*
X37921Y301396D01*
X37415Y299726D01*
X37398Y299617D01*
X37377Y299534D01*
X37206Y297798D01*
X37208Y297745D01*
X37201Y297700D01*
X37201Y210200D01*
X37210Y210136D01*
X37209Y210072D01*
X37230Y209997D01*
X37241Y209921D01*
X37267Y209862D01*
X37284Y209800D01*
X37325Y209734D01*
X37357Y209664D01*
X37399Y209615D01*
X37432Y209560D01*
X37490Y209508D01*
X37540Y209450D01*
X37594Y209414D01*
X37642Y209371D01*
X37711Y209338D01*
X37776Y209295D01*
X37838Y209276D01*
X37895Y209248D01*
X37965Y209237D01*
X38046Y209213D01*
X38131Y209212D01*
X38200Y209201D01*
X107050Y209201D01*
X107102Y209208D01*
G37*
%LPC*%
G36*
X247854Y87299D02*
X247854Y87299D01*
X243186Y89233D01*
X239613Y92806D01*
X237679Y97474D01*
X237679Y102526D01*
X237752Y102702D01*
X237763Y102744D01*
X237781Y102782D01*
X237794Y102867D01*
X237822Y102976D01*
X237820Y103035D01*
X237828Y103087D01*
X237792Y122005D01*
X237786Y122045D01*
X237788Y122086D01*
X237768Y122170D01*
X237752Y122284D01*
X237728Y122337D01*
X237716Y122386D01*
X237679Y122474D01*
X237679Y127526D01*
X237704Y127587D01*
X237715Y127628D01*
X237733Y127666D01*
X237747Y127751D01*
X237774Y127860D01*
X237773Y127920D01*
X237780Y127971D01*
X237744Y147122D01*
X237738Y147162D01*
X237740Y147203D01*
X237720Y147287D01*
X237703Y147401D01*
X237679Y147453D01*
X237679Y147454D01*
X237679Y152526D01*
X239613Y157194D01*
X243186Y160767D01*
X247854Y162701D01*
X268146Y162701D01*
X272814Y160767D01*
X276387Y157194D01*
X278321Y152526D01*
X278321Y151172D01*
X278329Y151112D01*
X278329Y151090D01*
X278335Y151070D01*
X278339Y150980D01*
X278354Y150938D01*
X278361Y150893D01*
X278363Y150888D01*
X278363Y97797D01*
X278362Y97791D01*
X278345Y97745D01*
X278335Y97618D01*
X278321Y97528D01*
X278321Y97474D01*
X276387Y92806D01*
X272814Y89233D01*
X268146Y87299D01*
X247854Y87299D01*
G37*
%LPD*%
%LPC*%
G36*
X259999Y176999D02*
X259999Y176999D01*
X259999Y185161D01*
X266420Y185161D01*
X267999Y184911D01*
X269520Y184416D01*
X270945Y183690D01*
X272239Y182750D01*
X273370Y181619D01*
X274310Y180325D01*
X275036Y178900D01*
X275531Y177379D01*
X275591Y176999D01*
X259999Y176999D01*
G37*
%LPD*%
%LPC*%
G36*
X240409Y176999D02*
X240409Y176999D01*
X240469Y177379D01*
X240964Y178900D01*
X241690Y180325D01*
X242630Y181619D01*
X243761Y182750D01*
X245055Y183690D01*
X246480Y184416D01*
X248001Y184911D01*
X249580Y185161D01*
X256001Y185161D01*
X256001Y176999D01*
X240409Y176999D01*
G37*
%LPD*%
%LPC*%
G36*
X259999Y164839D02*
X259999Y164839D01*
X259999Y173001D01*
X275591Y173001D01*
X275531Y172621D01*
X275036Y171100D01*
X274310Y169675D01*
X273370Y168381D01*
X272239Y167250D01*
X270945Y166310D01*
X269520Y165584D01*
X267999Y165089D01*
X266420Y164839D01*
X259999Y164839D01*
G37*
%LPD*%
%LPC*%
G36*
X249580Y164839D02*
X249580Y164839D01*
X248001Y165089D01*
X246480Y165584D01*
X245055Y166310D01*
X243761Y167250D01*
X242630Y168381D01*
X241690Y169675D01*
X240964Y171100D01*
X240469Y172621D01*
X240409Y173001D01*
X256001Y173001D01*
X256001Y164839D01*
X249580Y164839D01*
G37*
%LPD*%
%LPC*%
G36*
X257999Y174999D02*
X257999Y174999D01*
X257999Y175001D01*
X258001Y175001D01*
X258001Y174999D01*
X257999Y174999D01*
G37*
%LPD*%
D10*
X265620Y100000D02*
X250380Y100000D01*
X250380Y125000D02*
X265620Y125000D01*
X265620Y150000D02*
X250380Y150000D01*
X250380Y175000D02*
X265620Y175000D01*
D11*
X274700Y250100D03*
X244900Y271600D03*
X234570Y137500D03*
X75000Y75000D03*
X125000Y75000D03*
X100000Y50000D03*
X150000Y50000D03*
X100000Y150000D03*
X75000Y175000D03*
X125000Y175000D03*
X150000Y150000D03*
X175000Y175000D03*
X225000Y175000D03*
X200000Y200000D03*
X150000Y200000D03*
X100000Y200000D03*
X50000Y200000D03*
X50000Y150000D03*
X50000Y100000D03*
X50000Y50000D03*
X300000Y50000D03*
X300000Y100000D03*
X300000Y150000D03*
X300000Y200000D03*
X300000Y250000D03*
X300000Y300000D03*
X250000Y300000D03*
X200000Y300000D03*
X150000Y300000D03*
X150000Y250000D03*
X175000Y275000D03*
X200000Y250000D03*
X225000Y225000D03*
X225000Y75000D03*
X275000Y75000D03*
X125000Y125000D03*
X125000Y275000D03*
X125000Y225000D03*
X180400Y137600D03*
X175800Y75000D03*
X223800Y100800D03*
X200000Y161900D03*
X110000Y300000D03*
X110000Y250000D03*
X42500Y300000D03*
X42500Y250000D03*
X50000Y213500D03*
X100000Y213500D03*
X65700Y247100D03*
X85400Y247100D03*
X86800Y258100D03*
X64150Y258170D03*
X85000Y217200D03*
X110000Y275000D03*
X42500Y275000D03*
X42500Y225000D03*
X62700Y303300D03*
X87700Y303300D03*
X66000Y217200D03*
M02*
