G04 EAGLE Gerber RS-274X export*
G75*
%MOMM*%
%FSLAX34Y34*%
%LPD*%
%INSolder stop mask CMP*%
%IPPOS*%
%AMOC8*
5,1,8,0,0,1.08239X$1,22.5*%
G01*
%ADD10C,2.903200*%
%ADD11C,0.240766*%
%ADD12R,1.803200X1.503200*%
%ADD13R,1.503200X1.703200*%
%ADD14R,1.170000X0.520000*%
%ADD15R,1.003200X1.003200*%
%ADD16C,0.250638*%
%ADD17C,0.252672*%
%ADD18C,1.524000*%
%ADD19C,1.727200*%
%ADD20C,0.650000*%


D10*
X0Y0D03*
X350000Y0D03*
X350000Y350000D03*
X0Y350000D03*
D11*
X208312Y116712D02*
X208312Y101088D01*
X200688Y101088D01*
X200688Y116712D01*
X208312Y116712D01*
X208312Y103376D02*
X200688Y103376D01*
X200688Y105664D02*
X208312Y105664D01*
X208312Y107952D02*
X200688Y107952D01*
X200688Y110240D02*
X208312Y110240D01*
X208312Y112528D02*
X200688Y112528D01*
X200688Y114816D02*
X208312Y114816D01*
X197312Y116712D02*
X197312Y101088D01*
X189688Y101088D01*
X189688Y116712D01*
X197312Y116712D01*
X197312Y103376D02*
X189688Y103376D01*
X189688Y105664D02*
X197312Y105664D01*
X197312Y107952D02*
X189688Y107952D01*
X189688Y110240D02*
X197312Y110240D01*
X197312Y112528D02*
X189688Y112528D01*
X189688Y114816D02*
X197312Y114816D01*
X186312Y116712D02*
X186312Y101088D01*
X178688Y101088D01*
X178688Y116712D01*
X186312Y116712D01*
X186312Y103376D02*
X178688Y103376D01*
X178688Y105664D02*
X186312Y105664D01*
X186312Y107952D02*
X178688Y107952D01*
X178688Y110240D02*
X186312Y110240D01*
X186312Y112528D02*
X178688Y112528D01*
X178688Y114816D02*
X186312Y114816D01*
X175312Y116712D02*
X175312Y101088D01*
X167688Y101088D01*
X167688Y116712D01*
X175312Y116712D01*
X175312Y103376D02*
X167688Y103376D01*
X167688Y105664D02*
X175312Y105664D01*
X175312Y107952D02*
X167688Y107952D01*
X167688Y110240D02*
X175312Y110240D01*
X175312Y112528D02*
X167688Y112528D01*
X167688Y114816D02*
X175312Y114816D01*
X164312Y116712D02*
X164312Y101088D01*
X156688Y101088D01*
X156688Y116712D01*
X164312Y116712D01*
X164312Y103376D02*
X156688Y103376D01*
X156688Y105664D02*
X164312Y105664D01*
X164312Y107952D02*
X156688Y107952D01*
X156688Y110240D02*
X164312Y110240D01*
X164312Y112528D02*
X156688Y112528D01*
X156688Y114816D02*
X164312Y114816D01*
X153312Y116712D02*
X153312Y101088D01*
X145688Y101088D01*
X145688Y116712D01*
X153312Y116712D01*
X153312Y103376D02*
X145688Y103376D01*
X145688Y105664D02*
X153312Y105664D01*
X153312Y107952D02*
X145688Y107952D01*
X145688Y110240D02*
X153312Y110240D01*
X153312Y112528D02*
X145688Y112528D01*
X145688Y114816D02*
X153312Y114816D01*
X142312Y116712D02*
X142312Y101088D01*
X134688Y101088D01*
X134688Y116712D01*
X142312Y116712D01*
X142312Y103376D02*
X134688Y103376D01*
X134688Y105664D02*
X142312Y105664D01*
X142312Y107952D02*
X134688Y107952D01*
X134688Y110240D02*
X142312Y110240D01*
X142312Y112528D02*
X134688Y112528D01*
X134688Y114816D02*
X142312Y114816D01*
X112312Y116712D02*
X112312Y101088D01*
X104688Y101088D01*
X104688Y116712D01*
X112312Y116712D01*
X112312Y103376D02*
X104688Y103376D01*
X104688Y105664D02*
X112312Y105664D01*
X112312Y107952D02*
X104688Y107952D01*
X104688Y110240D02*
X112312Y110240D01*
X112312Y112528D02*
X104688Y112528D01*
X104688Y114816D02*
X112312Y114816D01*
X101312Y116712D02*
X101312Y101088D01*
X93688Y101088D01*
X93688Y116712D01*
X101312Y116712D01*
X101312Y103376D02*
X93688Y103376D01*
X93688Y105664D02*
X101312Y105664D01*
X101312Y107952D02*
X93688Y107952D01*
X93688Y110240D02*
X101312Y110240D01*
X101312Y112528D02*
X93688Y112528D01*
X93688Y114816D02*
X101312Y114816D01*
X90312Y116712D02*
X90312Y101088D01*
X82688Y101088D01*
X82688Y116712D01*
X90312Y116712D01*
X90312Y103376D02*
X82688Y103376D01*
X82688Y105664D02*
X90312Y105664D01*
X90312Y107952D02*
X82688Y107952D01*
X82688Y110240D02*
X90312Y110240D01*
X90312Y112528D02*
X82688Y112528D01*
X82688Y114816D02*
X90312Y114816D01*
X79312Y116712D02*
X79312Y101088D01*
X71688Y101088D01*
X71688Y116712D01*
X79312Y116712D01*
X79312Y103376D02*
X71688Y103376D01*
X71688Y105664D02*
X79312Y105664D01*
X79312Y107952D02*
X71688Y107952D01*
X71688Y110240D02*
X79312Y110240D01*
X79312Y112528D02*
X71688Y112528D01*
X71688Y114816D02*
X79312Y114816D01*
X68312Y116712D02*
X68312Y101088D01*
X60688Y101088D01*
X60688Y116712D01*
X68312Y116712D01*
X68312Y103376D02*
X60688Y103376D01*
X60688Y105664D02*
X68312Y105664D01*
X68312Y107952D02*
X60688Y107952D01*
X60688Y110240D02*
X68312Y110240D01*
X68312Y112528D02*
X60688Y112528D01*
X60688Y114816D02*
X68312Y114816D01*
X68312Y223088D02*
X68312Y238712D01*
X68312Y223088D02*
X60688Y223088D01*
X60688Y238712D01*
X68312Y238712D01*
X68312Y225376D02*
X60688Y225376D01*
X60688Y227664D02*
X68312Y227664D01*
X68312Y229952D02*
X60688Y229952D01*
X60688Y232240D02*
X68312Y232240D01*
X68312Y234528D02*
X60688Y234528D01*
X60688Y236816D02*
X68312Y236816D01*
X79312Y238712D02*
X79312Y223088D01*
X71688Y223088D01*
X71688Y238712D01*
X79312Y238712D01*
X79312Y225376D02*
X71688Y225376D01*
X71688Y227664D02*
X79312Y227664D01*
X79312Y229952D02*
X71688Y229952D01*
X71688Y232240D02*
X79312Y232240D01*
X79312Y234528D02*
X71688Y234528D01*
X71688Y236816D02*
X79312Y236816D01*
X90312Y238712D02*
X90312Y223088D01*
X82688Y223088D01*
X82688Y238712D01*
X90312Y238712D01*
X90312Y225376D02*
X82688Y225376D01*
X82688Y227664D02*
X90312Y227664D01*
X90312Y229952D02*
X82688Y229952D01*
X82688Y232240D02*
X90312Y232240D01*
X90312Y234528D02*
X82688Y234528D01*
X82688Y236816D02*
X90312Y236816D01*
X101312Y238712D02*
X101312Y223088D01*
X93688Y223088D01*
X93688Y238712D01*
X101312Y238712D01*
X101312Y225376D02*
X93688Y225376D01*
X93688Y227664D02*
X101312Y227664D01*
X101312Y229952D02*
X93688Y229952D01*
X93688Y232240D02*
X101312Y232240D01*
X101312Y234528D02*
X93688Y234528D01*
X93688Y236816D02*
X101312Y236816D01*
X112312Y238712D02*
X112312Y223088D01*
X104688Y223088D01*
X104688Y238712D01*
X112312Y238712D01*
X112312Y225376D02*
X104688Y225376D01*
X104688Y227664D02*
X112312Y227664D01*
X112312Y229952D02*
X104688Y229952D01*
X104688Y232240D02*
X112312Y232240D01*
X112312Y234528D02*
X104688Y234528D01*
X104688Y236816D02*
X112312Y236816D01*
X142312Y238712D02*
X142312Y223088D01*
X134688Y223088D01*
X134688Y238712D01*
X142312Y238712D01*
X142312Y225376D02*
X134688Y225376D01*
X134688Y227664D02*
X142312Y227664D01*
X142312Y229952D02*
X134688Y229952D01*
X134688Y232240D02*
X142312Y232240D01*
X142312Y234528D02*
X134688Y234528D01*
X134688Y236816D02*
X142312Y236816D01*
X153312Y238712D02*
X153312Y223088D01*
X145688Y223088D01*
X145688Y238712D01*
X153312Y238712D01*
X153312Y225376D02*
X145688Y225376D01*
X145688Y227664D02*
X153312Y227664D01*
X153312Y229952D02*
X145688Y229952D01*
X145688Y232240D02*
X153312Y232240D01*
X153312Y234528D02*
X145688Y234528D01*
X145688Y236816D02*
X153312Y236816D01*
X164312Y238712D02*
X164312Y223088D01*
X156688Y223088D01*
X156688Y238712D01*
X164312Y238712D01*
X164312Y225376D02*
X156688Y225376D01*
X156688Y227664D02*
X164312Y227664D01*
X164312Y229952D02*
X156688Y229952D01*
X156688Y232240D02*
X164312Y232240D01*
X164312Y234528D02*
X156688Y234528D01*
X156688Y236816D02*
X164312Y236816D01*
X175312Y238712D02*
X175312Y223088D01*
X167688Y223088D01*
X167688Y238712D01*
X175312Y238712D01*
X175312Y225376D02*
X167688Y225376D01*
X167688Y227664D02*
X175312Y227664D01*
X175312Y229952D02*
X167688Y229952D01*
X167688Y232240D02*
X175312Y232240D01*
X175312Y234528D02*
X167688Y234528D01*
X167688Y236816D02*
X175312Y236816D01*
X186312Y238712D02*
X186312Y223088D01*
X178688Y223088D01*
X178688Y238712D01*
X186312Y238712D01*
X186312Y225376D02*
X178688Y225376D01*
X178688Y227664D02*
X186312Y227664D01*
X186312Y229952D02*
X178688Y229952D01*
X178688Y232240D02*
X186312Y232240D01*
X186312Y234528D02*
X178688Y234528D01*
X178688Y236816D02*
X186312Y236816D01*
X197312Y238712D02*
X197312Y223088D01*
X189688Y223088D01*
X189688Y238712D01*
X197312Y238712D01*
X197312Y225376D02*
X189688Y225376D01*
X189688Y227664D02*
X197312Y227664D01*
X197312Y229952D02*
X189688Y229952D01*
X189688Y232240D02*
X197312Y232240D01*
X197312Y234528D02*
X189688Y234528D01*
X189688Y236816D02*
X197312Y236816D01*
X208312Y238712D02*
X208312Y223088D01*
X200688Y223088D01*
X200688Y238712D01*
X208312Y238712D01*
X208312Y225376D02*
X200688Y225376D01*
X200688Y227664D02*
X208312Y227664D01*
X208312Y229952D02*
X200688Y229952D01*
X200688Y232240D02*
X208312Y232240D01*
X208312Y234528D02*
X200688Y234528D01*
X200688Y236816D02*
X208312Y236816D01*
D12*
X245400Y232800D03*
X245400Y213800D03*
X271500Y233000D03*
X271500Y214000D03*
D13*
X190900Y68800D03*
X207900Y68800D03*
D14*
X255550Y271200D03*
X255550Y264700D03*
X255550Y258200D03*
X255550Y271200D03*
X274850Y271200D03*
X274850Y264700D03*
X274850Y258200D03*
D15*
X233300Y273100D03*
X233300Y256600D03*
D16*
X65763Y265537D02*
X65763Y287063D01*
X65763Y265537D02*
X55737Y265537D01*
X55737Y287063D01*
X65763Y287063D01*
X65763Y267918D02*
X55737Y267918D01*
X55737Y270299D02*
X65763Y270299D01*
X65763Y272680D02*
X55737Y272680D01*
X55737Y275061D02*
X65763Y275061D01*
X65763Y277442D02*
X55737Y277442D01*
X55737Y279823D02*
X65763Y279823D01*
X65763Y282204D02*
X55737Y282204D01*
X55737Y284585D02*
X65763Y284585D01*
X65763Y286966D02*
X55737Y286966D01*
X95263Y287063D02*
X95263Y265537D01*
X85237Y265537D01*
X85237Y287063D01*
X95263Y287063D01*
X95263Y267918D02*
X85237Y267918D01*
X85237Y270299D02*
X95263Y270299D01*
X95263Y272680D02*
X85237Y272680D01*
X85237Y275061D02*
X95263Y275061D01*
X95263Y277442D02*
X85237Y277442D01*
X85237Y279823D02*
X95263Y279823D01*
X95263Y282204D02*
X85237Y282204D01*
X85237Y284585D02*
X95263Y284585D01*
X95263Y286966D02*
X85237Y286966D01*
D17*
X80503Y256547D02*
X70497Y256547D01*
X70497Y266053D01*
X80503Y266053D01*
X80503Y256547D01*
X80503Y258948D02*
X70497Y258948D01*
X70497Y261349D02*
X80503Y261349D01*
X80503Y263750D02*
X70497Y263750D01*
X70497Y286547D02*
X80503Y286547D01*
X70497Y286547D02*
X70497Y296053D01*
X80503Y296053D01*
X80503Y286547D01*
X80503Y288948D02*
X70497Y288948D01*
X70497Y291349D02*
X80503Y291349D01*
X80503Y293750D02*
X70497Y293750D01*
D18*
X250380Y100000D02*
X265620Y100000D01*
D19*
X250380Y100000D01*
D18*
X250380Y125000D02*
X265620Y125000D01*
D19*
X250380Y125000D01*
D18*
X250380Y150000D02*
X265620Y150000D01*
D19*
X250380Y150000D01*
D18*
X250380Y175000D02*
X265620Y175000D01*
D19*
X250380Y175000D01*
D13*
X190900Y89100D03*
X207900Y89100D03*
D20*
X274700Y250100D03*
X244900Y271600D03*
X234570Y137500D03*
X75000Y75000D03*
X125000Y75000D03*
X100000Y50000D03*
X150000Y50000D03*
X100000Y150000D03*
X75000Y175000D03*
X125000Y175000D03*
X150000Y150000D03*
X175000Y175000D03*
X225000Y175000D03*
X200000Y200000D03*
X150000Y200000D03*
X100000Y200000D03*
X50000Y200000D03*
X50000Y150000D03*
X50000Y100000D03*
X50000Y50000D03*
X300000Y50000D03*
X300000Y100000D03*
X300000Y150000D03*
X300000Y200000D03*
X300000Y250000D03*
X300000Y300000D03*
X250000Y300000D03*
X200000Y300000D03*
X150000Y300000D03*
X150000Y250000D03*
X175000Y275000D03*
X200000Y250000D03*
X225000Y225000D03*
X225000Y75000D03*
X275000Y75000D03*
X125000Y125000D03*
X125000Y275000D03*
X125000Y225000D03*
X180400Y137600D03*
X175800Y75000D03*
X223800Y100800D03*
X200000Y161900D03*
X110000Y300000D03*
X110000Y250000D03*
X42500Y300000D03*
X42500Y250000D03*
X50000Y213500D03*
X100000Y213500D03*
X65700Y247100D03*
X85400Y247100D03*
X86800Y258100D03*
X64150Y258170D03*
X85000Y217200D03*
X110000Y275000D03*
X42500Y275000D03*
X42500Y225000D03*
X62700Y303300D03*
X87700Y303300D03*
X66000Y217200D03*
M02*
